{"glyphs":{"0":{"ha":871,"x_min":82,"x_max":789,"o":"m 439 -26 q 174 104 265 -26 q 82 479 82 235 q 176 864 82 728 q 444 1000 269 1000 q 701 869 614 1000 q 789 486 789 739 q 700 103 789 233 q 439 -26 611 -26 m 436 85 q 603 183 543 85 q 664 489 664 281 q 638 716 664 628 q 561 847 611 804 q 440 889 511 889 q 316 844 368 889 q 235 710 264 800 q 207 482 207 619 q 268 183 207 281 q 436 85 329 85 z "},"1":{"ha":633,"x_min":63,"x_max":499,"o":"m 374 756 q 308 690 342 718 q 219 640 275 663 q 63 596 163 618 l 63 715 q 257 806 179 736 q 386 972 335 876 l 499 972 l 499 0 l 374 0 l 374 756 z "},"2":{"ha":878,"x_min":117,"x_max":757,"o":"m 117 208 q 328 292 233 244 q 491 397 424 339 q 595 526 558 456 q 632 681 632 597 q 602 805 632 760 q 525 869 572 850 q 426 889 478 889 q 310 866 364 889 q 211 804 256 843 l 131 885 q 210 944 164 918 q 312 985 256 971 q 432 1000 368 1000 q 669 916 582 1000 q 757 676 757 832 q 719 497 757 579 q 602 343 681 414 q 403 212 524 272 q 117 97 282 151 l 117 208 m 117 111 l 757 111 l 757 0 l 117 0 l 117 111 z "},"3":{"ha":803,"x_min":47,"x_max":726,"o":"m 128 197 q 215 135 174 160 q 299 97 256 110 q 394 85 343 85 q 547 126 492 85 q 601 243 601 167 q 516 388 601 338 q 267 438 431 438 l 267 500 q 535 482 435 507 q 681 400 636 457 q 726 254 726 343 q 683 99 726 161 q 566 5 640 36 q 399 -26 492 -26 q 206 11 294 -26 q 47 117 117 49 l 128 197 m 267 560 q 492 607 415 560 q 569 738 569 654 q 518 849 569 808 q 381 889 467 889 q 263 866 315 889 q 167 804 211 843 l 86 885 q 163 944 118 918 q 264 985 207 971 q 388 1000 321 1000 q 556 967 488 1000 q 660 878 625 935 q 694 746 694 821 q 590 553 694 619 q 267 497 485 488 l 267 560 z "},"4":{"ha":924,"x_min":75,"x_max":875,"o":"m 75 301 l 528 972 l 686 972 l 686 350 l 875 350 l 875 238 l 686 238 l 686 0 l 561 0 l 561 238 l 75 238 l 75 301 m 561 350 l 561 821 l 243 350 l 561 350 z "},"5":{"ha":840,"x_min":65,"x_max":764,"o":"m 146 222 q 261 121 204 158 q 406 83 318 83 q 578 145 517 83 q 639 321 639 207 q 588 474 639 422 q 433 525 538 525 q 274 497 357 525 q 101 417 192 469 l 189 972 l 719 972 l 719 861 l 289 861 l 251 582 q 343 615 292 601 q 454 629 394 629 q 619 591 550 629 q 726 482 689 553 q 764 313 764 411 q 721 131 764 207 q 599 13 678 54 q 410 -28 519 -28 q 225 13 307 -28 q 65 142 143 53 l 146 222 z "},"6":{"ha":876,"x_min":67,"x_max":804,"o":"m 676 804 q 581 866 633 843 q 463 889 528 889 q 301 836 367 889 q 201 685 235 783 q 172 447 168 586 l 165 461 q 228 549 183 510 q 335 613 272 589 q 474 636 399 636 q 643 597 568 636 q 761 485 718 557 q 804 317 804 414 q 762 142 804 221 q 639 18 719 64 q 443 -28 558 -28 q 164 97 261 -28 q 67 457 67 221 q 115 753 67 632 q 250 938 163 875 q 458 1000 338 1000 q 582 985 526 1000 q 681 944 638 971 q 757 885 725 918 l 676 804 m 207 308 q 235 188 207 238 q 317 110 264 138 q 440 83 369 83 q 616 147 553 83 q 679 317 679 211 q 615 483 679 426 q 447 539 550 539 q 272 477 336 539 q 207 308 207 415 z "},"7":{"ha":785,"x_min":75,"x_max":722,"o":"m 563 861 l 75 861 l 75 972 l 722 972 l 722 917 l 333 0 l 197 0 l 563 861 z "},"8":{"ha":840,"x_min":65,"x_max":776,"o":"m 324 514 q 163 598 222 536 q 104 753 104 660 q 144 883 104 828 q 256 969 185 939 q 419 1000 328 1000 q 583 968 513 1000 q 694 879 654 936 q 735 746 735 822 q 678 597 735 658 q 524 514 622 535 q 710 427 644 494 q 776 253 776 360 q 731 101 776 164 q 607 5 686 38 q 425 -28 528 -28 q 240 6 321 -28 q 112 101 158 39 q 65 251 65 163 q 133 426 65 357 q 324 514 201 494 m 190 263 q 253 127 190 171 q 418 83 317 83 q 586 128 521 83 q 651 265 651 172 q 593 402 651 350 q 421 454 535 454 q 248 400 306 454 q 190 263 190 346 m 229 733 q 278 610 229 656 q 419 565 328 565 q 563 613 515 565 q 610 735 610 660 q 561 850 610 811 q 419 889 513 889 q 277 849 325 889 q 229 733 229 810 z "},"9":{"ha":876,"x_min":67,"x_max":804,"o":"m 194 167 q 290 105 238 128 q 408 82 343 82 q 570 135 504 82 q 669 286 636 188 q 699 524 703 385 l 706 510 q 643 422 688 461 q 535 358 599 382 q 397 335 472 335 q 228 374 303 335 q 110 486 153 414 q 67 654 67 558 q 109 829 67 751 q 233 953 151 907 q 428 999 314 999 q 707 874 610 999 q 804 514 804 750 q 757 218 804 339 q 622 34 710 97 q 413 -29 533 -29 q 290 -14 346 -29 q 190 27 233 1 q 114 86 146 53 l 194 167 m 664 663 q 635 784 664 733 q 555 861 607 835 q 431 888 503 888 q 255 824 318 888 q 192 654 192 761 q 256 488 192 544 q 424 432 321 432 q 599 494 535 432 q 664 663 664 557 z "},"\u0000":{"ha":833,"x_min":0,"x_max":0,"o":""},"\r":{"ha":347,"x_min":0,"x_max":0,"o":""}," ":{"ha":292,"x_min":0,"x_max":0,"o":""},"m":{"ha":1249,"x_min":103,"x_max":1151,"o":"m 103 694 l 228 694 l 228 0 l 103 0 l 103 694 m 565 408 q 538 576 565 526 q 439 625 510 625 q 281 536 333 625 q 228 301 228 447 l 218 381 l 217 475 q 268 606 232 551 q 358 692 304 661 q 481 722 413 722 q 638 647 585 722 q 690 422 690 572 l 690 0 l 565 0 l 565 408 m 1026 408 q 999 576 1026 526 q 900 625 971 625 q 743 536 796 625 q 690 301 690 447 l 679 381 l 678 475 q 729 606 693 551 q 819 692 765 661 q 942 722 874 722 q 1099 647 1046 722 q 1151 422 1151 572 l 1151 0 l 1026 0 l 1026 408 z "},"u":{"ha":806,"x_min":106,"x_max":699,"o":"m 231 694 l 231 256 q 278 113 231 156 q 404 69 325 69 q 529 114 485 69 q 574 256 574 158 l 574 694 l 699 694 l 699 257 q 664 110 699 174 q 563 9 629 46 q 403 -28 497 -28 q 243 8 310 -28 q 141 108 176 43 q 106 257 106 172 l 106 694 l 231 694 z "},"i":{"ha":378,"x_min":117,"x_max":263,"o":"m 126 694 l 251 694 l 251 0 l 126 0 l 126 694 m 117 897 q 125 930 117 914 q 150 956 133 946 q 190 967 167 967 q 244 945 226 967 q 263 897 263 924 q 244 848 263 871 q 190 825 226 825 q 150 836 167 825 q 125 864 133 847 q 117 897 117 881 z "},"h":{"ha":842,"x_min":117,"x_max":738,"o":"m 117 1042 l 242 1042 l 242 0 l 117 0 l 117 1042 m 613 408 q 581 576 613 526 q 472 625 550 625 q 300 536 358 625 q 242 301 242 447 l 232 381 l 231 475 q 285 606 247 551 q 380 692 324 661 q 503 722 436 722 q 680 647 622 722 q 738 422 738 572 l 738 0 l 613 0 l 613 408 z "},"l":{"ha":417,"x_min":92,"x_max":394,"o":"m 394 1 q 321 -22 350 -17 q 265 -28 292 -28 q 132 25 172 -28 q 92 183 92 78 l 92 1042 l 217 1042 l 217 196 q 230 97 217 119 q 278 74 243 74 q 324 79 300 74 q 369 94 349 85 l 394 1 z "},"p":{"ha":829,"x_min":107,"x_max":776,"o":"m 107 694 l 232 694 l 232 -278 l 107 -278 l 107 694 m 460 -28 q 319 25 376 -28 q 231 165 261 78 q 201 354 201 253 q 233 540 201 457 q 324 673 264 624 q 468 722 383 722 q 638 675 569 722 q 741 545 706 628 q 776 354 776 463 q 738 160 776 246 q 629 23 700 74 q 460 -28 558 -28 m 447 69 q 597 147 542 69 q 651 356 651 225 q 598 554 651 483 q 449 625 544 625 q 337 590 386 625 q 260 495 288 556 q 232 357 232 435 q 259 211 232 276 q 335 108 286 146 q 447 69 383 69 z "},"d":{"ha":829,"x_min":69,"x_max":739,"o":"m 386 -28 q 217 23 288 -28 q 108 160 146 74 q 69 354 69 246 q 105 545 69 463 q 209 675 140 628 q 378 722 278 722 q 575 625 506 722 q 644 354 644 528 q 578 71 644 169 q 386 -28 511 -28 m 399 69 q 510 108 461 69 q 585 211 558 146 q 613 357 613 276 q 585 495 613 435 q 508 590 557 556 q 397 625 460 625 q 247 554 299 625 q 194 356 194 483 q 249 147 194 225 q 399 69 304 69 m 614 0 l 614 1042 l 739 1042 l 739 0 l 614 0 z "},"o":{"ha":803,"x_min":64,"x_max":739,"o":"m 393 -28 q 214 17 288 -28 q 102 147 140 61 q 64 354 64 232 q 102 552 64 469 q 215 678 140 635 q 394 722 289 722 q 652 625 565 722 q 739 354 739 528 q 651 72 739 171 q 393 -28 564 -28 m 396 69 q 560 139 507 69 q 614 351 614 208 q 560 556 614 488 q 399 625 507 625 q 240 559 292 625 q 189 354 189 493 q 240 141 189 213 q 396 69 292 69 z "},"q":{"ha":826,"x_min":56,"x_max":725,"o":"m 372 -28 q 203 23 274 -28 q 94 160 132 74 q 56 354 56 246 q 91 545 56 463 q 195 675 126 628 q 364 722 264 722 q 561 625 492 722 q 631 354 631 528 q 564 71 631 169 q 372 -28 497 -28 m 385 69 q 497 108 449 69 q 573 211 546 146 q 600 357 600 276 q 572 495 600 435 q 496 590 544 556 q 383 625 447 625 q 235 553 290 625 q 181 356 181 481 q 206 206 181 269 q 278 106 232 142 q 385 69 324 69 m 600 -278 l 600 694 l 725 694 l 725 -278 l 600 -278 z "},"b":{"ha":833,"x_min":108,"x_max":778,"o":"m 108 1042 l 233 1042 l 233 0 l 108 0 l 108 1042 m 468 -28 q 270 71 338 -28 q 203 354 203 169 q 234 553 203 471 q 327 678 265 635 q 479 722 389 722 q 642 675 575 722 q 743 545 708 628 q 778 354 778 463 q 740 160 778 246 q 633 23 703 74 q 468 -28 563 -28 m 449 69 q 597 148 542 69 q 653 356 653 226 q 599 553 653 481 q 450 625 544 625 q 338 590 388 625 q 261 494 289 556 q 233 356 233 433 q 260 209 233 274 q 336 107 288 144 q 449 69 385 69 z "},"c":{"ha":701,"x_min":64,"x_max":663,"o":"m 663 97 q 547 7 619 42 q 378 -28 474 -28 q 146 72 228 -28 q 64 354 64 171 q 145 625 64 528 q 376 722 226 722 q 540 688 469 722 q 654 597 611 653 l 581 524 q 491 599 543 572 q 381 625 439 625 q 236 559 283 625 q 189 354 189 493 q 236 141 189 213 q 378 69 283 69 q 495 96 439 69 q 589 171 551 122 l 663 97 z "},"e":{"ha":764,"x_min":65,"x_max":703,"o":"m 390 -28 q 220 15 293 -28 q 106 141 147 57 q 65 349 65 225 q 150 627 65 532 q 385 722 235 722 q 560 677 488 722 q 667 544 632 632 q 694 329 703 457 l 190 329 q 240 143 190 217 q 392 69 289 69 q 501 96 451 69 q 588 171 551 122 l 661 97 q 551 7 619 42 q 390 -28 482 -28 m 196 411 l 565 411 q 508 572 556 518 q 385 625 461 625 q 257 572 308 625 q 196 411 206 518 z "},"j":{"ha":403,"x_min":-18,"x_max":300,"o":"m 7 -189 q 60 -204 33 -199 q 103 -210 88 -210 q 151 -182 140 -210 q 161 -82 161 -154 l 161 694 l 286 694 l 286 -94 q 245 -256 286 -204 q 128 -307 204 -307 q 71 -303 92 -307 q 31 -292 50 -299 q -18 -275 11 -285 l 7 -189 m 154 897 q 163 930 154 914 q 188 956 171 946 q 228 967 204 967 q 282 945 264 967 q 300 897 300 924 q 282 848 300 871 q 228 825 264 825 q 188 836 204 825 q 163 864 171 847 q 154 897 154 881 z "},"f":{"ha":574,"x_min":31,"x_max":519,"o":"m 179 597 l 31 597 l 31 694 l 179 694 l 179 844 q 228 995 179 949 q 363 1042 276 1042 q 423 1035 392 1042 q 508 1011 454 1029 l 488 928 q 430 940 463 936 q 375 944 397 944 q 323 927 342 944 q 304 846 304 910 l 304 694 l 519 694 l 519 597 l 304 597 l 304 0 l 179 0 l 179 597 z "},"r":{"ha":569,"x_min":117,"x_max":504,"o":"m 117 694 l 242 694 l 242 535 q 294 632 260 590 q 381 697 328 674 q 504 722 433 721 l 504 625 q 376 597 426 625 q 296 524 325 569 q 254 423 267 478 q 242 314 242 368 l 242 0 l 117 0 l 117 694 z "},"t":{"ha":549,"x_min":18,"x_max":485,"o":"m 485 8 q 400 -22 432 -15 q 340 -28 368 -28 q 207 25 247 -28 q 167 183 167 78 l 167 861 l 292 861 l 292 196 q 305 97 292 119 q 353 74 318 74 q 408 81 379 74 q 460 101 438 89 l 485 8 m 18 694 l 479 694 l 479 597 l 18 597 l 18 694 z "},"k":{"ha":797,"x_min":93,"x_max":742,"o":"m 93 1042 l 218 1042 l 218 0 l 93 0 l 93 1042 m 103 415 l 461 415 l 590 694 l 722 694 l 547 365 l 742 0 l 600 0 l 456 325 l 113 325 l 103 415 z "},"a":{"ha":828,"x_min":43,"x_max":713,"o":"m 353 -28 q 188 21 257 -28 q 81 156 118 69 q 43 353 43 242 q 78 542 43 458 q 178 674 113 625 q 340 722 244 722 q 547 624 475 722 q 618 344 618 526 q 550 70 618 168 q 353 -28 482 -28 m 371 69 q 485 107 436 69 q 560 208 533 144 q 588 353 588 272 q 560 494 588 433 q 482 590 532 556 q 367 625 432 625 q 221 553 274 625 q 168 357 168 482 q 223 148 168 226 q 371 69 278 69 m 588 0 l 588 694 l 713 694 l 713 0 l 588 0 z "},"v":{"ha":736,"x_min":35,"x_max":701,"o":"m 35 694 l 172 694 l 368 128 l 564 694 l 701 694 l 435 0 l 301 0 l 35 694 z "},"w":{"ha":1186,"x_min":51,"x_max":1135,"o":"m 51 694 l 189 694 l 367 150 l 538 694 l 649 694 l 819 150 l 997 694 l 1135 694 l 882 0 l 763 0 l 593 561 l 424 0 l 304 0 l 51 694 z "},"x":{"ha":769,"x_min":57,"x_max":713,"o":"m 293 364 l 307 328 l 69 694 l 221 694 l 408 368 l 361 368 l 549 694 l 699 694 l 471 329 l 485 365 l 713 0 l 561 0 l 383 308 l 206 0 l 57 0 l 293 364 z "},"y":{"ha":731,"x_min":28,"x_max":703,"o":"m 94 -189 q 151 -204 121 -199 q 199 -210 181 -210 q 251 -194 229 -210 q 288 -151 272 -179 q 318 -81 304 -122 l 571 694 l 703 694 l 426 -108 q 378 -217 404 -172 q 314 -284 351 -261 q 219 -307 276 -307 q 157 -303 181 -307 q 113 -292 133 -299 q 64 -275 93 -285 l 94 -189 m 28 694 l 160 694 l 385 0 l 267 0 l 28 694 z "},"z":{"ha":657,"x_min":46,"x_max":611,"o":"m 46 83 l 465 597 l 74 597 l 74 694 l 611 694 l 611 611 l 192 97 l 611 97 l 611 0 l 46 0 l 46 83 z "},"E":{"ha":736,"x_min":103,"x_max":660,"o":"m 103 972 l 640 972 l 640 861 l 228 861 l 228 563 l 604 563 l 604 451 l 228 451 l 228 111 l 660 111 l 660 0 l 103 0 l 103 972 z "},"g":{"ha":826,"x_min":69,"x_max":738,"o":"m 400 -306 q 223 -271 297 -306 q 106 -181 149 -236 l 179 -107 q 274 -182 217 -156 q 407 -208 331 -208 q 509 -188 463 -208 q 584 -112 556 -168 q 613 50 613 -57 l 613 694 l 738 694 l 738 72 q 653 -207 738 -108 q 400 -306 568 -306 m 375 -28 q 213 23 282 -28 q 107 161 144 74 q 69 360 69 249 q 104 547 69 465 q 206 676 139 629 q 368 722 272 722 q 574 625 504 722 q 644 351 644 528 q 614 152 644 238 q 524 19 583 67 q 375 -28 464 -28 m 396 69 q 510 108 461 69 q 585 210 558 146 q 613 354 613 275 q 585 494 613 433 q 508 590 557 556 q 393 625 458 625 q 247 553 300 625 q 194 357 194 482 q 250 148 194 226 q 396 69 306 69 z "},"D":{"ha":1003,"x_min":117,"x_max":929,"o":"m 117 0 l 117 972 l 463 972 q 706 910 601 972 q 870 740 811 849 q 929 486 929 631 q 870 232 929 342 q 706 61 811 122 q 463 0 601 0 l 117 0 m 242 111 l 450 111 q 638 156 560 111 q 757 285 715 201 q 799 485 799 368 q 706 761 799 661 q 450 861 614 861 l 242 861 l 242 111 z "},"F":{"ha":708,"x_min":103,"x_max":660,"o":"m 103 972 l 660 972 l 660 861 l 228 861 l 228 542 l 604 542 l 604 431 l 228 431 l 228 0 l 103 0 l 103 972 z "},"A":{"ha":910,"x_min":44,"x_max":865,"o":"m 246 300 l 660 300 l 707 196 l 199 196 l 246 300 m 360 972 l 475 972 l 178 0 l 44 0 l 360 972 m 435 972 l 550 972 l 865 0 l 732 0 l 435 972 z "},"B":{"ha":881,"x_min":122,"x_max":811,"o":"m 122 972 l 461 972 q 615 944 551 972 q 713 861 679 915 q 747 731 747 807 q 679 571 747 625 q 479 517 611 517 q 660 489 586 517 q 773 407 735 461 q 811 272 811 353 q 770 126 811 188 q 658 33 729 65 q 494 0 588 0 l 122 0 l 122 972 m 454 111 q 632 158 579 111 q 685 288 685 204 q 633 415 685 371 q 456 458 581 458 l 139 458 l 139 564 l 440 564 q 577 607 533 564 q 621 722 621 650 q 578 828 621 794 q 440 861 535 861 l 247 861 l 247 111 l 454 111 z "},"H":{"ha":994,"x_min":121,"x_max":874,"o":"m 121 972 l 246 972 l 246 569 l 749 569 l 749 972 l 874 972 l 874 0 l 749 0 l 749 458 l 246 458 l 246 0 l 121 0 l 121 972 z "},"C":{"ha":950,"x_min":74,"x_max":885,"o":"m 885 142 q 723 13 808 54 q 535 -28 638 -28 q 347 10 432 -28 q 201 119 263 49 q 107 289 140 190 q 74 507 74 388 q 127 768 74 657 q 281 940 181 879 q 525 1000 382 1000 q 728 959 639 1000 q 885 832 817 918 l 804 751 q 671 856 740 822 q 519 889 601 889 q 289 790 374 889 q 204 508 204 692 q 246 285 204 381 q 362 136 288 189 q 536 83 436 83 q 682 118 614 83 q 804 222 750 153 l 885 142 z "},"G":{"ha":1078,"x_min":74,"x_max":968,"o":"m 843 397 l 474 397 l 474 508 l 968 508 l 968 0 l 843 0 l 843 397 m 864 324 q 838 186 864 250 q 763 74 811 122 q 648 -1 714 26 q 504 -28 582 -28 q 283 30 381 -28 q 129 201 185 88 q 74 486 74 315 q 128 772 74 658 q 284 943 183 886 q 524 1000 385 1000 q 741 959 642 1000 q 910 832 840 918 l 829 751 q 690 856 761 824 q 532 889 619 889 q 352 843 425 889 q 242 706 279 797 q 204 481 204 615 q 240 259 204 347 q 347 127 276 171 q 522 83 418 83 q 699 126 628 83 q 808 245 771 168 q 844 426 844 322 l 864 324 z "},"L":{"ha":728,"x_min":122,"x_max":700,"o":"m 122 972 l 247 972 l 247 111 l 700 111 l 700 0 l 122 0 l 122 972 z "},"I":{"ha":453,"x_min":164,"x_max":289,"o":"m 164 972 l 289 972 l 289 0 l 164 0 l 164 972 z "},"O":{"ha":1076,"x_min":74,"x_max":1003,"o":"m 538 -28 q 298 31 403 -28 q 133 205 193 90 q 74 486 74 319 q 132 765 74 650 q 295 940 190 879 q 539 1000 400 1000 q 788 937 683 1000 q 947 758 892 874 q 1003 486 1003 643 q 943 203 1003 318 q 778 31 883 89 q 538 -28 674 -28 m 542 83 q 719 132 646 83 q 833 271 793 181 q 872 486 872 361 q 788 788 872 688 q 533 889 703 889 q 290 782 376 889 q 204 486 204 675 q 292 185 204 286 q 542 83 379 83 z "},"N":{"ha":1017,"x_min":121,"x_max":896,"o":"m 121 972 l 232 972 l 771 203 l 771 972 l 896 972 l 896 0 l 785 0 l 246 769 l 246 0 l 121 0 l 121 972 z "},"Q":{"ha":1076,"x_min":74,"x_max":1003,"o":"m 538 -28 q 298 31 403 -28 q 133 205 193 90 q 74 486 74 319 q 132 765 74 650 q 295 940 190 879 q 539 1000 400 1000 q 788 937 683 1000 q 947 758 892 874 q 1003 486 1003 643 q 943 203 1003 318 q 778 31 883 89 q 538 -28 674 -28 m 881 -269 q 691 -260 765 -269 q 575 -222 617 -250 q 517 -142 533 -194 q 500 -4 500 -89 l 615 -4 q 625 -93 615 -60 q 662 -142 635 -126 q 742 -163 689 -158 q 881 -168 794 -168 l 881 -269 m 542 83 q 719 132 646 83 q 833 271 793 181 q 872 486 872 361 q 788 788 872 688 q 533 889 703 889 q 290 782 376 889 q 204 486 204 675 q 292 185 204 286 q 542 83 379 83 z "},"J":{"ha":750,"x_min":22,"x_max":640,"o":"m 103 250 q 213 124 156 164 q 339 83 271 83 q 470 140 425 83 q 515 299 515 197 l 515 972 l 640 972 l 640 308 q 563 58 640 144 q 346 -28 486 -28 q 166 20 243 -28 q 22 169 89 68 l 103 250 z "},"T":{"ha":869,"x_min":42,"x_max":828,"o":"m 372 861 l 42 861 l 42 972 l 828 972 l 828 861 l 497 861 l 497 0 l 372 0 l 372 861 z "},"U":{"ha":938,"x_min":111,"x_max":826,"o":"m 236 972 l 236 367 q 298 150 236 217 q 468 83 360 83 q 640 151 578 83 q 701 367 701 218 l 701 972 l 826 972 l 826 364 q 784 156 826 244 q 662 20 742 68 q 467 -28 582 -28 q 273 20 353 -28 q 152 156 193 68 q 111 364 111 243 l 111 972 l 236 972 z "},"P":{"ha":872,"x_min":122,"x_max":813,"o":"m 122 972 l 436 972 q 641 933 557 972 q 769 824 725 894 q 813 656 813 753 q 767 483 813 556 q 637 369 722 410 q 431 329 551 329 l 247 329 l 247 0 l 122 0 l 122 972 m 428 440 q 574 464 517 440 q 659 536 631 488 q 688 658 688 585 q 660 774 688 729 q 577 840 633 819 q 432 861 521 861 l 247 861 l 247 440 l 428 440 z "},"R":{"ha":900,"x_min":122,"x_max":843,"o":"m 122 972 l 483 972 q 729 892 640 972 q 818 672 818 813 q 776 509 818 578 q 659 403 735 440 q 478 367 583 367 l 139 367 l 139 478 l 471 478 q 643 521 593 478 q 693 669 693 564 q 643 818 693 775 q 472 861 593 861 l 247 861 l 247 0 l 122 0 l 122 972 m 504 390 l 607 463 l 843 0 l 703 0 l 504 390 z "},"K":{"ha":931,"x_min":122,"x_max":865,"o":"m 721 0 l 486 442 l 153 442 l 140 554 l 469 554 l 711 972 l 860 972 l 571 510 l 865 0 l 721 0 m 122 0 l 122 972 l 247 972 l 247 0 l 122 0 z "},"V":{"ha":910,"x_min":44,"x_max":865,"o":"m 732 972 l 865 972 l 550 0 l 435 0 l 732 972 m 44 972 l 178 972 l 475 0 l 360 0 l 44 972 z "},"W":{"ha":1333,"x_min":38,"x_max":1297,"o":"m 38 972 l 169 972 l 422 0 l 317 0 l 38 972 m 614 972 l 696 972 l 474 0 l 378 0 l 614 972 m 639 972 l 721 972 l 957 0 l 861 0 l 639 972 m 1165 972 l 1297 972 l 1018 0 l 913 0 l 1165 972 z "},"Y":{"ha":892,"x_min":44,"x_max":847,"o":"m 383 411 l 44 972 l 188 972 l 446 535 l 704 972 l 847 972 l 508 411 l 508 0 l 383 0 l 383 411 z "},"Z":{"ha":801,"x_min":53,"x_max":744,"o":"m 53 104 l 596 861 l 92 861 l 92 972 l 742 972 l 742 868 l 199 111 l 744 111 l 744 0 l 53 0 l 53 104 z "},"M":{"ha":1233,"x_min":121,"x_max":1113,"o":"m 121 972 l 246 972 l 617 246 l 988 972 l 1113 972 l 1113 0 l 988 0 l 988 729 l 647 69 l 586 69 l 246 729 l 246 0 l 121 0 l 121 972 z "},"X":{"ha":900,"x_min":49,"x_max":853,"o":"m 344 492 l 56 972 l 203 972 l 451 542 l 700 972 l 846 972 l 557 492 l 853 0 l 707 0 l 450 446 l 193 0 l 49 0 l 344 492 z "},"s":{"ha":676,"x_min":82,"x_max":614,"o":"m 156 171 q 242 97 192 125 q 356 69 293 69 q 453 96 417 69 q 489 167 489 122 q 451 240 489 208 q 329 294 414 272 q 154 383 213 325 q 96 519 96 440 q 126 622 96 576 q 210 695 156 668 q 338 722 264 722 q 493 686 425 722 q 601 597 561 650 l 528 524 q 444 597 493 569 q 343 625 394 625 q 256 598 292 625 q 221 524 221 571 q 260 443 221 479 q 399 381 300 407 q 557 303 500 351 q 614 181 614 256 q 579 74 614 121 q 485 -1 544 26 q 349 -28 425 -28 q 191 9 260 -28 q 82 97 122 46 l 156 171 z "},"S":{"ha":833,"x_min":67,"x_max":751,"o":"m 147 221 q 276 119 208 154 q 425 83 343 83 q 529 101 483 83 q 601 156 575 119 q 626 244 626 192 q 603 329 626 293 q 528 391 579 365 q 400 433 478 417 q 263 478 322 450 q 163 544 203 506 q 101 630 122 582 q 81 736 81 678 q 119 876 81 817 q 229 968 158 936 q 394 1000 300 1000 q 588 958 501 1000 q 739 832 674 915 l 658 751 q 531 853 597 818 q 390 889 465 889 q 294 871 336 889 q 229 818 253 853 q 206 732 206 783 q 226 653 206 689 q 297 589 247 617 q 435 542 347 561 q 576 494 517 522 q 674 428 635 465 q 733 344 714 390 q 751 242 751 297 q 707 92 751 153 q 587 2 663 32 q 418 -28 511 -28 q 219 15 307 -28 q 67 140 132 57 l 147 221 z "},".":{"ha":364,"x_min":101,"x_max":264,"o":"m 182 -28 q 124 -5 146 -28 q 101 50 101 18 q 124 103 101 82 q 182 125 146 125 q 240 103 217 125 q 264 50 264 82 q 240 -5 264 18 q 182 -28 217 -28 z "},",":{"ha":364,"x_min":103,"x_max":261,"o":"m 103 -181 q 174 -102 142 -150 q 215 -17 206 -54 q 165 -26 192 -32 q 121 0 139 -21 q 103 51 103 21 q 126 108 103 85 q 183 131 149 131 q 238 108 215 131 q 261 36 261 85 q 242 -50 261 -6 q 190 -135 224 -94 q 113 -203 157 -175 l 103 -181 z "},":":{"ha":365,"x_min":101,"x_max":265,"o":"m 182 -31 q 124 -8 146 -31 q 101 47 101 15 q 124 101 101 79 q 182 122 146 122 q 240 101 217 122 q 264 47 264 79 q 240 -8 264 15 q 182 -31 217 -31 m 183 503 q 125 526 147 503 q 103 581 103 549 q 125 634 103 613 q 183 656 147 656 q 242 634 218 656 q 265 581 265 613 q 242 526 265 549 q 183 503 218 503 z "},";":{"ha":365,"x_min":103,"x_max":265,"o":"m 103 -181 q 174 -102 142 -150 q 215 -17 206 -54 q 165 -26 192 -32 q 121 0 139 -21 q 103 51 103 21 q 126 108 103 85 q 183 131 149 131 q 238 108 215 131 q 261 36 261 85 q 242 -50 261 -6 q 190 -135 224 -94 q 113 -203 157 -175 l 103 -181 m 183 501 q 125 524 147 501 q 103 579 103 547 q 125 633 103 611 q 183 654 147 654 q 242 633 218 654 q 265 579 265 611 q 242 524 265 547 q 183 501 218 501 z "},"(":{"ha":543,"x_min":97,"x_max":507,"o":"m 507 -299 q 343 -228 418 -287 q 213 -72 268 -169 q 128 155 158 26 q 97 431 97 283 q 147 744 97 607 q 288 967 196 881 q 507 1079 381 1054 l 507 1047 q 358 940 422 1026 q 258 716 293 853 q 222 407 222 579 q 258 85 222 231 q 359 -152 294 -60 q 507 -267 424 -244 l 507 -299 z "},")":{"ha":533,"x_min":35,"x_max":446,"o":"m 35 -267 q 142 -189 90 -249 q 233 -39 193 -129 q 297 165 274 51 q 321 403 321 278 q 297 637 321 528 q 233 832 274 746 q 142 974 193 918 q 35 1047 90 1029 l 35 1079 q 257 965 165 1054 q 397 734 349 876 q 446 404 446 592 q 396 65 446 214 q 254 -178 346 -83 q 35 -299 163 -272 l 35 -267 z "},"!":{"ha":354,"x_min":100,"x_max":254,"o":"m 100 1042 l 254 1042 l 232 346 l 122 346 l 100 1042 m 179 -28 q 126 -7 146 -28 q 106 43 106 14 q 126 92 106 72 q 179 111 146 111 q 232 92 211 111 q 253 43 253 72 q 232 -7 253 14 q 179 -28 211 -28 z "},"|":{"ha":164,"x_min":56,"x_max":108,"o":"m 56 1042 l 108 1042 l 108 -182 l 56 -182 l 56 1042 z "},"{":{"ha":508,"x_min":54,"x_max":464,"o":"m 461 -426 l 446 -467 q 265 -301 315 -396 q 214 -104 214 -207 l 214 229 q 190 313 214 279 q 128 365 165 346 q 54 392 92 385 l 54 415 q 141 451 106 424 q 195 514 176 478 q 214 585 214 550 l 214 836 q 235 969 214 903 q 308 1098 257 1036 q 446 1208 358 1160 l 464 1168 q 385 1103 413 1146 q 349 996 358 1060 q 339 846 339 932 l 339 596 q 328 517 339 551 q 284 454 317 482 q 183 401 251 426 q 286 343 253 375 q 329 274 319 311 q 339 192 339 236 l 339 -119 q 348 -264 339 -203 q 383 -365 357 -325 q 461 -426 410 -406 z "},"}":{"ha":508,"x_min":54,"x_max":464,"o":"m 57 -426 q 135 -365 108 -406 q 171 -264 161 -325 q 181 -119 181 -203 l 181 192 q 190 274 181 236 q 232 343 199 311 q 335 401 265 375 q 234 454 267 426 q 191 517 201 482 q 181 596 181 551 l 181 846 q 170 996 181 932 q 133 1103 160 1060 q 54 1168 106 1146 l 72 1208 q 210 1098 160 1160 q 283 969 261 1036 q 306 836 306 903 l 306 585 q 324 514 306 550 q 377 451 342 478 q 464 415 413 424 l 464 392 q 390 365 426 385 q 329 313 353 346 q 306 229 306 279 l 306 -104 q 254 -301 306 -207 q 72 -467 203 -396 l 57 -426 z "},"-":{"ha":542,"x_min":69,"x_max":472,"o":"m 69 413 l 472 413 l 472 363 l 69 363 l 69 413 z "},"–":{"ha":771,"x_min":69,"x_max":701,"o":"m 69 411 l 701 411 l 701 364 l 69 364 l 69 411 z "},"—":{"ha":1269,"x_min":69,"x_max":1200,"o":"m 69 411 l 1200 411 l 1200 364 l 69 364 l 69 411 z "},"´":{"ha":399,"x_min":125,"x_max":363,"o":"m 224 974 l 363 974 l 222 764 l 125 764 l 224 974 z "},"`":{"ha":413,"x_min":63,"x_max":301,"o":"m 63 974 l 203 974 l 301 764 l 203 764 l 63 974 z "},"˝":{"ha":540,"x_min":49,"x_max":494,"o":"m 368 972 l 494 972 l 356 765 l 285 765 l 368 972 m 132 972 l 258 972 l 119 765 l 49 765 l 132 972 z "},"ˆ":{"ha":481,"x_min":44,"x_max":436,"o":"m 186 974 l 294 974 l 436 764 l 335 764 l 240 921 l 146 764 l 44 764 l 186 974 z "},"ˇ":{"ha":481,"x_min":44,"x_max":436,"o":"m 44 974 l 146 974 l 240 817 l 335 974 l 436 974 l 294 764 l 186 764 l 44 974 z "},"˘":{"ha":467,"x_min":63,"x_max":408,"o":"m 147 974 q 174 876 151 910 q 233 842 196 842 q 296 878 272 842 q 324 974 319 914 l 408 974 q 354 822 400 876 q 235 767 308 767 q 115 822 161 767 q 63 974 69 878 l 147 974 z "},"¸":{"ha":419,"x_min":76,"x_max":368,"o":"m 103 -224 q 143 -234 121 -229 q 189 -239 165 -239 q 253 -222 233 -239 q 274 -169 274 -204 q 253 -117 274 -133 q 196 -100 232 -100 q 169 -101 182 -100 q 142 -106 157 -103 l 218 35 l 297 35 l 235 -75 q 332 -101 296 -75 q 368 -176 368 -128 q 322 -260 368 -231 q 193 -289 276 -289 q 126 -283 153 -289 q 76 -271 99 -276 l 103 -224 z "},"˛":{"ha":290,"x_min":58,"x_max":256,"o":"m 197 -282 q 97 -234 135 -271 q 58 -149 58 -197 q 103 -51 58 -96 q 225 8 149 -7 l 254 4 q 187 -57 211 -18 q 163 -139 163 -96 q 186 -209 163 -181 q 256 -250 210 -237 l 197 -282 z "},"¨":{"ha":565,"x_min":75,"x_max":490,"o":"m 75 868 q 92 913 75 892 q 143 933 110 933 q 192 913 175 933 q 210 868 210 893 q 192 824 210 844 q 143 803 175 803 q 106 813 121 803 q 83 838 90 822 q 75 868 75 853 m 356 868 q 374 913 356 892 q 424 933 392 933 q 474 913 457 933 q 490 868 490 893 q 474 824 490 844 q 424 803 457 803 q 388 813 403 803 q 364 838 372 822 q 356 868 356 853 z "},"˚":{"ha":375,"x_min":44,"x_max":331,"o":"m 188 738 q 82 774 119 738 q 44 871 44 810 q 82 967 44 931 q 188 1003 119 1003 q 293 967 256 1003 q 331 871 331 931 q 293 774 331 810 q 188 738 256 738 m 188 794 q 246 815 224 794 q 268 871 268 835 q 246 926 268 906 q 188 946 224 946 q 130 926 153 946 q 107 871 107 906 q 130 815 107 835 q 188 794 153 794 z "},"¯":{"ha":500,"x_min":29,"x_max":472,"o":"m 29 899 l 472 899 l 472 817 l 29 817 l 29 899 z "},"˙":{"ha":293,"x_min":74,"x_max":219,"o":"m 74 869 q 82 902 74 886 q 107 928 90 918 q 147 939 124 939 q 201 917 183 939 q 219 869 219 896 q 201 820 219 843 q 147 797 183 797 q 107 808 124 797 q 82 836 90 819 q 74 869 74 853 z "},"˜":{"ha":615,"x_min":83,"x_max":528,"o":"m 389 808 q 320 824 347 808 q 269 854 293 839 q 217 869 246 869 q 167 813 172 869 l 83 813 q 99 887 83 856 q 143 935 115 918 q 207 951 171 951 q 275 936 246 951 q 331 906 304 921 q 386 890 357 890 q 427 905 413 890 q 444 950 442 919 l 528 950 q 487 847 528 885 q 389 808 446 808 z "},"/":{"ha":438,"x_min":-56,"x_max":497,"o":"m 461 972 l 497 972 l -19 0 l -56 0 l 461 972 z "},"\\":{"ha":453,"x_min":-49,"x_max":504,"o":"m -12 972 l 504 0 l 468 0 l -49 972 l -12 972 z "},">":{"ha":796,"x_min":69,"x_max":707,"o":"m 69 36 l 640 365 l 69 681 l 69 708 l 707 399 l 707 332 l 69 8 l 69 36 z "},"<":{"ha":756,"x_min":69,"x_max":707,"o":"m 69 399 l 707 708 l 707 681 l 136 365 l 707 36 l 707 8 l 69 332 l 69 399 z "},"¢":{"ha":782,"x_min":82,"x_max":703,"o":"m 385 1014 l 454 1014 l 454 847 l 385 847 l 385 1014 m 386 124 l 453 125 l 453 -43 l 386 -43 l 386 124 m 703 236 q 584 146 660 181 q 408 111 508 111 q 167 210 253 111 q 82 493 82 310 q 167 764 82 667 q 407 861 251 861 q 578 826 506 861 q 694 736 651 792 l 621 663 q 528 738 583 711 q 411 764 472 764 q 257 698 307 764 q 207 493 207 632 q 257 280 207 351 q 408 208 307 208 q 533 235 474 208 q 629 310 592 261 l 703 236 z "},"€":{"ha":1014,"x_min":21,"x_max":967,"o":"m 35 589 l 153 589 q 232 808 171 715 q 387 950 293 900 q 596 1000 481 1000 q 805 960 718 1000 q 960 832 892 919 l 889 761 q 772 851 843 814 q 596 888 701 888 q 442 847 513 888 q 327 739 371 807 q 281 589 283 671 l 725 589 l 717 538 l 26 538 l 35 589 m 29 440 l 700 440 l 692 389 l 279 389 q 310 273 282 328 q 384 175 338 218 q 489 108 431 132 q 611 83 547 83 q 767 118 689 83 q 896 213 846 153 l 967 142 q 869 49 919 88 q 756 -8 819 11 q 604 -28 693 -28 q 390 24 486 -28 q 232 169 294 75 q 151 389 169 263 l 21 389 l 29 440 z "},"∞":{"ha":999,"x_min":38,"x_max":964,"o":"m 456 413 q 403 365 438 392 q 320 317 368 338 q 213 297 272 297 q 130 312 169 297 q 64 362 90 326 q 38 458 38 397 q 60 554 38 508 q 122 628 82 600 q 214 657 161 657 q 356 610 283 657 q 501 507 428 564 q 647 407 575 451 q 783 363 719 363 q 897 399 857 363 q 936 500 936 435 q 892 597 936 564 q 789 629 849 629 q 669 606 726 629 q 546 542 613 582 q 599 590 565 564 q 682 637 633 617 q 789 657 731 657 q 872 642 832 657 q 938 592 911 628 q 964 494 964 557 q 942 399 964 444 q 877 325 919 354 q 776 296 835 296 q 692 313 736 296 q 588 367 647 329 q 439 471 528 406 q 318 554 376 518 q 218 590 260 590 q 105 554 144 590 q 65 453 65 518 q 109 358 65 390 q 213 325 153 325 q 332 349 275 325 q 456 413 389 374 z "},"Δ":{"ha":910,"x_min":44,"x_max":865,"o":"m 176 111 l 743 111 l 790 0 l 129 0 l 176 111 m 360 972 l 475 972 l 178 0 l 44 0 l 360 972 m 435 972 l 550 972 l 865 0 l 732 0 l 435 972 z "},"Ω":{"ha":1097,"x_min":88,"x_max":1024,"o":"m 113 111 l 318 111 q 195 199 247 140 q 115 340 143 258 q 88 517 88 422 q 122 713 88 624 q 219 866 157 801 q 368 965 282 931 q 556 1000 454 1000 q 742 965 657 1000 q 891 867 828 931 q 989 715 954 803 q 1024 522 1024 628 q 995 345 1024 428 q 915 201 967 263 q 792 111 863 140 l 997 111 l 997 0 l 650 0 l 650 111 q 835 280 772 171 q 899 525 899 389 q 854 720 899 639 q 731 845 810 801 q 547 889 653 889 q 371 847 446 889 q 254 723 296 804 q 213 525 213 642 q 273 282 213 393 q 460 111 333 171 l 460 0 l 113 0 l 113 111 z "},"∏":{"ha":1064,"x_min":135,"x_max":929,"o":"m 135 972 l 929 972 l 929 -174 l 804 -174 l 804 861 l 260 861 l 260 -174 l 135 -174 l 135 972 z "},"‹":{"ha":424,"x_min":69,"x_max":382,"o":"m 69 328 l 69 394 l 368 719 l 382 694 l 135 369 l 135 353 l 382 28 l 368 3 l 69 328 z "},"›":{"ha":424,"x_min":42,"x_max":354,"o":"m 42 28 l 289 353 l 289 369 l 42 694 l 56 719 l 354 394 l 354 328 l 56 3 l 42 28 z "},"℮":{"ha":1181,"x_min":79,"x_max":1103,"o":"m 242 268 q 384 136 306 183 q 586 89 463 89 q 749 112 672 89 q 883 174 825 135 l 900 82 q 759 15 838 39 q 590 -8 681 -8 q 322 56 438 -8 q 143 235 207 119 q 79 504 79 350 q 144 774 79 658 q 324 953 208 889 q 590 1017 439 1017 q 857 953 742 1017 q 1038 774 972 889 q 1103 504 1103 658 l 242 504 l 242 268 m 946 601 l 946 739 q 799 872 882 825 q 589 919 715 919 q 388 876 468 919 q 243 750 308 832 l 243 601 l 946 601 z "},"_":{"ha":694,"x_min":0,"x_max":694,"o":"m 0 -37 l 694 -37 l 694 -87 l 0 -87 l 0 -37 z "},"«":{"ha":679,"x_min":44,"x_max":654,"o":"m 44 389 l 353 708 l 372 689 l 110 354 l 371 38 l 351 18 l 44 322 l 44 389 m 326 389 l 635 708 l 654 689 l 392 354 l 653 38 l 633 18 l 326 322 l 326 389 z "},"»":{"ha":686,"x_min":36,"x_max":646,"o":"m 581 354 l 318 689 l 338 708 l 646 389 l 646 322 l 339 18 l 319 38 l 581 354 m 299 354 l 36 689 l 56 708 l 364 389 l 364 322 l 57 18 l 38 38 l 299 354 z "},"’":{"ha":408,"x_min":124,"x_max":282,"o":"m 135 831 q 189 877 165 851 q 227 931 213 903 q 244 985 242 960 q 224 976 235 979 q 201 972 214 972 q 146 996 168 972 q 124 1053 124 1019 q 147 1108 124 1085 q 204 1131 169 1131 q 260 1106 239 1131 q 282 1033 282 1082 q 267 955 282 996 q 224 877 253 914 q 147 814 194 840 l 135 831 z "},"̦":{"ha":0,"x_min":101,"x_max":240,"o":"m 111 -329 q 176 -269 157 -300 q 199 -187 196 -239 q 182 -200 192 -194 q 160 -206 172 -206 q 120 -189 139 -206 q 101 -144 101 -172 q 119 -97 101 -115 q 167 -79 138 -79 q 221 -105 201 -79 q 240 -175 240 -131 q 208 -283 240 -235 q 122 -347 175 -331 l 111 -329 z "},"”":{"ha":685,"x_min":118,"x_max":564,"o":"m 417 831 q 471 877 447 851 q 509 931 494 903 q 526 985 524 960 q 506 976 517 979 q 483 972 496 972 q 428 996 450 972 q 406 1053 406 1019 q 428 1108 406 1085 q 486 1131 451 1131 q 542 1106 521 1131 q 564 1033 564 1082 q 549 955 564 996 q 506 877 535 914 q 429 814 476 840 l 417 831 m 129 831 q 183 877 160 851 q 222 931 207 903 q 239 985 236 960 q 219 976 229 979 q 196 972 208 972 q 140 996 163 972 q 118 1053 118 1019 q 141 1108 118 1085 q 199 1131 164 1131 q 255 1106 233 1131 q 276 1033 276 1082 q 262 955 276 996 q 218 877 247 914 q 142 814 189 840 l 129 831 z "},"“":{"ha":685,"x_min":121,"x_max":567,"o":"m 268 1139 q 214 1093 238 1119 q 176 1039 190 1067 q 158 985 163 1011 q 178 994 168 990 q 201 997 189 997 q 257 974 235 997 q 279 917 279 950 q 257 862 279 885 q 199 839 235 839 q 142 863 164 839 q 121 936 121 888 q 135 1015 121 974 q 180 1093 150 1056 q 256 1156 210 1131 l 268 1139 m 556 1139 q 501 1093 525 1119 q 464 1039 478 1067 q 446 985 450 1011 q 466 994 456 990 q 489 997 476 997 q 544 974 522 997 q 567 917 567 950 q 544 862 567 885 q 486 839 522 839 q 430 863 451 839 q 408 936 408 888 q 423 1015 408 974 q 467 1093 438 1056 q 543 1156 497 1131 l 556 1139 z "},"‘":{"ha":369,"x_min":107,"x_max":265,"o":"m 254 1139 q 200 1093 224 1119 q 163 1039 176 1067 q 144 985 149 1011 q 165 994 154 990 q 188 997 175 997 q 243 974 221 997 q 265 917 265 950 q 243 862 265 885 q 185 839 221 839 q 128 863 150 839 q 107 936 107 888 q 122 1015 107 974 q 166 1093 136 1056 q 242 1156 196 1131 l 254 1139 z "},"„":{"ha":685,"x_min":118,"x_max":564,"o":"m 417 -169 q 471 -123 447 -149 q 509 -69 494 -97 q 526 -15 524 -40 q 506 -24 517 -21 q 483 -28 496 -28 q 428 -4 450 -28 q 406 53 406 19 q 428 108 406 85 q 486 131 451 131 q 542 106 521 131 q 564 33 564 82 q 549 -45 564 -4 q 506 -123 535 -86 q 429 -186 476 -160 l 417 -169 m 129 -169 q 183 -123 160 -149 q 222 -69 207 -97 q 239 -15 236 -40 q 219 -24 229 -21 q 196 -28 208 -28 q 140 -4 163 -28 q 118 53 118 19 q 141 108 118 85 q 199 131 164 131 q 255 106 233 131 q 276 33 276 82 q 262 -45 276 -4 q 218 -123 247 -86 q 142 -186 189 -160 l 129 -169 z "},"‚":{"ha":428,"x_min":135,"x_max":293,"o":"m 146 -169 q 200 -123 176 -149 q 238 -69 224 -97 q 256 -15 253 -40 q 235 -24 246 -21 q 213 -28 225 -28 q 157 -4 179 -28 q 135 53 135 19 q 158 108 135 85 q 215 131 181 131 q 272 106 250 131 q 293 33 293 82 q 278 -45 293 -4 q 235 -123 264 -86 q 158 -186 206 -160 l 146 -169 z "},"=":{"ha":714,"x_min":69,"x_max":644,"o":"m 69 240 l 644 240 l 644 190 l 69 190 l 69 240 m 69 546 l 644 546 l 644 496 l 69 496 l 69 546 z "},"≠":{"ha":726,"x_min":76,"x_max":651,"o":"m 253 194 l 76 194 l 76 222 l 265 222 l 407 514 l 76 514 l 76 542 l 421 542 l 472 647 l 539 647 l 488 542 l 651 542 l 651 514 l 474 514 l 332 222 l 651 222 l 651 194 l 319 194 l 254 61 l 188 61 l 253 194 z "},"¦":{"ha":194,"x_min":71,"x_max":124,"o":"m 71 1043 l 124 1043 l 124 474 l 71 474 l 71 1043 m 71 215 l 124 215 l 124 -353 l 71 -353 l 71 215 z "},"[":{"ha":583,"x_min":135,"x_max":496,"o":"m 135 1081 l 496 1081 l 496 1004 l 253 1004 l 253 -225 l 496 -225 l 496 -301 l 135 -301 l 135 1081 z "},"]":{"ha":581,"x_min":76,"x_max":453,"o":"m 76 -225 l 335 -225 l 335 1004 l 76 1004 l 76 1081 l 453 1081 l 453 -301 l 76 -301 l 76 -225 z "},"−":{"ha":786,"x_min":69,"x_max":717,"o":"m 69 496 l 717 496 l 717 449 l 69 449 l 69 496 z "},"‡":{"ha":1003,"x_min":69,"x_max":903,"o":"m 69 92 l 444 72 l 469 329 l 444 586 l 69 567 l 69 643 l 442 624 l 429 967 l 549 967 l 538 624 l 903 643 l 903 567 l 535 586 l 510 329 l 535 72 l 903 92 l 903 15 l 538 35 l 549 -308 l 429 -308 l 442 35 l 69 15 l 69 92 z "},"×":{"ha":628,"x_min":56,"x_max":571,"o":"m 536 153 l 314 376 l 90 153 l 56 188 l 279 411 l 56 635 l 90 669 l 314 446 l 536 669 l 571 635 l 347 411 l 571 188 l 536 153 z "},"†":{"ha":974,"x_min":69,"x_max":903,"o":"m 440 585 l 69 567 l 69 643 l 438 624 l 431 967 l 547 967 l 540 625 l 903 643 l 903 567 l 538 585 l 506 -144 l 472 -144 l 440 585 z "},"+":{"ha":786,"x_min":69,"x_max":717,"o":"m 69 414 l 361 414 l 361 701 l 411 701 l 411 414 l 717 414 l 717 364 l 411 364 l 411 76 l 361 76 l 361 364 l 69 364 l 69 414 z "},"ƒ":{"ha":740,"x_min":-111,"x_max":728,"o":"m -90 111 q 10 83 -24 92 q 67 75 44 75 q 136 98 104 75 q 192 172 168 121 q 228 307 215 224 q 242 513 242 390 q 253 701 242 619 q 287 839 264 782 q 346 931 310 896 q 432 983 382 967 q 547 1000 482 1000 q 631 992 592 1000 q 728 967 671 985 l 706 860 q 619 890 654 879 q 549 900 585 900 q 453 865 494 900 q 390 740 413 831 q 367 482 367 650 q 356 289 367 372 q 322 145 344 206 q 265 47 300 85 q 182 -10 231 8 q 71 -28 133 -28 q -14 -19 25 -28 q -111 8 -53 -10 l -90 111 m 40 653 l 660 653 l 660 556 l 40 556 l 40 653 z "},"∫":{"ha":628,"x_min":-132,"x_max":760,"o":"m -99 -14 q 16 -85 -37 -69 q 104 -101 69 -101 q 178 -84 150 -101 q 219 -28 206 -67 q 235 75 233 11 l 253 731 q 322 968 257 894 q 519 1042 388 1042 q 655 1024 589 1042 q 760 971 721 1006 l 726 858 q 649 907 688 892 q 577 926 610 922 q 526 931 544 931 q 415 885 450 931 q 378 732 381 839 l 360 99 q 299 -138 356 -64 q 108 -212 242 -212 q -24 -193 36 -212 q -132 -142 -83 -174 l -99 -14 z "},"'":{"ha":283,"x_min":81,"x_max":203,"o":"m 81 1115 l 203 1115 l 182 786 l 101 786 l 81 1115 z "},"\"":{"ha":568,"x_min":83,"x_max":485,"o":"m 83 1115 l 206 1115 l 185 794 l 104 794 l 83 1115 m 363 1115 l 485 1115 l 464 794 l 383 794 l 363 1115 z "},"¬":{"ha":768,"x_min":69,"x_max":671,"o":"m 69 447 l 671 447 l 671 129 l 604 129 l 604 406 l 69 406 l 69 447 z "},"π":{"ha":896,"x_min":68,"x_max":814,"o":"m 174 597 l 68 597 l 68 694 l 814 694 l 814 597 l 707 597 l 706 203 q 715 140 706 163 q 748 107 725 117 q 810 97 771 97 l 810 0 q 678 20 729 0 q 604 85 628 40 q 581 203 581 129 l 581 597 l 299 597 l 299 0 l 174 0 l 174 597 z "},"?":{"ha":765,"x_min":35,"x_max":703,"o":"m 265 479 q 507 628 436 556 q 578 788 578 701 q 522 915 578 875 q 379 954 465 954 q 239 919 303 954 q 114 818 175 883 l 35 897 q 189 1021 97 976 q 389 1065 281 1065 q 553 1032 483 1065 q 663 941 624 999 q 703 807 703 883 q 674 684 703 740 q 597 583 644 628 q 495 508 550 539 q 390 461 440 478 l 390 347 l 265 347 l 265 479 m 336 -28 q 284 -7 304 -28 q 264 44 264 14 q 284 94 264 74 q 336 114 304 114 q 388 94 367 114 q 410 44 410 74 q 388 -7 410 14 q 336 -28 367 -28 z "},"§":{"ha":819,"x_min":67,"x_max":765,"o":"m 604 58 l 540 157 q 613 209 586 176 q 640 288 640 242 q 617 371 640 336 q 543 431 593 406 q 414 471 493 456 q 276 512 336 486 q 176 573 217 538 q 115 653 136 608 q 94 753 94 699 q 176 934 94 868 q 393 1000 258 1000 q 579 958 496 1000 q 725 832 663 915 l 644 751 q 524 853 586 818 q 390 888 463 888 q 302 871 340 888 q 242 823 264 854 q 219 744 219 792 q 240 672 219 706 q 311 613 261 639 q 450 568 361 586 q 590 525 531 551 q 689 463 650 499 q 747 383 728 428 q 765 282 765 338 q 722 147 765 203 q 604 58 678 90 m 419 -306 q 228 -263 313 -306 q 79 -137 143 -221 l 160 -57 q 283 -158 219 -124 q 422 -193 347 -193 q 513 -176 474 -193 q 576 -128 553 -160 q 599 -50 599 -96 q 578 23 599 -10 q 509 82 558 56 q 374 126 460 108 q 238 169 296 143 q 142 231 179 196 q 85 312 104 267 q 67 413 67 357 q 103 548 67 492 q 200 636 139 604 l 264 538 q 211 485 231 518 q 192 407 192 453 q 215 324 192 360 q 288 264 239 289 q 413 224 336 239 q 547 183 489 208 q 644 122 604 157 q 703 41 683 86 q 724 -58 724 -4 q 640 -239 724 -172 q 419 -306 557 -306 z "},"#":{"ha":1153,"x_min":53,"x_max":1100,"o":"m 250 292 l 53 292 l 53 347 l 261 347 l 317 618 l 117 618 l 117 674 l 329 674 l 389 972 l 517 972 l 456 674 l 772 674 l 833 972 l 961 972 l 900 674 l 1100 674 l 1100 618 l 889 618 l 833 347 l 1035 347 l 1035 292 l 822 292 l 763 0 l 635 0 l 694 292 l 378 292 l 318 0 l 190 0 l 250 292 m 706 347 l 761 618 l 444 618 l 389 347 l 706 347 z "},"*":{"ha":768,"x_min":108,"x_max":656,"o":"m 108 546 l 360 675 l 108 806 l 140 863 l 369 701 l 351 972 l 417 972 l 397 701 l 624 861 l 656 804 l 407 675 l 656 547 l 625 490 l 397 650 l 417 378 l 351 378 l 369 650 l 140 488 l 108 546 z "},"©":{"ha":1135,"x_min":61,"x_max":1074,"o":"m 61 494 q 104 693 61 607 q 220 837 147 779 q 384 924 293 894 q 571 954 475 954 q 757 924 667 954 q 919 836 847 894 q 1032 692 990 778 q 1074 494 1074 607 q 1031 292 1074 381 q 915 142 988 204 q 753 49 843 81 q 571 17 664 17 q 388 49 478 17 q 224 142 297 81 q 106 292 150 203 q 61 494 61 381 m 144 497 q 178 339 144 411 q 270 213 211 267 q 406 128 329 158 q 571 99 483 99 q 731 127 656 99 q 865 208 807 156 q 957 331 924 260 q 990 492 990 403 q 935 689 990 603 q 785 824 881 775 q 567 872 690 872 q 349 823 444 872 q 199 689 253 774 q 144 497 144 604 m 776 307 q 692 243 746 268 q 565 218 638 218 q 392 289 454 218 q 331 492 331 360 q 391 687 331 617 q 564 757 451 757 q 688 731 635 757 q 771 667 740 706 l 718 614 q 651 667 690 649 q 567 686 611 686 q 456 639 492 686 q 421 492 421 592 q 565 288 421 288 q 654 306 611 288 q 724 360 697 325 l 776 307 z "},"®":{"ha":1135,"x_min":61,"x_max":1074,"o":"m 61 494 q 104 693 61 607 q 220 837 147 779 q 384 924 293 894 q 571 954 475 954 q 757 924 667 954 q 919 836 847 894 q 1032 692 990 778 q 1074 494 1074 607 q 1031 292 1074 381 q 915 142 988 204 q 753 49 843 81 q 571 17 664 17 q 388 49 478 17 q 224 142 297 81 q 106 292 150 203 q 61 494 61 381 m 144 497 q 178 339 144 411 q 270 213 211 267 q 406 128 329 158 q 571 99 483 99 q 731 127 656 99 q 865 208 807 156 q 957 331 924 260 q 990 492 990 403 q 935 689 990 603 q 785 824 881 775 q 567 872 690 872 q 349 823 444 872 q 199 689 253 774 q 144 497 144 604 m 388 753 l 590 753 q 737 708 683 753 q 790 585 790 664 q 735 460 790 506 q 586 414 681 414 l 397 414 l 397 490 l 575 490 q 673 511 644 490 q 701 583 701 532 q 675 656 701 635 q 583 676 649 676 l 476 676 l 476 208 l 388 208 l 388 753 m 603 426 l 664 467 l 806 208 l 722 208 l 603 426 z "},"ª":{"ha":763,"x_min":115,"x_max":654,"o":"m 340 444 q 220 479 271 444 q 142 576 169 514 q 115 724 115 639 q 142 870 115 808 q 219 966 169 932 q 339 1000 269 1000 q 460 966 410 1000 q 539 869 511 932 q 567 722 567 807 q 539 575 567 638 q 460 478 511 513 q 340 444 410 444 m 383 542 q 501 592 461 542 q 540 729 540 643 q 499 865 540 819 q 383 910 457 910 q 269 863 307 910 q 231 728 231 817 q 270 590 231 638 q 383 542 310 542 m 540 465 l 540 975 l 654 975 l 654 465 l 540 465 z "},"º":{"ha":717,"x_min":114,"x_max":604,"o":"m 360 440 q 178 516 242 440 q 114 726 114 592 q 142 864 114 801 q 226 963 171 926 q 360 1000 281 1000 q 493 963 439 1000 q 576 864 547 926 q 604 726 604 801 q 542 516 604 592 q 360 440 479 440 m 356 524 q 460 571 417 524 q 503 728 503 618 q 460 876 503 836 q 357 917 418 917 q 258 872 300 917 q 215 732 215 828 q 235 610 215 656 q 286 544 254 564 q 356 524 318 524 z "},"¶":{"ha":819,"x_min":69,"x_max":728,"o":"m 469 392 l 428 392 q 211 435 289 392 q 101 553 133 478 q 69 726 69 629 q 156 958 69 872 q 428 1043 242 1043 l 728 1043 l 728 -183 l 661 -183 l 661 1015 l 536 1015 l 536 -183 l 469 -183 l 469 392 z "},"·":{"ha":375,"x_min":101,"x_max":274,"o":"m 188 475 q 125 501 149 475 q 101 561 101 526 q 125 621 101 597 q 188 644 149 644 q 249 621 225 644 q 274 561 274 597 q 249 501 274 526 q 188 475 225 475 z "},"∂":{"ha":1014,"x_min":53,"x_max":924,"o":"m 194 890 q 301 955 242 931 q 421 990 360 979 q 535 1000 482 1000 q 819 893 714 1000 q 924 590 924 786 q 882 356 924 467 q 767 158 840 244 q 597 22 693 71 q 389 -28 500 -28 q 214 13 290 -28 q 95 124 138 53 q 53 286 53 194 q 108 475 53 393 q 256 603 164 557 q 458 649 349 649 q 600 626 536 649 q 709 567 664 604 q 774 482 754 529 q 781 386 793 435 l 760 372 l 731 354 q 773 422 757 386 q 797 499 789 458 q 804 581 804 539 q 765 753 804 686 q 660 854 725 821 q 519 888 596 888 q 388 867 456 888 q 275 810 321 846 l 194 890 m 178 304 q 209 190 178 239 q 295 114 240 140 q 418 88 350 88 q 524 104 471 88 q 619 153 576 121 q 689 231 663 185 q 715 338 715 278 q 684 449 715 401 q 596 522 653 496 q 463 549 539 549 q 311 516 375 549 q 213 428 247 483 q 178 304 178 372 z "},"£":{"ha":881,"x_min":43,"x_max":828,"o":"m 43 490 l 179 490 q 129 595 151 540 q 107 715 107 650 q 148 864 107 800 q 263 964 189 928 q 432 1000 336 1000 q 617 958 532 1000 q 771 832 703 917 l 690 751 q 560 856 622 824 q 428 888 499 888 q 287 843 343 888 q 231 708 231 799 q 256 594 231 646 q 308 490 281 542 l 674 490 l 674 421 l 340 421 q 356 369 350 396 q 361 311 361 342 q 341 215 361 251 q 306 156 321 179 q 371 144 346 156 q 415 118 396 133 q 453 87 433 103 q 499 60 472 71 q 568 49 525 49 q 714 92 650 49 q 800 200 778 135 l 828 144 q 733 13 801 61 q 565 -36 664 -36 q 467 -20 504 -36 q 401 17 429 -4 q 343 53 374 38 q 265 69 313 69 q 177 44 219 69 q 69 -61 135 18 l 85 50 q 169 110 131 78 q 230 183 207 142 q 253 279 253 224 q 242 353 253 318 q 215 421 231 388 l 43 421 l 43 490 z "},"~":{"ha":689,"x_min":36,"x_max":646,"o":"m 36 338 q 121 457 64 419 q 238 494 178 494 q 307 480 276 494 q 372 439 338 465 q 440 397 411 408 q 507 385 469 385 q 581 400 547 385 q 632 457 614 415 l 646 457 q 575 343 621 372 q 472 314 529 314 q 399 328 429 314 q 333 369 369 342 q 265 414 292 401 q 207 426 239 426 q 115 404 160 426 q 50 338 69 382 l 36 338 z "},"≈":{"ha":753,"x_min":42,"x_max":654,"o":"m 44 231 q 129 350 72 313 q 246 388 186 388 q 315 373 285 388 q 381 332 346 358 q 449 290 419 301 q 515 278 478 278 q 589 293 556 278 q 640 350 622 308 l 654 350 q 583 236 629 265 q 481 207 538 207 q 408 221 438 207 q 342 263 378 235 q 274 307 300 294 q 215 319 247 319 q 123 297 168 319 q 58 231 78 275 l 44 231 m 42 449 q 126 568 69 531 q 243 606 183 606 q 313 591 282 606 q 378 550 343 576 q 446 508 417 519 q 513 496 475 496 q 586 511 553 496 q 638 568 619 526 l 651 568 q 581 454 626 483 q 478 425 535 425 q 405 439 435 425 q 339 481 375 453 q 271 525 297 513 q 213 538 244 538 q 120 515 165 538 q 56 449 75 493 l 42 449 z "},"@":{"ha":1229,"x_min":61,"x_max":1168,"o":"m 742 -204 q 667 -216 706 -211 q 588 -221 629 -221 q 313 -153 432 -221 q 128 40 194 -86 q 61 339 61 165 q 134 651 61 522 q 334 849 207 781 q 622 918 461 918 q 906 851 783 918 q 1099 667 1029 785 q 1168 392 1168 549 q 1141 209 1168 290 q 1060 80 1114 128 q 922 32 1006 32 q 803 76 843 32 q 768 192 764 119 q 734 111 754 149 q 679 51 714 74 q 586 29 644 29 q 463 60 519 29 q 373 154 407 92 q 339 307 339 217 q 375 472 339 396 q 485 593 411 547 q 671 639 558 639 q 777 626 728 639 q 874 586 826 613 l 847 226 l 847 208 q 863 140 847 167 q 922 114 879 114 q 1035 181 985 114 q 1085 389 1085 247 q 1022 638 1085 535 q 854 794 960 740 q 621 849 749 849 q 440 817 525 849 q 288 723 354 786 q 183 565 221 660 q 144 343 144 471 q 203 73 144 183 q 364 -94 263 -37 q 589 -151 465 -151 q 669 -146 629 -151 q 742 -135 708 -140 l 742 -204 m 769 515 q 715 543 747 533 q 649 553 682 553 q 501 480 551 553 q 450 290 450 407 q 481 156 450 201 q 575 111 513 111 q 672 148 636 111 q 727 241 708 185 q 753 360 746 297 q 765 474 761 422 q 767 495 767 485 q 769 515 768 506 z "},"&":{"ha":922,"x_min":65,"x_max":892,"o":"m 397 -28 q 223 6 297 -28 q 107 100 149 40 q 65 240 65 160 q 94 362 65 308 q 169 454 122 415 q 271 517 215 493 q 174 630 214 571 q 135 769 135 689 q 167 892 135 840 q 260 972 200 944 q 403 1000 321 1000 q 597 939 526 1000 q 668 776 668 878 q 639 667 668 714 q 548 580 610 621 q 389 493 486 539 l 404 522 l 869 0 l 715 0 l 318 451 q 224 374 257 425 q 190 267 190 324 q 220 168 190 210 q 299 105 250 126 q 404 83 349 83 q 553 119 478 83 q 698 217 629 154 q 818 360 767 279 l 892 286 q 785 151 842 210 q 668 52 729 92 q 540 -8 607 13 q 397 -28 472 -28 m 313 549 q 416 603 363 575 q 506 671 469 632 q 543 765 543 710 q 504 854 543 819 q 400 889 465 889 q 298 854 336 889 q 260 754 260 819 q 285 660 260 704 q 368 568 311 617 l 313 549 z "},"°":{"ha":671,"x_min":93,"x_max":581,"o":"m 93 772 q 126 890 93 839 q 215 969 158 940 q 344 999 272 999 q 516 937 451 999 q 581 772 581 875 q 551 652 581 704 q 467 571 521 600 q 343 542 414 542 q 215 572 272 542 q 126 653 158 601 q 93 772 93 706 m 338 613 q 437 649 399 613 q 475 769 475 686 q 440 887 475 846 q 339 928 406 928 q 237 888 274 928 q 200 769 200 847 q 236 653 200 693 q 338 613 272 613 z "},"^":{"ha":715,"x_min":69,"x_max":646,"o":"m 293 1082 l 421 1082 l 646 721 l 579 721 l 357 1026 l 136 722 l 69 722 l 293 1082 z "},"•":{"ha":654,"x_min":208,"x_max":443,"o":"m 325 325 q 267 340 293 325 q 224 383 240 356 q 208 442 208 410 q 224 501 208 475 q 267 544 240 528 q 325 560 293 560 q 385 544 358 560 q 427 501 411 528 q 443 442 443 475 q 427 383 443 410 q 385 340 411 356 q 325 325 358 325 z "},"∑":{"ha":919,"x_min":56,"x_max":849,"o":"m 56 -104 l 503 399 l 56 903 l 56 972 l 849 972 l 849 861 l 250 861 l 664 399 l 250 -62 l 849 -62 l 849 -174 l 56 -174 l 56 -104 z "},"√":{"ha":917,"x_min":15,"x_max":960,"o":"m 181 294 l 15 294 l 15 392 l 276 392 l 440 -83 l 828 1111 l 960 1111 l 543 -172 l 350 -172 l 181 294 z "},"⁄":{"ha":244,"x_min":-153,"x_max":397,"o":"m 342 972 l 397 972 l -97 0 l -153 0 l 342 972 z "},"ﬁ":{"ha":951,"x_min":31,"x_max":836,"o":"m 179 597 l 31 597 l 31 694 l 179 694 l 179 844 q 228 995 179 949 q 363 1042 276 1042 q 423 1035 392 1042 q 508 1011 454 1029 l 488 928 q 430 940 463 936 q 375 944 397 944 q 323 927 342 944 q 304 846 304 910 l 304 694 l 744 694 l 744 597 l 304 597 l 304 0 l 179 0 l 179 597 m 700 694 l 825 694 l 825 0 l 700 0 l 700 694 m 690 897 q 699 930 690 914 q 724 956 707 946 q 764 967 740 967 q 818 945 800 967 q 836 897 836 924 q 818 848 836 871 q 764 825 800 825 q 724 836 740 825 q 699 864 707 847 q 690 897 690 881 z "},"n":{"ha":842,"x_min":117,"x_max":738,"o":"m 613 408 q 581 576 613 526 q 472 625 550 625 q 300 536 358 625 q 242 301 242 447 l 228 381 l 225 475 q 281 606 242 551 q 376 692 319 661 q 500 722 432 722 q 679 647 621 722 q 738 422 738 572 l 738 0 l 613 0 l 613 408 m 117 694 l 242 694 l 242 0 l 117 0 l 117 694 z "},"Ə":{"ha":1054,"x_min":74,"x_max":981,"o":"m 531 -28 q 292 36 396 -28 q 131 213 189 100 q 74 468 74 325 q 76 516 74 494 q 79 553 78 538 l 872 553 l 874 442 l 200 442 q 250 252 207 332 q 366 128 293 172 q 535 85 439 85 q 707 133 635 85 q 818 272 779 181 q 857 492 857 363 q 771 786 857 683 q 525 889 685 889 q 365 858 432 889 q 229 751 299 826 l 149 832 q 308 957 214 914 q 529 1000 403 1000 q 767 939 665 1000 q 924 764 868 878 q 981 493 981 650 q 924 219 981 336 q 767 37 868 101 q 531 -28 667 -28 z "},"ə":{"ha":782,"x_min":56,"x_max":728,"o":"m 394 -28 q 217 18 293 -28 q 98 147 140 64 q 56 342 56 231 q 57 370 56 358 q 60 397 58 382 l 601 397 q 576 512 599 460 q 508 594 553 564 q 392 625 463 625 q 271 599 329 625 q 169 526 213 572 l 99 597 q 218 688 143 653 q 390 722 293 722 q 639 625 550 722 q 728 356 728 528 q 688 153 728 240 q 572 19 647 67 q 394 -28 497 -28 m 392 69 q 543 132 489 69 q 601 311 597 194 l 182 311 q 238 133 182 197 q 392 69 293 69 z "},"¥":{"ha":919,"x_min":53,"x_max":867,"o":"m 181 208 l 740 208 l 740 163 l 181 163 l 181 208 m 181 390 l 740 390 l 740 344 l 181 344 l 181 390 m 390 411 l 53 972 l 215 972 l 460 549 l 704 972 l 867 972 l 529 411 l 529 0 l 390 0 l 390 411 z "},"₤":{"ha":925,"x_min":53,"x_max":885,"o":"m 58 583 l 694 583 l 694 514 l 58 514 l 58 583 m 58 400 l 694 400 l 694 331 l 58 331 l 58 400 m 53 56 q 170 151 126 85 q 214 289 214 217 l 214 658 q 255 842 214 765 q 372 959 296 918 q 550 1000 447 1000 q 735 959 651 1000 q 885 832 819 918 l 804 751 q 673 855 740 821 q 539 889 606 889 q 424 856 468 889 q 359 772 379 822 q 339 671 339 722 l 339 338 q 331 242 339 288 q 299 162 322 196 q 231 111 276 128 l 879 111 l 879 0 l 53 0 l 53 56 z "},"₳":{"ha":997,"x_min":18,"x_max":979,"o":"m 18 265 l 979 265 l 979 206 l 18 206 l 18 265 m 18 458 l 979 458 l 979 399 l 18 399 l 18 458 m 222 0 l 89 0 l 404 972 l 519 972 l 222 0 m 910 0 l 776 0 l 479 972 l 594 972 l 910 0 z "},"₴":{"ha":1019,"x_min":57,"x_max":963,"o":"m 57 432 l 963 432 l 963 382 l 386 382 q 324 323 344 357 q 304 244 304 289 q 331 156 304 192 q 402 101 357 119 q 506 83 447 83 q 655 119 588 83 q 783 221 722 154 l 864 140 q 711 15 799 57 q 513 -28 624 -28 q 344 2 419 -28 q 224 92 268 32 q 179 242 179 153 q 189 317 179 282 q 218 382 199 351 l 57 382 l 57 432 m 57 593 l 640 593 q 706 656 686 621 q 725 732 725 690 q 701 818 725 783 q 636 871 678 853 q 540 889 594 889 q 399 853 465 889 q 272 751 333 818 l 192 832 q 344 958 257 915 q 536 1000 431 1000 q 702 968 632 1000 q 811 876 772 936 q 850 736 850 817 q 840 660 850 696 q 810 593 829 624 l 963 593 l 963 543 l 57 543 l 57 593 z "},"₺":{"ha":889,"x_min":29,"x_max":814,"o":"m 29 600 l 615 778 l 615 732 l 29 556 l 29 600 m 29 438 l 615 615 l 615 569 l 29 393 l 29 438 m 200 972 l 325 972 l 325 111 l 442 111 q 642 178 582 111 q 701 354 701 244 l 814 393 q 776 165 814 251 q 652 39 738 78 q 426 0 567 0 l 200 0 l 200 972 z "},"₼":{"ha":1113,"x_min":85,"x_max":1026,"o":"m 150 0 q 101 146 118 71 q 85 293 85 221 q 144 572 85 451 q 311 759 204 692 q 558 826 418 826 q 801 762 696 826 q 967 582 907 697 q 1026 315 1026 467 q 954 0 1026 157 l 828 0 q 883 146 864 65 q 901 303 901 226 q 859 521 901 428 q 739 665 817 614 q 557 715 661 715 q 374 663 453 715 q 253 518 296 611 q 210 299 210 425 q 228 144 210 224 q 282 0 247 65 l 150 0 m 500 976 l 611 1042 l 611 218 l 500 153 l 500 976 z "},"₽":{"ha":1000,"x_min":76,"x_max":918,"o":"m 229 972 l 564 972 q 752 932 672 972 q 875 817 832 892 q 918 639 918 742 q 877 472 918 542 q 759 365 836 401 q 572 328 682 328 l 76 328 l 76 440 l 572 440 q 738 493 683 440 q 793 649 793 546 q 735 808 793 756 q 565 861 678 861 l 354 861 l 354 0 l 229 0 l 229 972 m 76 197 l 832 197 l 832 142 l 76 142 l 76 197 z "},"Г":{"ha":756,"x_min":117,"x_max":664,"o":"m 117 972 l 664 972 l 664 861 l 242 861 l 242 0 l 117 0 l 117 972 z "},"К":{"ha":931,"x_min":122,"x_max":865,"o":"m 721 0 l 486 442 l 153 442 l 140 554 l 469 554 l 711 972 l 860 972 l 571 510 l 865 0 l 721 0 m 122 0 l 122 972 l 247 972 l 247 0 l 122 0 z "},"Ј":{"ha":750,"x_min":22,"x_max":640,"o":"m 103 250 q 213 124 156 164 q 339 83 271 83 q 470 140 425 83 q 515 299 515 197 l 515 972 l 640 972 l 640 308 q 563 58 640 144 q 346 -28 486 -28 q 166 20 243 -28 q 22 169 89 68 l 103 250 z "},"к":{"ha":813,"x_min":108,"x_max":757,"o":"m 108 694 l 233 694 l 233 0 l 108 0 l 108 694 m 118 415 l 476 415 l 606 694 l 738 694 l 563 365 l 757 0 l 615 0 l 471 325 l 128 325 l 118 415 z "},"ћ":{"ha":924,"x_min":28,"x_max":793,"o":"m 172 819 l 28 819 l 28 869 l 172 869 l 172 1042 l 297 1042 l 297 869 l 590 869 l 590 819 l 297 819 l 297 489 q 356 599 318 553 q 446 669 394 644 q 558 694 497 694 q 735 619 678 694 q 793 394 793 544 l 793 0 l 668 0 l 668 379 q 637 546 668 497 q 528 594 606 594 q 356 506 414 594 q 297 274 297 418 l 297 0 l 172 0 l 172 819 z "},"П":{"ha":944,"x_min":121,"x_max":824,"o":"m 121 972 l 824 972 l 824 0 l 699 0 l 699 861 l 246 861 l 246 0 l 121 0 l 121 972 z "},"ђ":{"ha":924,"x_min":28,"x_max":793,"o":"m 172 1042 l 297 1042 l 297 0 l 172 0 l 172 1042 m 288 353 l 286 447 q 341 578 303 524 q 435 664 379 633 q 558 694 492 694 q 735 619 678 694 q 793 394 793 544 l 793 0 l 668 0 l 668 379 q 637 546 668 497 q 528 594 606 594 q 356 506 414 594 q 297 274 297 418 l 288 353 m 28 869 l 572 869 l 572 819 l 28 819 l 28 869 m 492 -189 q 548 -203 518 -199 q 596 -208 578 -208 q 655 -181 642 -208 q 668 -81 668 -153 l 668 333 l 793 333 l 793 -94 q 748 -256 793 -204 q 617 -307 703 -307 q 554 -303 578 -307 q 510 -292 531 -299 q 461 -275 490 -285 l 492 -189 z "},"Ю":{"ha":1514,"x_min":135,"x_max":1426,"o":"m 961 -28 q 722 31 826 -28 q 557 205 617 90 q 497 486 497 319 q 556 765 497 650 q 719 940 614 879 q 963 1000 824 1000 q 1211 937 1107 1000 q 1371 758 1315 874 q 1426 486 1426 643 q 1367 203 1426 318 q 1202 31 1307 89 q 961 -28 1097 -28 m 135 0 l 135 972 l 260 972 l 260 0 l 135 0 m 239 460 l 239 571 l 531 571 l 531 460 l 239 460 m 965 83 q 1143 132 1069 83 q 1256 271 1217 181 q 1296 486 1296 361 q 1211 788 1296 688 q 957 889 1126 889 q 714 782 800 889 q 628 486 628 675 q 715 185 628 286 q 965 83 803 83 z "},"Ы":{"ha":1243,"x_min":121,"x_max":1093,"o":"m 121 972 l 246 972 l 246 610 l 458 610 q 630 574 557 610 q 743 469 703 538 q 783 307 783 401 q 744 145 783 214 q 633 38 704 76 q 463 0 561 0 l 121 0 l 121 972 m 458 111 q 574 134 531 111 q 638 201 618 157 q 658 306 658 244 q 612 448 658 397 q 458 499 565 499 l 246 499 l 246 111 l 458 111 m 968 972 l 1093 972 l 1093 0 l 968 0 l 968 972 z "},"Ъ":{"ha":1021,"x_min":57,"x_max":939,"o":"m 276 0 l 276 972 l 401 972 l 401 610 l 614 610 q 785 574 713 610 q 899 469 858 538 q 939 307 939 401 q 899 145 939 214 q 788 38 860 76 q 618 0 717 0 l 276 0 m 401 111 l 614 111 q 730 134 686 111 q 794 201 774 157 q 814 306 814 244 q 767 448 814 397 q 614 499 721 499 l 401 499 l 401 111 m 57 861 l 57 972 l 343 972 l 343 964 l 297 861 l 57 861 z "},"Ш":{"ha":1347,"x_min":135,"x_max":1213,"o":"m 135 972 l 260 972 l 260 111 l 611 111 l 611 972 l 736 972 l 736 111 l 1088 111 l 1088 972 l 1213 972 l 1213 0 l 135 0 l 135 972 z "},"Э":{"ha":964,"x_min":74,"x_max":885,"o":"m 424 -28 q 237 13 322 -28 q 74 142 151 54 l 154 222 q 276 118 208 153 q 422 83 344 83 q 597 136 522 83 q 713 285 671 189 q 754 508 754 381 q 669 790 754 692 q 439 889 585 889 q 288 856 357 889 q 154 751 218 822 l 74 832 q 231 959 142 918 q 433 1000 319 1000 q 677 940 576 1000 q 831 768 778 879 q 885 507 885 657 q 851 289 885 388 q 757 119 818 190 q 611 10 696 49 q 424 -28 526 -28 m 306 444 l 306 556 l 771 556 l 771 444 l 306 444 z "},"Є":{"ha":964,"x_min":74,"x_max":885,"o":"m 535 -28 q 347 10 432 -28 q 201 119 263 49 q 107 289 140 190 q 74 507 74 388 q 127 768 74 657 q 281 940 181 879 q 525 1000 382 1000 q 728 959 639 1000 q 885 832 817 918 l 804 751 q 671 856 740 822 q 519 889 601 889 q 289 790 374 889 q 204 508 204 692 q 246 285 204 381 q 362 136 288 189 q 536 83 436 83 q 682 118 614 83 q 804 222 750 153 l 885 142 q 723 13 808 54 q 535 -28 638 -28 m 653 444 l 188 444 l 188 556 l 653 556 l 653 444 z "},"Б":{"ha":851,"x_min":121,"x_max":783,"o":"m 121 0 l 121 972 l 246 972 l 246 596 l 458 596 q 630 560 557 596 q 743 459 703 525 q 783 300 783 393 q 744 142 783 210 q 633 37 704 74 q 463 0 561 0 l 121 0 m 246 111 l 458 111 q 574 133 531 111 q 638 197 618 156 q 658 299 658 239 q 612 436 658 388 q 458 485 565 485 l 246 485 l 246 111 m 150 860 l 132 965 l 132 972 l 722 972 l 722 860 l 150 860 z "},"г":{"ha":599,"x_min":117,"x_max":533,"o":"m 117 694 l 533 694 l 533 597 l 242 597 l 242 0 l 117 0 l 117 694 z "},"н":{"ha":824,"x_min":111,"x_max":713,"o":"m 111 694 l 236 694 l 236 410 l 588 410 l 588 694 l 713 694 l 713 0 l 588 0 l 588 299 l 236 299 l 236 0 l 111 0 l 111 694 z "},"п":{"ha":858,"x_min":125,"x_max":733,"o":"m 125 694 l 733 694 l 733 0 l 608 0 l 608 583 l 250 583 l 250 0 l 125 0 l 125 694 z "},"и":{"ha":846,"x_min":111,"x_max":735,"o":"m 111 694 l 236 694 l 236 176 l 613 694 l 735 694 l 735 0 l 610 0 l 610 519 l 232 0 l 111 0 l 111 694 z "},"Њ":{"ha":1347,"x_min":122,"x_max":1279,"o":"m 122 972 l 247 972 l 247 590 l 706 590 l 706 972 l 831 972 l 831 0 l 706 0 l 706 479 l 247 479 l 247 0 l 122 0 l 122 972 m 811 111 l 931 111 q 1068 128 1019 111 q 1135 184 1117 146 q 1154 283 1154 222 q 1132 399 1154 357 q 1060 460 1110 442 q 929 479 1011 479 l 736 479 l 715 590 l 950 590 q 1146 551 1074 590 q 1249 445 1218 513 q 1279 290 1279 378 q 1250 140 1279 206 q 1153 38 1221 75 q 968 0 1085 0 l 719 0 l 811 111 z "},"ю":{"ha":1164,"x_min":118,"x_max":1088,"o":"m 740 -28 q 561 17 635 -28 q 449 147 488 61 q 410 354 410 232 q 449 552 410 469 q 561 678 488 635 q 742 722 635 722 q 1000 625 913 722 q 1088 354 1088 528 q 1000 72 1088 171 q 740 -28 913 -28 m 118 0 l 118 694 l 243 694 l 243 0 l 118 0 m 210 306 l 210 403 l 454 403 l 454 306 l 210 306 m 743 69 q 908 139 854 69 q 963 351 963 208 q 908 556 963 488 q 746 625 854 625 q 586 559 638 625 q 535 354 535 493 q 587 141 535 213 q 743 69 639 69 z "},"т":{"ha":729,"x_min":58,"x_max":671,"o":"m 303 597 l 58 597 l 58 694 l 671 694 l 671 597 l 428 597 l 428 0 l 303 0 l 303 597 z "},"Ч":{"ha":936,"x_min":111,"x_max":801,"o":"m 676 972 l 801 972 l 801 0 l 676 0 l 676 972 m 692 539 q 649 431 686 483 q 549 344 613 378 q 393 310 485 310 q 190 384 269 310 q 111 610 111 458 l 111 972 l 236 972 l 236 613 q 283 466 236 511 q 419 421 331 421 q 553 449 496 421 q 644 526 611 478 q 676 636 676 575 l 692 539 z "},"ч":{"ha":799,"x_min":106,"x_max":688,"o":"m 563 357 q 469 261 531 293 q 333 229 407 229 q 166 287 226 229 q 106 472 106 344 l 106 694 l 231 694 l 231 472 q 264 361 231 396 q 364 326 297 326 q 460 348 415 326 q 534 410 506 369 q 563 507 563 451 l 563 694 l 688 694 l 688 0 l 563 0 l 563 357 z "},"э":{"ha":782,"x_min":82,"x_max":703,"o":"m 376 -28 q 201 7 276 -28 q 82 97 125 42 l 156 171 q 253 96 193 122 q 376 69 313 69 q 528 141 478 69 q 578 354 578 213 q 528 559 578 493 q 374 625 478 625 q 257 599 313 625 q 164 524 201 572 l 90 597 q 207 688 133 653 q 378 722 281 722 q 619 625 535 722 q 703 354 703 528 q 617 72 703 171 q 376 -28 532 -28 m 231 306 l 231 396 l 597 396 l 597 306 l 231 306 z "},"є":{"ha":782,"x_min":82,"x_max":703,"o":"m 408 -28 q 167 72 253 -28 q 82 354 82 171 q 167 625 82 528 q 407 722 251 722 q 578 688 506 722 q 694 597 651 653 l 621 524 q 528 599 583 572 q 411 625 472 625 q 257 559 307 625 q 207 354 207 493 q 257 141 207 213 q 408 69 307 69 q 533 96 474 69 q 629 171 592 122 l 703 97 q 584 7 660 42 q 408 -28 508 -28 m 554 306 l 188 306 l 188 396 l 554 396 l 554 306 z "},"ш":{"ha":1193,"x_min":111,"x_max":1082,"o":"m 111 694 l 236 694 l 236 111 l 535 111 l 535 694 l 660 694 l 660 111 l 957 111 l 957 694 l 1082 694 l 1082 0 l 111 0 l 111 694 z "},"Щ":{"ha":1472,"x_min":135,"x_max":1399,"o":"m 1288 -194 q 1286 -83 1288 -126 q 1267 -20 1285 -40 q 1200 0 1250 0 l 135 0 l 135 972 l 260 972 l 260 111 l 613 111 l 613 972 l 738 972 l 738 111 l 1090 111 l 1090 972 l 1215 972 l 1215 111 q 1303 104 1268 111 q 1359 69 1338 97 q 1390 -22 1381 40 q 1399 -194 1399 -83 l 1288 -194 z "},"Ц":{"ha":1028,"x_min":135,"x_max":999,"o":"m 135 974 l 260 974 l 260 111 l 690 111 l 690 974 l 815 974 l 815 111 q 903 104 868 111 q 959 69 938 97 q 990 -22 981 40 q 999 -194 999 -83 l 888 -194 q 886 -83 888 -126 q 867 -20 885 -40 q 800 0 850 0 l 135 0 l 135 974 z "},"щ":{"ha":1311,"x_min":111,"x_max":1250,"o":"m 111 694 l 236 694 l 236 111 l 535 111 l 535 694 l 660 694 l 660 111 l 957 111 l 957 694 l 1082 694 l 1082 110 q 1167 100 1135 110 q 1218 62 1200 90 q 1243 -22 1236 33 q 1250 -167 1250 -76 l 1146 -167 q 1147 -107 1146 -136 q 1144 -53 1149 -78 q 1124 -15 1140 -29 q 1072 0 1108 0 l 111 0 l 111 694 z "},"ц":{"ha":939,"x_min":111,"x_max":889,"o":"m 111 694 l 236 694 l 236 111 l 596 111 l 596 694 l 721 694 l 721 108 q 806 99 774 108 q 857 63 839 90 q 882 -20 875 35 q 889 -167 889 -75 l 783 -167 q 785 -101 783 -131 q 781 -48 786 -71 q 760 -12 776 -25 q 710 0 744 0 l 111 0 l 111 694 z "},"Д":{"ha":1151,"x_min":56,"x_max":1096,"o":"m 56 -194 q 69 -11 56 -75 q 110 78 82 53 q 182 110 139 104 q 226 168 208 139 q 253 240 243 197 q 270 353 264 283 q 278 533 276 422 q 280 706 279 608 q 281 929 281 804 l 281 972 l 913 972 l 913 110 q 1000 101 965 110 q 1056 63 1035 93 q 1087 -28 1078 33 q 1096 -194 1096 -89 l 985 -194 q 983 -83 985 -126 q 965 -20 982 -40 q 897 0 947 0 l 244 0 q 188 -22 204 0 q 169 -86 171 -43 q 167 -194 167 -129 l 56 -194 m 788 111 l 788 861 l 406 861 q 405 669 406 754 q 403 517 404 583 q 397 347 401 413 q 381 238 392 281 q 350 167 369 196 q 301 111 331 139 l 788 111 z "},"Л":{"ha":986,"x_min":13,"x_max":865,"o":"m 42 122 q 85 92 64 101 q 124 83 107 83 q 169 115 151 83 q 199 220 188 146 q 215 422 210 294 q 221 658 219 522 q 222 972 222 794 l 865 972 l 865 0 l 740 0 l 740 861 l 347 861 q 345 601 347 721 q 338 390 343 481 q 316 182 329 264 q 280 54 303 100 q 221 -10 257 8 q 132 -28 185 -28 q 76 -19 101 -28 q 13 13 50 -11 l 42 122 z "},"л":{"ha":819,"x_min":29,"x_max":704,"o":"m 51 74 q 71 71 63 72 q 88 69 79 69 q 148 130 129 69 q 171 327 167 190 q 175 694 175 464 l 704 694 l 704 0 l 579 0 l 579 583 l 300 583 q 292 276 300 396 q 261 91 283 157 q 197 -1 239 25 q 85 -28 154 -28 q 60 -26 75 -28 q 29 -22 44 -24 l 51 74 z "},"Ф":{"ha":1161,"x_min":88,"x_max":1074,"o":"m 518 83 q 298 133 396 83 q 144 274 200 182 q 88 492 88 365 q 143 707 88 618 q 297 844 199 796 q 518 892 394 892 l 518 1003 l 643 1003 l 643 892 q 865 844 768 892 q 1018 707 963 796 q 1074 492 1074 618 q 1017 274 1074 365 q 864 133 961 182 q 643 83 767 83 l 643 -28 l 518 -28 l 518 83 m 643 194 q 808 226 740 194 q 913 324 876 258 q 949 492 949 390 q 911 660 949 596 q 805 752 874 724 q 643 781 736 781 l 643 194 m 518 781 q 293 713 374 781 q 213 496 213 646 q 249 328 213 394 q 355 228 286 261 q 518 194 424 194 l 518 781 z "},"З":{"ha":803,"x_min":49,"x_max":747,"o":"m 129 222 q 242 117 176 150 q 394 83 307 83 q 517 105 467 83 q 595 167 568 126 q 622 263 622 207 q 544 415 622 361 q 335 457 465 468 l 335 554 q 515 610 454 556 q 576 753 576 665 q 536 855 576 821 q 410 889 496 889 q 255 855 324 889 q 129 751 186 821 l 49 832 q 203 958 115 917 q 397 1000 290 1000 q 622 931 542 1000 q 701 742 701 861 q 652 600 701 656 q 481 515 603 544 q 682 437 617 499 q 747 274 747 375 q 701 117 747 185 q 576 10 656 49 q 394 -28 496 -28 q 208 15 293 -28 q 49 142 124 57 l 129 222 z "},"Љ":{"ha":1353,"x_min":13,"x_max":1285,"o":"m 42 122 q 98 94 75 104 q 138 83 121 83 q 181 110 164 83 q 210 202 199 138 q 226 375 221 267 q 235 647 232 483 q 235 798 235 717 q 236 972 236 879 l 838 972 l 838 589 l 963 589 q 1155 554 1085 589 q 1255 456 1225 519 q 1285 307 1285 392 q 1254 151 1285 221 q 1151 41 1224 82 q 954 0 1079 0 l 713 0 l 713 861 l 361 861 q 360 690 361 769 q 357 540 360 610 q 338 262 351 372 q 299 88 325 151 q 232 -1 272 25 q 132 -28 192 -28 q 76 -19 101 -28 q 13 13 50 -11 l 42 122 m 917 111 q 1068 128 1015 111 q 1140 184 1121 144 q 1160 293 1160 224 q 1141 404 1160 364 q 1077 461 1122 444 q 953 478 1032 478 l 838 478 l 838 111 l 917 111 z "},"б":{"ha":808,"x_min":69,"x_max":739,"o":"m 410 -28 q 153 88 238 -28 q 69 458 69 203 q 102 708 69 610 q 213 861 135 807 q 425 933 290 915 q 552 962 481 940 q 678 1032 624 983 l 678 918 q 582 867 646 890 q 436 836 518 844 q 267 785 329 825 q 179 671 206 746 q 153 476 153 596 q 263 612 185 558 q 450 665 342 665 q 660 578 582 665 q 739 324 739 492 q 655 64 739 156 q 410 -28 571 -28 m 408 69 q 562 140 510 69 q 614 329 614 211 q 563 507 614 446 q 411 568 513 568 q 253 507 308 568 q 197 326 197 446 q 252 140 197 210 q 408 69 307 69 z "},"д":{"ha":1014,"x_min":61,"x_max":951,"o":"m 61 -167 q 75 -3 61 -62 q 120 83 89 57 q 204 117 151 110 q 227 158 217 132 q 244 222 238 183 q 253 315 250 261 q 257 442 257 369 l 257 694 l 783 694 l 783 110 q 869 100 836 110 q 919 63 901 90 q 944 -20 938 35 q 951 -167 951 -75 l 844 -167 q 847 -119 844 -147 q 845 -63 849 -90 q 826 -18 842 -36 q 772 0 810 0 l 231 0 q 186 -19 200 0 q 169 -66 172 -37 q 166 -122 165 -94 q 167 -167 167 -150 l 61 -167 m 658 111 l 658 583 l 382 583 q 375 370 382 456 q 353 232 368 285 q 314 151 339 179 q 253 111 289 124 l 658 111 z "},"Ћ":{"ha":1044,"x_min":57,"x_max":914,"o":"m 276 861 l 57 861 l 57 972 l 753 972 l 753 861 l 401 861 l 401 0 l 276 0 l 276 861 m 386 431 q 426 539 393 486 q 517 626 458 592 q 658 660 575 660 q 842 586 771 660 q 914 360 914 513 l 914 0 l 789 0 l 789 357 q 747 503 789 458 q 626 549 706 549 q 509 520 560 549 q 430 443 458 492 q 401 333 401 394 l 386 431 z "},"Ђ":{"ha":1069,"x_min":57,"x_max":974,"o":"m 703 -29 q 660 -25 678 -29 q 623 -14 642 -21 q 574 3 604 -7 l 604 103 q 660 88 629 93 q 711 82 692 82 q 812 140 775 82 q 849 310 849 199 q 801 490 849 429 q 660 550 754 550 q 533 516 586 550 q 451 426 479 482 q 424 307 424 371 l 424 0 l 285 0 l 285 861 l 57 861 l 57 972 l 769 972 l 769 861 l 424 861 l 424 475 q 521 599 449 550 q 690 647 593 647 q 838 608 775 647 q 938 494 901 569 q 974 310 974 418 q 942 133 974 210 q 849 14 910 57 q 703 -29 789 -29 z "},"з":{"ha":688,"x_min":51,"x_max":632,"o":"m 338 -28 q 168 10 238 -28 q 51 114 99 47 l 125 188 q 209 99 160 128 q 331 69 258 69 q 458 103 407 69 q 508 206 508 136 q 482 281 508 251 q 400 322 456 310 q 257 329 344 335 l 257 411 q 424 444 378 418 q 471 526 471 469 q 452 590 471 569 q 405 618 433 611 q 347 625 376 625 q 222 597 271 625 q 136 524 172 568 l 63 597 q 180 688 106 653 q 357 722 254 722 q 499 696 447 722 q 573 628 551 669 q 594 542 594 588 q 547 422 594 464 q 408 379 499 379 q 529 359 479 379 q 606 301 579 339 q 632 207 632 263 q 598 90 632 143 q 499 4 564 36 q 338 -28 433 -28 z "},"м":{"ha":957,"x_min":111,"x_max":846,"o":"m 111 694 l 224 694 l 478 256 l 732 694 l 846 694 l 846 0 l 728 0 l 728 497 l 528 153 l 429 153 l 229 497 l 229 0 l 111 0 l 111 694 z "},"ь":{"ha":717,"x_min":111,"x_max":661,"o":"m 111 694 l 236 694 l 236 97 l 397 97 q 506 133 476 97 q 536 233 536 169 q 512 332 536 296 q 419 368 488 368 l 146 368 l 146 465 l 413 465 q 599 406 536 465 q 661 239 661 346 q 601 65 661 129 q 424 0 540 0 l 111 0 l 111 694 z "},"ы":{"ha":1046,"x_min":111,"x_max":935,"o":"m 111 694 l 236 694 l 236 97 l 392 97 q 501 133 471 97 q 531 233 531 169 q 506 332 531 296 q 414 368 482 368 l 146 368 l 146 465 l 407 465 q 593 406 531 465 q 656 239 656 346 q 595 65 656 129 q 418 0 535 0 l 111 0 l 111 694 m 810 694 l 935 694 l 935 0 l 810 0 l 810 694 z "},"ъ":{"ha":806,"x_min":15,"x_max":750,"o":"m 15 694 l 281 694 l 281 690 l 235 597 l 15 597 l 15 694 m 200 694 l 325 694 l 325 97 l 479 97 q 590 133 556 97 q 625 233 625 169 q 595 332 625 296 q 499 368 565 368 l 235 368 l 235 465 l 494 465 q 682 406 614 465 q 750 239 750 346 q 685 65 750 129 q 506 0 619 0 l 200 0 l 200 694 z "},"в":{"ha":744,"x_min":111,"x_max":689,"o":"m 111 694 l 401 694 q 591 657 535 694 q 647 532 647 619 q 609 424 647 460 q 478 368 571 388 q 638 318 586 363 q 689 188 689 274 q 661 83 689 125 q 575 21 633 42 q 424 0 517 0 l 111 0 l 111 694 m 378 394 q 484 421 446 394 q 522 500 522 447 q 485 574 522 551 q 381 597 449 597 l 236 597 l 236 394 l 378 394 m 404 97 q 524 125 485 97 q 564 207 564 153 q 524 285 564 263 q 403 308 483 308 l 236 308 l 236 97 l 404 97 z "},"я":{"ha":750,"x_min":51,"x_max":639,"o":"m 190 286 q 97 372 131 321 q 64 492 64 424 q 132 642 64 589 q 335 694 200 694 l 639 694 l 639 0 l 514 0 l 514 253 l 304 253 l 190 0 l 51 0 l 190 286 m 514 597 l 357 597 q 229 569 269 597 q 189 478 189 542 q 230 382 189 414 q 357 350 271 350 l 514 350 l 514 597 z "},"Ґ":{"ha":774,"x_min":135,"x_max":718,"o":"m 135 972 l 513 972 q 565 988 546 972 q 593 1038 585 1003 q 601 1131 601 1072 l 718 1131 q 708 1009 718 1060 q 673 925 697 958 q 608 876 649 892 q 508 861 568 861 l 260 861 l 260 0 l 135 0 l 135 972 z "},"ґ":{"ha":708,"x_min":125,"x_max":643,"o":"m 125 694 l 468 694 q 510 717 496 694 q 528 771 524 739 q 532 835 532 803 q 532 886 532 867 l 643 886 q 635 738 643 794 q 607 650 628 681 q 549 608 586 619 q 453 597 511 597 l 250 597 l 250 0 l 125 0 l 125 694 z "},"Џ":{"ha":949,"x_min":135,"x_max":814,"o":"m 135 972 l 260 972 l 260 113 l 689 113 l 689 972 l 814 972 l 814 0 l 529 0 q 535 -219 563 -107 l 422 -219 q 433 -151 431 -192 q 431 -68 435 -110 q 419 0 428 -26 l 135 0 l 135 972 z "},"џ":{"ha":840,"x_min":125,"x_max":715,"o":"m 125 694 l 250 694 l 250 99 l 590 99 l 590 694 l 715 694 l 715 0 l 474 0 q 496 -77 493 -42 q 482 -168 499 -112 l 372 -168 q 382 -78 382 -122 q 367 0 382 -35 l 125 0 l 125 694 z "},"τ":{"ha":585,"x_min":58,"x_max":517,"o":"m 58 694 l 517 694 l 517 597 l 58 597 l 58 694 m 433 0 l 390 0 q 248 51 290 0 q 206 213 206 103 l 206 694 l 331 694 l 331 204 q 353 119 331 140 q 433 97 376 97 l 433 0 z "},"γ":{"ha":754,"x_min":49,"x_max":706,"o":"m 314 83 l 319 -18 l 49 694 l 183 694 l 382 117 l 371 113 l 571 694 l 706 694 l 435 -18 l 439 83 l 439 -278 l 314 -278 l 314 83 z "},"Σ":{"ha":792,"x_min":57,"x_max":700,"o":"m 57 67 l 385 486 l 57 906 l 57 972 l 700 972 l 700 861 l 246 861 l 539 486 l 246 111 l 700 111 l 700 0 l 57 0 l 57 67 z "},"΄":{"ha":232,"x_min":32,"x_max":203,"o":"m 88 975 l 203 975 l 119 765 l 32 765 l 88 975 z "},"Ξ":{"ha":824,"x_min":104,"x_max":733,"o":"m 104 972 l 733 972 l 733 861 l 104 861 l 104 972 m 104 111 l 733 111 l 733 0 l 104 0 l 104 111 m 182 538 l 657 538 l 657 432 l 182 432 l 182 538 z "},"ι":{"ha":417,"x_min":106,"x_max":333,"o":"m 290 0 q 148 51 190 0 q 106 213 106 103 l 106 694 l 231 694 l 231 204 q 253 119 231 140 q 333 97 276 97 l 333 0 l 290 0 z "},"Ψ":{"ha":1226,"x_min":111,"x_max":1115,"o":"m 550 972 l 675 972 l 675 0 l 550 0 l 550 972 m 236 974 l 236 606 q 332 428 236 492 q 618 364 428 364 q 899 426 807 364 q 990 606 990 489 l 990 974 l 1115 974 l 1115 618 q 1056 422 1115 504 q 883 297 996 340 q 613 253 771 253 q 343 297 456 253 q 171 422 231 340 q 111 618 111 504 l 111 974 l 236 974 z "},"ʻ":{"ha":333,"x_min":103,"x_max":231,"o":"m 231 1044 q 174 982 199 1021 q 140 914 149 943 q 181 922 160 926 q 216 900 201 917 q 231 860 231 883 q 213 814 231 832 q 165 796 194 796 q 122 815 140 796 q 103 871 103 833 q 118 940 103 904 q 160 1008 133 976 q 222 1063 186 1040 l 231 1044 z "},"υ":{"ha":818,"x_min":119,"x_max":749,"o":"m 244 694 l 244 269 q 290 119 244 168 q 413 69 335 69 q 567 144 511 69 q 624 354 624 218 q 599 531 624 447 q 539 694 575 615 l 668 694 q 727 540 706 626 q 749 357 749 453 q 663 70 749 168 q 419 -28 578 -28 q 200 47 281 -28 q 119 257 119 121 l 119 694 l 244 694 z "},"δ":{"ha":803,"x_min":69,"x_max":733,"o":"m 403 -28 q 222 16 296 -28 q 108 137 147 60 q 69 314 69 214 q 108 489 69 414 q 221 606 146 564 q 403 649 296 649 q 581 608 507 649 q 694 493 654 568 q 733 314 733 418 q 694 133 733 210 q 581 14 654 56 q 403 -28 507 -28 m 397 69 q 558 133 507 69 q 608 303 608 197 q 586 428 608 372 q 517 518 564 485 q 392 551 469 551 q 194 311 194 551 q 244 131 194 192 q 397 69 294 69 m 403 608 q 270 640 326 615 q 183 706 214 664 q 153 803 153 747 q 183 903 153 858 q 268 974 213 947 q 399 1001 324 1001 q 548 969 483 1001 q 658 890 613 936 l 585 817 q 498 881 544 857 q 401 904 451 904 q 313 876 349 904 q 278 792 278 847 q 296 731 278 758 q 366 681 314 704 q 517 633 418 657 l 403 608 z "},"ς":{"ha":794,"x_min":69,"x_max":728,"o":"m 558 -278 q 601 -214 585 -242 q 617 -151 617 -186 q 568 -60 617 -93 q 419 -28 519 -28 q 224 18 301 -28 q 108 148 146 64 q 69 343 69 232 q 159 622 69 521 q 410 722 249 722 q 580 688 507 722 q 696 597 653 653 l 622 524 q 533 597 585 569 q 419 625 481 625 q 258 553 322 625 q 194 340 194 482 q 253 144 194 219 q 450 69 311 69 q 599 42 536 69 q 694 -33 661 15 q 728 -142 728 -81 q 713 -224 728 -189 q 682 -278 699 -260 l 558 -278 z "},"θ":{"ha":842,"x_min":71,"x_max":772,"o":"m 424 -28 q 161 104 251 -28 q 71 483 71 236 q 112 764 71 649 q 232 940 153 879 q 424 1000 311 1000 q 613 940 535 1000 q 731 764 690 879 q 772 483 772 649 q 683 103 772 235 q 424 -28 594 -28 m 424 69 q 596 165 544 69 q 647 481 647 261 q 595 803 647 704 q 424 903 543 903 q 249 803 301 903 q 196 481 196 704 q 251 168 196 267 q 424 69 306 69 m 190 444 l 190 526 l 651 526 l 651 444 l 190 444 z "},"σ":{"ha":874,"x_min":64,"x_max":808,"o":"m 64 340 q 102 531 64 451 q 215 652 140 610 q 394 694 289 694 q 652 601 565 694 q 739 340 739 507 q 651 68 739 164 q 393 -28 564 -28 q 214 15 288 -28 q 102 140 140 58 q 64 340 64 222 m 396 63 q 560 130 507 63 q 614 338 614 197 q 560 537 614 469 q 399 604 507 604 q 240 540 292 604 q 189 340 189 475 q 240 132 189 201 q 396 63 292 63 m 386 694 l 808 694 l 808 597 l 468 597 l 386 694 z "},"χ":{"ha":897,"x_min":94,"x_max":806,"o":"m 806 -304 q 606 -254 686 -304 q 472 -89 525 -204 q 383 219 419 26 q 321 461 356 372 q 237 588 286 550 q 114 625 188 625 l 114 722 q 290 676 219 722 q 408 522 361 629 q 489 236 456 415 q 559 -28 519 69 q 658 -166 599 -125 q 806 -207 717 -207 l 806 -304 m 656 694 l 800 694 l 239 -278 l 94 -278 l 656 694 z "},"λ":{"ha":833,"x_min":63,"x_max":785,"o":"m 347 742 l 388 499 l 196 0 l 63 0 l 347 742 m 785 3 q 713 -22 740 -15 q 658 -28 685 -28 q 592 -16 622 -28 q 534 29 561 -4 q 481 126 507 63 q 431 292 456 189 l 322 728 q 294 835 308 786 q 257 915 279 885 q 196 944 235 944 q 151 940 182 944 q 94 928 119 936 l 74 1011 q 160 1035 128 1029 q 225 1042 192 1042 q 310 1025 274 1042 q 377 956 347 1008 q 433 799 407 904 l 582 203 q 612 117 596 144 q 644 82 628 90 q 676 74 661 74 q 763 94 717 74 l 785 3 z "},"ζ":{"ha":778,"x_min":96,"x_max":682,"o":"m 513 -278 q 555 -214 539 -242 q 571 -151 571 -186 q 528 -60 571 -93 q 406 -28 486 -28 q 253 13 318 -28 q 152 131 188 54 q 117 315 117 208 q 205 601 117 465 q 499 875 293 736 l 96 875 l 96 972 l 656 972 l 656 885 q 453 734 533 803 q 327 602 374 665 q 261 474 281 539 q 242 333 242 408 q 291 139 242 208 q 447 69 340 69 q 569 42 517 69 q 652 -33 622 15 q 682 -142 682 -81 q 667 -224 682 -189 q 636 -278 653 -260 l 513 -278 z "},"ξ":{"ha":722,"x_min":69,"x_max":658,"o":"m 489 -278 q 531 -214 515 -242 q 547 -151 547 -186 q 499 -60 547 -93 q 351 -28 450 -28 q 143 31 217 -28 q 69 196 69 89 q 147 376 69 308 q 360 450 225 444 q 183 515 246 465 q 119 642 119 565 q 135 715 119 679 q 181 781 151 750 q 253 836 211 811 q 350 878 296 861 q 468 906 404 896 l 563 875 q 322 799 399 850 q 244 663 244 747 q 323 533 244 576 q 561 490 401 490 l 561 404 q 283 356 372 404 q 194 208 194 308 q 382 69 194 69 q 530 42 468 69 q 625 -33 592 15 q 658 -142 658 -81 q 644 -224 658 -189 q 613 -278 629 -260 l 489 -278 m 115 875 l 115 972 l 564 972 l 564 875 l 115 875 z "},"ﬀ":{"ha":1119,"x_min":31,"x_max":1065,"o":"m 179 597 l 31 597 l 31 694 l 179 694 l 179 844 q 228 995 179 949 q 363 1042 276 1042 q 423 1035 392 1042 q 508 1011 454 1029 l 488 928 q 430 940 463 936 q 375 944 397 944 q 323 927 342 944 q 304 846 304 910 l 304 694 l 519 694 l 519 597 l 304 597 l 304 0 l 179 0 l 179 597 m 725 597 l 576 597 l 576 694 l 725 694 l 725 844 q 774 995 725 949 q 908 1042 822 1042 q 969 1035 938 1042 q 1054 1011 1000 1029 l 1033 928 q 976 940 1008 936 q 921 944 943 944 q 869 927 888 944 q 850 846 850 910 l 850 694 l 1065 694 l 1065 597 l 850 597 l 850 0 l 725 0 l 725 597 m 290 694 l 747 694 l 747 597 l 290 597 l 290 694 z "},"΅":{"ha":463,"x_min":18,"x_max":447,"o":"m 221 990 l 313 990 l 242 764 l 178 764 l 221 990 m 388 783 q 344 803 360 783 q 329 843 329 824 q 344 882 329 863 q 388 901 360 901 q 432 884 417 901 q 447 843 447 867 q 432 801 447 819 q 388 783 417 783 m 78 783 q 33 803 49 783 q 18 843 18 824 q 33 882 18 863 q 78 901 49 901 q 122 884 107 901 q 136 843 136 867 q 122 801 136 819 q 78 783 107 783 z "},"·":{"ha":364,"x_min":103,"x_max":261,"o":"m 182 501 q 125 525 147 501 q 103 582 103 549 q 125 638 103 615 q 182 660 147 660 q 239 638 217 660 q 261 582 261 615 q 239 525 261 549 q 182 501 217 501 z "},"±":{"ha":733,"x_min":40,"x_max":688,"o":"m 40 47 l 688 47 l 688 0 l 40 0 l 40 47 m 40 358 l 332 358 l 332 646 l 382 646 l 382 358 l 688 358 l 688 308 l 382 308 l 382 21 l 332 21 l 332 308 l 40 308 l 40 358 z "},"¿":{"ha":765,"x_min":35,"x_max":703,"o":"m 472 211 q 231 62 301 135 q 160 -97 160 -11 q 216 -224 160 -185 q 358 -264 272 -264 q 499 -228 435 -264 q 624 -128 564 -193 l 703 -207 q 549 -331 640 -286 q 349 -375 457 -375 q 185 -342 256 -375 q 74 -250 114 -308 q 35 -117 35 -192 q 64 6 35 -50 q 140 107 93 63 q 242 182 188 151 q 347 229 297 213 l 347 343 l 472 343 l 472 211 m 401 718 q 454 697 433 718 q 475 646 475 676 q 454 597 475 617 q 401 576 433 576 q 350 597 371 576 q 329 646 329 617 q 350 697 329 676 q 401 718 371 718 z "},"¡":{"ha":358,"x_min":103,"x_max":257,"o":"m 257 -346 l 103 -346 l 125 350 l 235 350 l 257 -346 m 178 724 q 231 703 211 724 q 251 653 251 682 q 231 604 251 624 q 178 585 211 585 q 125 604 146 585 q 104 653 104 624 q 125 703 104 682 q 178 724 146 724 z "},"$":{"ha":833,"x_min":67,"x_max":751,"o":"m 147 238 q 276 142 208 175 q 425 108 343 108 q 529 126 483 108 q 601 176 575 143 q 626 260 626 210 q 603 340 626 306 q 528 398 579 374 q 400 438 478 422 q 263 478 322 453 q 163 540 203 504 q 101 622 122 576 q 81 721 81 667 q 119 853 81 797 q 229 938 158 908 q 394 968 300 968 q 588 928 501 968 q 739 811 674 889 l 658 735 q 531 831 597 799 q 390 864 465 864 q 294 847 336 864 q 229 798 253 831 q 206 717 206 765 q 226 643 206 676 q 297 583 247 610 q 435 538 347 557 q 576 494 517 521 q 674 433 635 468 q 733 353 714 397 q 751 257 751 310 q 707 117 751 174 q 587 33 663 61 q 418 4 511 4 q 219 44 307 4 q 67 163 132 83 l 147 238 m 386 1083 l 439 1083 l 439 -140 l 386 -140 l 386 1083 z "},"…":{"ha":1011,"x_min":101,"x_max":911,"o":"m 182 -28 q 124 -5 146 -28 q 101 50 101 18 q 124 103 101 82 q 182 125 146 125 q 240 103 217 125 q 264 50 264 82 q 240 -5 264 18 q 182 -28 217 -28 m 506 -28 q 447 -5 469 -28 q 425 50 425 18 q 447 103 425 82 q 506 125 469 125 q 564 103 540 125 q 588 50 588 82 q 564 -5 588 18 q 506 -28 540 -28 m 829 -28 q 771 -5 793 -28 q 749 50 749 18 q 771 103 749 82 q 829 125 793 125 q 888 103 864 125 q 911 50 911 82 q 888 -5 911 18 q 829 -28 864 -28 z "},"™":{"ha":1411,"x_min":57,"x_max":1315,"o":"m 271 879 l 57 879 l 57 972 l 597 972 l 597 879 l 383 879 l 383 344 l 271 344 l 271 879 m 667 972 l 765 972 l 990 467 l 1215 972 l 1315 972 l 1315 344 l 1203 344 l 1203 719 l 1036 344 l 946 344 l 779 719 l 779 344 l 667 344 l 667 972 z "},"≤":{"ha":788,"x_min":85,"x_max":732,"o":"m 93 457 l 731 767 l 731 739 l 160 424 l 731 94 l 731 67 l 93 390 l 93 457 m 85 47 l 732 47 l 732 0 l 85 0 l 85 47 z "},"≥":{"ha":788,"x_min":56,"x_max":703,"o":"m 57 94 l 628 424 l 57 739 l 57 767 l 694 457 l 694 390 l 57 67 l 57 94 m 56 47 l 703 47 l 703 0 l 56 0 l 56 47 z "},"÷":{"ha":760,"x_min":56,"x_max":703,"o":"m 378 18 q 319 41 342 18 q 297 96 297 64 q 319 149 297 128 q 378 171 342 171 q 436 149 413 171 q 460 96 460 128 q 436 41 460 64 q 378 18 413 18 m 379 551 q 321 574 343 551 q 299 629 299 597 q 321 683 299 661 q 379 704 343 704 q 438 683 414 704 q 461 629 461 661 q 438 574 461 597 q 379 551 414 551 m 56 388 l 703 388 l 703 340 l 56 340 l 56 388 z "},"À":{"ha":910,"x_min":44,"x_max":865,"o":"m 246 300 l 660 300 l 707 196 l 199 196 l 246 300 m 360 972 l 475 972 l 178 0 l 44 0 l 360 972 m 435 972 l 550 972 l 865 0 l 732 0 l 435 972 m 271 1278 l 411 1278 l 510 1068 l 411 1068 l 271 1278 z "},"Á":{"ha":910,"x_min":44,"x_max":865,"o":"m 246 300 l 660 300 l 707 196 l 199 196 l 246 300 m 360 972 l 475 972 l 178 0 l 44 0 l 360 972 m 435 972 l 550 972 l 865 0 l 732 0 l 435 972 m 507 1278 l 646 1278 l 506 1068 l 408 1068 l 507 1278 z "},"Â":{"ha":910,"x_min":44,"x_max":865,"o":"m 246 300 l 660 300 l 707 196 l 199 196 l 246 300 m 360 972 l 475 972 l 178 0 l 44 0 l 360 972 m 435 972 l 550 972 l 865 0 l 732 0 l 435 972 m 401 1278 l 510 1278 l 651 1068 l 550 1068 l 456 1225 l 361 1068 l 260 1068 l 401 1278 z "},"Ã":{"ha":910,"x_min":44,"x_max":865,"o":"m 246 300 l 660 300 l 707 196 l 199 196 l 246 300 m 360 972 l 475 972 l 178 0 l 44 0 l 360 972 m 435 972 l 550 972 l 865 0 l 732 0 l 435 972 m 536 1113 q 467 1128 494 1113 q 417 1158 440 1143 q 364 1174 393 1174 q 314 1117 319 1174 l 231 1117 q 247 1191 231 1160 q 290 1239 263 1222 q 354 1256 318 1256 q 422 1240 393 1256 q 478 1210 451 1225 q 533 1194 504 1194 q 574 1209 560 1194 q 592 1254 589 1224 l 675 1254 q 634 1151 675 1189 q 536 1113 593 1113 z "},"Ä":{"ha":910,"x_min":44,"x_max":865,"o":"m 246 300 l 660 300 l 707 196 l 199 196 l 246 300 m 360 972 l 475 972 l 178 0 l 44 0 l 360 972 m 435 972 l 550 972 l 865 0 l 732 0 l 435 972 m 247 1172 q 265 1217 247 1196 q 315 1238 282 1238 q 365 1217 347 1238 q 382 1172 382 1197 q 365 1128 382 1149 q 315 1107 347 1107 q 278 1117 293 1107 q 255 1142 263 1126 q 247 1172 247 1157 m 528 1172 q 546 1217 528 1196 q 596 1238 564 1238 q 646 1217 629 1238 q 663 1172 663 1197 q 646 1128 663 1149 q 596 1107 629 1107 q 560 1117 575 1107 q 536 1142 544 1126 q 528 1172 528 1157 z "},"Å":{"ha":910,"x_min":44,"x_max":865,"o":"m 246 300 l 660 300 l 707 196 l 199 196 l 246 300 m 360 972 l 475 972 l 178 0 l 44 0 l 360 972 m 435 972 l 550 972 l 865 0 l 732 0 l 435 972 m 456 1042 q 350 1078 388 1042 q 313 1175 313 1114 q 350 1271 313 1235 q 456 1307 388 1307 q 561 1271 524 1307 q 599 1175 599 1235 q 561 1078 599 1114 q 456 1042 524 1042 m 456 1099 q 514 1119 492 1099 q 536 1175 536 1139 q 514 1230 536 1210 q 456 1250 492 1250 q 398 1230 421 1250 q 375 1175 375 1210 q 398 1119 375 1139 q 456 1099 421 1099 z "},"Æ":{"ha":1222,"x_min":44,"x_max":1132,"o":"m 575 972 l 1113 972 l 1113 861 l 700 861 l 700 563 l 1076 563 l 1076 451 l 700 451 l 700 111 l 1132 111 l 1132 0 l 575 0 l 575 972 m 422 972 l 681 972 l 679 861 l 375 861 l 422 972 m 239 307 l 635 307 l 682 196 l 192 196 l 239 307 m 360 972 l 471 972 l 178 0 l 44 0 l 360 972 z "},"È":{"ha":736,"x_min":103,"x_max":660,"o":"m 103 972 l 640 972 l 640 861 l 228 861 l 228 563 l 604 563 l 604 451 l 228 451 l 228 111 l 660 111 l 660 0 l 103 0 l 103 972 m 183 1278 l 324 1278 l 422 1068 l 324 1068 l 183 1278 z "},"É":{"ha":736,"x_min":103,"x_max":660,"o":"m 103 972 l 640 972 l 640 861 l 228 861 l 228 563 l 604 563 l 604 451 l 228 451 l 228 111 l 660 111 l 660 0 l 103 0 l 103 972 m 419 1278 l 558 1278 l 418 1068 l 321 1068 l 419 1278 z "},"Ê":{"ha":736,"x_min":103,"x_max":660,"o":"m 103 972 l 640 972 l 640 861 l 228 861 l 228 563 l 604 563 l 604 451 l 228 451 l 228 111 l 660 111 l 660 0 l 103 0 l 103 972 m 314 1278 l 422 1278 l 564 1068 l 463 1068 l 368 1225 l 274 1068 l 172 1068 l 314 1278 z "},"Ë":{"ha":736,"x_min":103,"x_max":660,"o":"m 103 972 l 640 972 l 640 861 l 228 861 l 228 563 l 604 563 l 604 451 l 228 451 l 228 111 l 660 111 l 660 0 l 103 0 l 103 972 m 160 1172 q 177 1217 160 1196 q 228 1238 194 1238 q 277 1217 260 1238 q 294 1172 294 1197 q 277 1128 294 1149 q 228 1107 260 1107 q 190 1117 206 1107 q 167 1142 175 1126 q 160 1172 160 1157 m 440 1172 q 458 1217 440 1196 q 508 1238 476 1238 q 558 1217 542 1238 q 575 1172 575 1197 q 558 1128 575 1149 q 508 1107 542 1107 q 472 1117 488 1107 q 449 1142 457 1126 q 440 1172 440 1157 z "},"Ì":{"ha":453,"x_min":42,"x_max":289,"o":"m 164 972 l 289 972 l 289 0 l 164 0 l 164 972 m 42 1278 l 182 1278 l 281 1068 l 182 1068 l 42 1278 z "},"Í":{"ha":453,"x_min":164,"x_max":417,"o":"m 164 972 l 289 972 l 289 0 l 164 0 l 164 972 m 278 1278 l 417 1278 l 276 1068 l 179 1068 l 278 1278 z "},"Î":{"ha":453,"x_min":31,"x_max":422,"o":"m 164 972 l 289 972 l 289 0 l 164 0 l 164 972 m 172 1278 l 281 1278 l 422 1068 l 321 1068 l 226 1225 l 132 1068 l 31 1068 l 172 1278 z "},"Ï":{"ha":453,"x_min":18,"x_max":433,"o":"m 164 972 l 289 972 l 289 0 l 164 0 l 164 972 m 18 1172 q 35 1217 18 1196 q 86 1238 53 1238 q 135 1217 118 1238 q 153 1172 153 1197 q 135 1128 153 1149 q 86 1107 118 1107 q 49 1117 64 1107 q 26 1142 33 1126 q 18 1172 18 1157 m 299 1172 q 317 1217 299 1196 q 367 1238 335 1238 q 417 1217 400 1238 q 433 1172 433 1197 q 417 1128 433 1149 q 367 1107 400 1107 q 331 1117 346 1107 q 307 1142 315 1126 q 299 1172 299 1157 z "},"Ð":{"ha":1017,"x_min":0,"x_max":943,"o":"m 117 0 l 117 972 l 476 972 q 720 910 615 972 q 884 740 825 849 q 943 486 943 631 q 884 232 943 342 q 720 61 825 122 q 476 0 615 0 l 117 0 m 0 467 l 0 556 l 553 556 l 553 467 l 0 467 m 242 111 l 464 111 q 651 156 574 111 q 771 285 729 201 q 813 485 813 368 q 720 761 813 661 q 464 861 628 861 l 242 861 l 242 111 z "},"Ñ":{"ha":1017,"x_min":121,"x_max":896,"o":"m 121 972 l 232 972 l 771 203 l 771 972 l 896 972 l 896 0 l 785 0 l 246 769 l 246 0 l 121 0 l 121 972 m 589 1113 q 520 1128 547 1113 q 469 1158 493 1143 q 417 1174 446 1174 q 367 1117 372 1174 l 283 1117 q 299 1191 283 1160 q 343 1239 315 1222 q 407 1256 371 1256 q 475 1240 446 1256 q 531 1210 504 1225 q 586 1194 557 1194 q 627 1209 613 1194 q 644 1254 642 1224 l 728 1254 q 687 1151 728 1189 q 589 1113 646 1113 z "},"Ò":{"ha":1076,"x_min":74,"x_max":1003,"o":"m 538 -28 q 298 31 403 -28 q 133 205 193 90 q 74 486 74 319 q 132 765 74 650 q 295 940 190 879 q 539 1000 400 1000 q 788 937 683 1000 q 947 758 892 874 q 1003 486 1003 643 q 943 203 1003 318 q 778 31 883 89 q 538 -28 674 -28 m 542 83 q 719 132 646 83 q 833 271 793 181 q 872 486 872 361 q 788 788 872 688 q 533 889 703 889 q 290 782 376 889 q 204 486 204 675 q 292 185 204 286 q 542 83 379 83 m 354 1278 l 494 1278 l 593 1068 l 494 1068 l 354 1278 z "},"Ó":{"ha":1076,"x_min":74,"x_max":1003,"o":"m 538 -28 q 298 31 403 -28 q 133 205 193 90 q 74 486 74 319 q 132 765 74 650 q 295 940 190 879 q 539 1000 400 1000 q 788 937 683 1000 q 947 758 892 874 q 1003 486 1003 643 q 943 203 1003 318 q 778 31 883 89 q 538 -28 674 -28 m 542 83 q 719 132 646 83 q 833 271 793 181 q 872 486 872 361 q 788 788 872 688 q 533 889 703 889 q 290 782 376 889 q 204 486 204 675 q 292 185 204 286 q 542 83 379 83 m 590 1278 l 729 1278 l 589 1068 l 492 1068 l 590 1278 z "},"Ô":{"ha":1076,"x_min":74,"x_max":1003,"o":"m 538 -28 q 298 31 403 -28 q 133 205 193 90 q 74 486 74 319 q 132 765 74 650 q 295 940 190 879 q 539 1000 400 1000 q 788 937 683 1000 q 947 758 892 874 q 1003 486 1003 643 q 943 203 1003 318 q 778 31 883 89 q 538 -28 674 -28 m 542 83 q 719 132 646 83 q 833 271 793 181 q 872 486 872 361 q 788 788 872 688 q 533 889 703 889 q 290 782 376 889 q 204 486 204 675 q 292 185 204 286 q 542 83 379 83 m 485 1278 l 593 1278 l 735 1068 l 633 1068 l 539 1225 l 444 1068 l 343 1068 l 485 1278 z "},"Õ":{"ha":1076,"x_min":74,"x_max":1003,"o":"m 538 -28 q 298 31 403 -28 q 133 205 193 90 q 74 486 74 319 q 132 765 74 650 q 295 940 190 879 q 539 1000 400 1000 q 788 937 683 1000 q 947 758 892 874 q 1003 486 1003 643 q 943 203 1003 318 q 778 31 883 89 q 538 -28 674 -28 m 542 83 q 719 132 646 83 q 833 271 793 181 q 872 486 872 361 q 788 788 872 688 q 533 889 703 889 q 290 782 376 889 q 204 486 204 675 q 292 185 204 286 q 542 83 379 83 m 619 1113 q 551 1128 578 1113 q 500 1158 524 1143 q 447 1174 476 1174 q 397 1117 403 1174 l 314 1117 q 330 1191 314 1160 q 374 1239 346 1222 q 438 1256 401 1256 q 506 1240 476 1256 q 561 1210 535 1225 q 617 1194 588 1194 q 658 1209 643 1194 q 675 1254 672 1224 l 758 1254 q 717 1151 758 1189 q 619 1113 676 1113 z "},"Ö":{"ha":1076,"x_min":74,"x_max":1003,"o":"m 538 -28 q 298 31 403 -28 q 133 205 193 90 q 74 486 74 319 q 132 765 74 650 q 295 940 190 879 q 539 1000 400 1000 q 788 937 683 1000 q 947 758 892 874 q 1003 486 1003 643 q 943 203 1003 318 q 778 31 883 89 q 538 -28 674 -28 m 542 83 q 719 132 646 83 q 833 271 793 181 q 872 486 872 361 q 788 788 872 688 q 533 889 703 889 q 290 782 376 889 q 204 486 204 675 q 292 185 204 286 q 542 83 379 83 m 331 1172 q 348 1217 331 1196 q 399 1238 365 1238 q 448 1217 431 1238 q 465 1172 465 1197 q 448 1128 465 1149 q 399 1107 431 1107 q 361 1117 376 1107 q 338 1142 346 1126 q 331 1172 331 1157 m 611 1172 q 629 1217 611 1196 q 679 1238 647 1238 q 729 1217 713 1238 q 746 1172 746 1197 q 729 1128 746 1149 q 679 1107 713 1107 q 643 1117 658 1107 q 619 1142 628 1126 q 611 1172 611 1157 z "},"Ø":{"ha":1104,"x_min":88,"x_max":1017,"o":"m 551 -28 q 312 31 417 -28 q 147 205 207 90 q 88 486 88 319 q 146 765 88 650 q 309 940 204 879 q 553 1000 414 1000 q 801 937 697 1000 q 961 758 906 874 q 1017 486 1017 643 q 957 203 1017 318 q 792 31 897 89 q 551 -28 688 -28 m 211 -93 l 796 1067 l 892 1067 l 307 -93 l 211 -93 m 556 83 q 733 132 660 83 q 847 271 807 181 q 886 486 886 361 q 801 788 886 688 q 547 889 717 889 q 304 782 390 889 q 218 486 218 675 q 306 185 218 286 q 556 83 393 83 z "},"Ù":{"ha":938,"x_min":111,"x_max":826,"o":"m 236 972 l 236 367 q 298 150 236 217 q 468 83 360 83 q 640 151 578 83 q 701 367 701 218 l 701 972 l 826 972 l 826 364 q 784 156 826 244 q 662 20 742 68 q 467 -28 582 -28 q 273 20 353 -28 q 152 156 193 68 q 111 364 111 243 l 111 972 l 236 972 m 285 1278 l 425 1278 l 524 1068 l 425 1068 l 285 1278 z "},"Ú":{"ha":938,"x_min":111,"x_max":826,"o":"m 236 972 l 236 367 q 298 150 236 217 q 468 83 360 83 q 640 151 578 83 q 701 367 701 218 l 701 972 l 826 972 l 826 364 q 784 156 826 244 q 662 20 742 68 q 467 -28 582 -28 q 273 20 353 -28 q 152 156 193 68 q 111 364 111 243 l 111 972 l 236 972 m 521 1278 l 660 1278 l 519 1068 l 422 1068 l 521 1278 z "},"Û":{"ha":938,"x_min":111,"x_max":826,"o":"m 236 972 l 236 367 q 298 150 236 217 q 468 83 360 83 q 640 151 578 83 q 701 367 701 218 l 701 972 l 826 972 l 826 364 q 784 156 826 244 q 662 20 742 68 q 467 -28 582 -28 q 273 20 353 -28 q 152 156 193 68 q 111 364 111 243 l 111 972 l 236 972 m 415 1278 l 524 1278 l 665 1068 l 564 1068 l 469 1225 l 375 1068 l 274 1068 l 415 1278 z "},"Ü":{"ha":938,"x_min":111,"x_max":826,"o":"m 236 972 l 236 367 q 298 150 236 217 q 468 83 360 83 q 640 151 578 83 q 701 367 701 218 l 701 972 l 826 972 l 826 364 q 784 156 826 244 q 662 20 742 68 q 467 -28 582 -28 q 273 20 353 -28 q 152 156 193 68 q 111 364 111 243 l 111 972 l 236 972 m 261 1172 q 278 1217 261 1196 q 329 1238 296 1238 q 378 1217 361 1238 q 396 1172 396 1197 q 378 1128 396 1149 q 329 1107 361 1107 q 292 1117 307 1107 q 269 1142 276 1126 q 261 1172 261 1157 m 542 1172 q 560 1217 542 1196 q 610 1238 578 1238 q 660 1217 643 1238 q 676 1172 676 1197 q 660 1128 676 1149 q 610 1107 643 1107 q 574 1117 589 1107 q 550 1142 558 1126 q 542 1172 542 1157 z "},"Ý":{"ha":892,"x_min":44,"x_max":847,"o":"m 383 411 l 44 972 l 188 972 l 446 535 l 704 972 l 847 972 l 508 411 l 508 0 l 383 0 l 383 411 m 497 1278 l 636 1278 l 496 1068 l 399 1068 l 497 1278 z "},"à":{"ha":828,"x_min":43,"x_max":713,"o":"m 353 -28 q 188 21 257 -28 q 81 156 118 69 q 43 353 43 242 q 78 542 43 458 q 178 674 113 625 q 340 722 244 722 q 547 624 475 722 q 618 344 618 526 q 550 70 618 168 q 353 -28 482 -28 m 371 69 q 485 107 436 69 q 560 208 533 144 q 588 353 588 272 q 560 494 588 433 q 482 590 532 556 q 367 625 432 625 q 221 553 274 625 q 168 357 168 482 q 223 148 168 226 q 371 69 278 69 m 588 0 l 588 694 l 713 694 l 713 0 l 588 0 m 208 1001 l 349 1001 l 447 792 l 349 792 l 208 1001 z "},"á":{"ha":828,"x_min":43,"x_max":713,"o":"m 353 -28 q 188 21 257 -28 q 81 156 118 69 q 43 353 43 242 q 78 542 43 458 q 178 674 113 625 q 340 722 244 722 q 547 624 475 722 q 618 344 618 526 q 550 70 618 168 q 353 -28 482 -28 m 371 69 q 485 107 436 69 q 560 208 533 144 q 588 353 588 272 q 560 494 588 433 q 482 590 532 556 q 367 625 432 625 q 221 553 274 625 q 168 357 168 482 q 223 148 168 226 q 371 69 278 69 m 588 0 l 588 694 l 713 694 l 713 0 l 588 0 m 444 1001 l 583 1001 l 443 792 l 346 792 l 444 1001 z "},"â":{"ha":828,"x_min":43,"x_max":713,"o":"m 353 -28 q 188 21 257 -28 q 81 156 118 69 q 43 353 43 242 q 78 542 43 458 q 178 674 113 625 q 340 722 244 722 q 547 624 475 722 q 618 344 618 526 q 550 70 618 168 q 353 -28 482 -28 m 371 69 q 485 107 436 69 q 560 208 533 144 q 588 353 588 272 q 560 494 588 433 q 482 590 532 556 q 367 625 432 625 q 221 553 274 625 q 168 357 168 482 q 223 148 168 226 q 371 69 278 69 m 588 0 l 588 694 l 713 694 l 713 0 l 588 0 m 339 1001 l 447 1001 l 589 792 l 488 792 l 393 949 l 299 792 l 197 792 l 339 1001 z "},"ã":{"ha":828,"x_min":43,"x_max":713,"o":"m 353 -28 q 188 21 257 -28 q 81 156 118 69 q 43 353 43 242 q 78 542 43 458 q 178 674 113 625 q 340 722 244 722 q 547 624 475 722 q 618 344 618 526 q 550 70 618 168 q 353 -28 482 -28 m 371 69 q 485 107 436 69 q 560 208 533 144 q 588 353 588 272 q 560 494 588 433 q 482 590 532 556 q 367 625 432 625 q 221 553 274 625 q 168 357 168 482 q 223 148 168 226 q 371 69 278 69 m 588 0 l 588 694 l 713 694 l 713 0 l 588 0 m 474 836 q 405 851 432 836 q 354 882 378 867 q 301 897 331 897 q 251 840 257 897 l 168 840 q 184 915 168 883 q 228 963 200 946 q 292 979 256 979 q 360 964 331 979 q 415 933 389 949 q 471 918 442 918 q 512 933 497 918 q 529 978 526 947 l 613 978 q 572 874 613 913 q 474 836 531 836 z "},"ä":{"ha":828,"x_min":43,"x_max":713,"o":"m 353 -28 q 188 21 257 -28 q 81 156 118 69 q 43 353 43 242 q 78 542 43 458 q 178 674 113 625 q 340 722 244 722 q 547 624 475 722 q 618 344 618 526 q 550 70 618 168 q 353 -28 482 -28 m 371 69 q 485 107 436 69 q 560 208 533 144 q 588 353 588 272 q 560 494 588 433 q 482 590 532 556 q 367 625 432 625 q 221 553 274 625 q 168 357 168 482 q 223 148 168 226 q 371 69 278 69 m 588 0 l 588 694 l 713 694 l 713 0 l 588 0 m 185 896 q 202 940 185 919 q 253 961 219 961 q 302 941 285 961 q 319 896 319 921 q 302 851 319 872 q 253 831 285 831 q 215 840 231 831 q 192 865 200 850 q 185 896 185 881 m 465 896 q 483 940 465 919 q 533 961 501 961 q 583 941 567 961 q 600 896 600 921 q 583 851 600 872 q 533 831 567 831 q 497 840 513 831 q 474 865 482 850 q 465 896 465 881 z "},"å":{"ha":828,"x_min":43,"x_max":713,"o":"m 353 -28 q 188 21 257 -28 q 81 156 118 69 q 43 353 43 242 q 78 542 43 458 q 178 674 113 625 q 340 722 244 722 q 547 624 475 722 q 618 344 618 526 q 550 70 618 168 q 353 -28 482 -28 m 371 69 q 485 107 436 69 q 560 208 533 144 q 588 353 588 272 q 560 494 588 433 q 482 590 532 556 q 367 625 432 625 q 221 553 274 625 q 168 357 168 482 q 223 148 168 226 q 371 69 278 69 m 588 0 l 588 694 l 713 694 l 713 0 l 588 0 m 393 765 q 288 801 325 765 q 250 899 250 838 q 288 994 250 958 q 393 1031 325 1031 q 499 994 461 1031 q 536 899 536 958 q 499 801 536 838 q 393 765 461 765 m 393 822 q 451 842 429 822 q 474 899 474 863 q 451 953 474 933 q 393 974 429 974 q 335 953 358 974 q 313 899 313 933 q 335 842 313 863 q 393 822 358 822 z "},"æ":{"ha":1299,"x_min":43,"x_max":1249,"o":"m 939 -28 q 765 15 839 -28 q 648 141 690 57 q 606 349 606 225 q 647 554 606 471 q 761 680 688 638 q 933 722 835 722 q 1105 677 1035 722 q 1212 544 1175 632 q 1249 329 1249 457 l 726 329 q 778 143 726 217 q 938 69 829 69 q 1053 96 1001 69 q 1142 171 1106 122 l 1215 97 q 1103 7 1174 42 q 939 -28 1033 -28 m 360 -28 q 192 23 263 -28 q 82 161 121 74 q 43 360 43 249 q 78 547 43 465 q 182 676 114 629 q 347 722 250 722 q 559 624 486 722 q 632 344 632 526 q 562 70 632 168 q 360 -28 492 -28 m 378 69 q 495 107 444 69 q 574 208 546 144 q 601 353 601 272 q 572 494 601 433 q 492 590 543 556 q 374 625 442 625 q 223 553 278 625 q 168 357 168 482 q 225 148 168 226 q 378 69 282 69 m 601 0 l 601 694 l 726 694 l 726 0 l 601 0 m 728 411 l 1119 411 q 1060 572 1110 518 q 928 625 1010 625 q 792 572 847 625 q 728 411 738 518 z "},"ç":{"ha":701,"x_min":64,"x_max":663,"o":"m 663 97 q 547 7 619 42 q 378 -28 474 -28 q 146 72 228 -28 q 64 354 64 171 q 145 625 64 528 q 376 722 226 722 q 540 688 469 722 q 654 597 611 653 l 581 524 q 491 599 543 572 q 381 625 439 625 q 236 559 283 625 q 189 354 189 493 q 236 141 189 213 q 378 69 283 69 q 495 96 439 69 q 589 171 551 122 l 663 97 m 260 -237 q 300 -248 278 -243 q 346 -253 322 -253 q 410 -235 390 -253 q 431 -183 431 -218 q 410 -131 431 -147 q 353 -114 389 -114 q 326 -115 339 -114 q 299 -119 314 -117 l 375 21 l 454 21 l 392 -89 q 489 -115 453 -89 q 525 -190 525 -142 q 479 -274 525 -244 q 350 -303 433 -303 q 283 -297 310 -303 q 233 -285 256 -290 l 260 -237 z "},"è":{"ha":764,"x_min":65,"x_max":703,"o":"m 390 -28 q 220 15 293 -28 q 106 141 147 57 q 65 349 65 225 q 150 627 65 532 q 385 722 235 722 q 560 677 488 722 q 667 544 632 632 q 694 329 703 457 l 190 329 q 240 143 190 217 q 392 69 289 69 q 501 96 451 69 q 588 171 551 122 l 661 97 q 551 7 619 42 q 390 -28 482 -28 m 196 411 l 565 411 q 508 572 556 518 q 385 625 461 625 q 257 572 308 625 q 196 411 206 518 m 192 1001 l 332 1001 l 431 792 l 332 792 l 192 1001 z "},"é":{"ha":764,"x_min":65,"x_max":703,"o":"m 390 -28 q 220 15 293 -28 q 106 141 147 57 q 65 349 65 225 q 150 627 65 532 q 385 722 235 722 q 560 677 488 722 q 667 544 632 632 q 694 329 703 457 l 190 329 q 240 143 190 217 q 392 69 289 69 q 501 96 451 69 q 588 171 551 122 l 661 97 q 551 7 619 42 q 390 -28 482 -28 m 196 411 l 565 411 q 508 572 556 518 q 385 625 461 625 q 257 572 308 625 q 196 411 206 518 m 428 1001 l 567 1001 l 426 792 l 329 792 l 428 1001 z "},"ê":{"ha":764,"x_min":65,"x_max":703,"o":"m 390 -28 q 220 15 293 -28 q 106 141 147 57 q 65 349 65 225 q 150 627 65 532 q 385 722 235 722 q 560 677 488 722 q 667 544 632 632 q 694 329 703 457 l 190 329 q 240 143 190 217 q 392 69 289 69 q 501 96 451 69 q 588 171 551 122 l 661 97 q 551 7 619 42 q 390 -28 482 -28 m 196 411 l 565 411 q 508 572 556 518 q 385 625 461 625 q 257 572 308 625 q 196 411 206 518 m 322 1001 l 431 1001 l 572 792 l 471 792 l 376 949 l 282 792 l 181 792 l 322 1001 z "},"ë":{"ha":764,"x_min":65,"x_max":703,"o":"m 390 -28 q 220 15 293 -28 q 106 141 147 57 q 65 349 65 225 q 150 627 65 532 q 385 722 235 722 q 560 677 488 722 q 667 544 632 632 q 694 329 703 457 l 190 329 q 240 143 190 217 q 392 69 289 69 q 501 96 451 69 q 588 171 551 122 l 661 97 q 551 7 619 42 q 390 -28 482 -28 m 196 411 l 565 411 q 508 572 556 518 q 385 625 461 625 q 257 572 308 625 q 196 411 206 518 m 168 896 q 185 940 168 919 q 236 961 203 961 q 285 941 268 961 q 303 896 303 921 q 285 851 303 872 q 236 831 268 831 q 199 840 214 831 q 176 865 183 850 q 168 896 168 881 m 449 896 q 467 940 449 919 q 517 961 485 961 q 567 941 550 961 q 583 896 583 921 q 567 851 583 872 q 517 831 550 831 q 481 840 496 831 q 457 865 465 850 q 449 896 449 881 z "},"ì":{"ha":378,"x_min":4,"x_max":251,"o":"m 126 694 l 251 694 l 251 0 l 126 0 l 126 694 m 4 1001 l 144 1001 l 243 792 l 144 792 l 4 1001 z "},"í":{"ha":378,"x_min":126,"x_max":379,"o":"m 126 694 l 251 694 l 251 0 l 126 0 l 126 694 m 240 1001 l 379 1001 l 239 792 l 142 792 l 240 1001 z "},"î":{"ha":378,"x_min":-7,"x_max":385,"o":"m 126 694 l 251 694 l 251 0 l 126 0 l 126 694 m 135 1001 l 243 1001 l 385 792 l 283 792 l 189 949 l 94 792 l -7 792 l 135 1001 z "},"ï":{"ha":433,"x_min":8,"x_max":424,"o":"m 154 694 l 279 694 l 279 0 l 154 0 l 154 694 m 8 896 q 26 940 8 919 q 76 961 43 961 q 126 941 108 961 q 143 896 143 921 q 126 851 143 872 q 76 831 108 831 q 39 840 54 831 q 16 865 24 850 q 8 896 8 881 m 289 896 q 307 940 289 919 q 357 961 325 961 q 407 941 390 961 q 424 896 424 921 q 407 851 424 872 q 357 831 390 831 q 321 840 336 831 q 297 865 306 850 q 289 896 289 881 z "},"ñ":{"ha":842,"x_min":117,"x_max":738,"o":"m 613 408 q 581 576 613 526 q 472 625 550 625 q 300 536 358 625 q 242 301 242 447 l 228 381 l 225 475 q 281 606 242 551 q 376 692 319 661 q 500 722 432 722 q 679 647 621 722 q 738 422 738 572 l 738 0 l 613 0 l 613 408 m 117 694 l 242 694 l 242 0 l 117 0 l 117 694 m 508 836 q 440 851 467 836 q 389 882 413 867 q 336 897 365 897 q 286 840 292 897 l 203 840 q 219 915 203 883 q 263 963 235 946 q 326 979 290 979 q 394 964 365 979 q 450 933 424 949 q 506 918 476 918 q 547 933 532 918 q 564 978 561 947 l 647 978 q 606 874 647 913 q 508 836 565 836 z "},"ò":{"ha":803,"x_min":64,"x_max":739,"o":"m 393 -28 q 214 17 288 -28 q 102 147 140 61 q 64 354 64 232 q 102 552 64 469 q 215 678 140 635 q 394 722 289 722 q 652 625 565 722 q 739 354 739 528 q 651 72 739 171 q 393 -28 564 -28 m 396 69 q 560 139 507 69 q 614 351 614 208 q 560 556 614 488 q 399 625 507 625 q 240 559 292 625 q 189 354 189 493 q 240 141 189 213 q 396 69 292 69 m 217 1001 l 357 1001 l 456 792 l 357 792 l 217 1001 z "},"ó":{"ha":803,"x_min":64,"x_max":739,"o":"m 393 -28 q 214 17 288 -28 q 102 147 140 61 q 64 354 64 232 q 102 552 64 469 q 215 678 140 635 q 394 722 289 722 q 652 625 565 722 q 739 354 739 528 q 651 72 739 171 q 393 -28 564 -28 m 396 69 q 560 139 507 69 q 614 351 614 208 q 560 556 614 488 q 399 625 507 625 q 240 559 292 625 q 189 354 189 493 q 240 141 189 213 q 396 69 292 69 m 453 1001 l 592 1001 l 451 792 l 354 792 l 453 1001 z "},"ô":{"ha":803,"x_min":64,"x_max":739,"o":"m 393 -28 q 214 17 288 -28 q 102 147 140 61 q 64 354 64 232 q 102 552 64 469 q 215 678 140 635 q 394 722 289 722 q 652 625 565 722 q 739 354 739 528 q 651 72 739 171 q 393 -28 564 -28 m 396 69 q 560 139 507 69 q 614 351 614 208 q 560 556 614 488 q 399 625 507 625 q 240 559 292 625 q 189 354 189 493 q 240 141 189 213 q 396 69 292 69 m 347 1001 l 456 1001 l 597 792 l 496 792 l 401 949 l 307 792 l 206 792 l 347 1001 z "},"õ":{"ha":803,"x_min":64,"x_max":739,"o":"m 393 -28 q 214 17 288 -28 q 102 147 140 61 q 64 354 64 232 q 102 552 64 469 q 215 678 140 635 q 394 722 289 722 q 652 625 565 722 q 739 354 739 528 q 651 72 739 171 q 393 -28 564 -28 m 396 69 q 560 139 507 69 q 614 351 614 208 q 560 556 614 488 q 399 625 507 625 q 240 559 292 625 q 189 354 189 493 q 240 141 189 213 q 396 69 292 69 m 482 836 q 413 851 440 836 q 363 882 386 867 q 310 897 339 897 q 260 840 265 897 l 176 840 q 192 915 176 883 q 236 963 208 946 q 300 979 264 979 q 368 964 339 979 q 424 933 397 949 q 479 918 450 918 q 520 933 506 918 q 538 978 535 947 l 621 978 q 580 874 621 913 q 482 836 539 836 z "},"ö":{"ha":803,"x_min":64,"x_max":739,"o":"m 393 -28 q 214 17 288 -28 q 102 147 140 61 q 64 354 64 232 q 102 552 64 469 q 215 678 140 635 q 394 722 289 722 q 652 625 565 722 q 739 354 739 528 q 651 72 739 171 q 393 -28 564 -28 m 396 69 q 560 139 507 69 q 614 351 614 208 q 560 556 614 488 q 399 625 507 625 q 240 559 292 625 q 189 354 189 493 q 240 141 189 213 q 396 69 292 69 m 193 896 q 210 940 193 919 q 261 961 228 961 q 310 941 293 961 q 328 896 328 921 q 310 851 328 872 q 261 831 293 831 q 224 840 239 831 q 201 865 208 850 q 193 896 193 881 m 474 896 q 492 940 474 919 q 542 961 510 961 q 592 941 575 961 q 608 896 608 921 q 592 851 608 872 q 542 831 575 831 q 506 840 521 831 q 482 865 490 850 q 474 896 474 881 z "},"ø":{"ha":856,"x_min":96,"x_max":760,"o":"m 140 -107 l 219 49 l 236 86 l 526 642 l 543 689 l 600 803 l 715 803 l 635 642 l 621 613 l 333 58 l 319 18 l 257 -107 l 140 -107 m 419 -28 q 244 17 317 -28 q 133 147 171 61 q 96 354 96 232 q 134 552 96 469 q 244 678 172 635 q 421 722 317 722 q 674 625 589 722 q 760 354 760 528 q 674 72 760 171 q 419 -28 589 -28 m 422 69 q 583 139 531 69 q 635 351 635 208 q 583 556 635 488 q 425 625 531 625 q 271 559 321 625 q 221 354 221 493 q 271 141 221 213 q 422 69 321 69 z "},"ù":{"ha":806,"x_min":106,"x_max":699,"o":"m 231 694 l 231 256 q 278 113 231 156 q 404 69 325 69 q 529 114 485 69 q 574 256 574 158 l 574 694 l 699 694 l 699 257 q 664 110 699 174 q 563 9 629 46 q 403 -28 497 -28 q 243 8 310 -28 q 141 108 176 43 q 106 257 106 172 l 106 694 l 231 694 m 218 1001 l 358 1001 l 457 792 l 358 792 l 218 1001 z "},"ú":{"ha":806,"x_min":106,"x_max":699,"o":"m 231 694 l 231 256 q 278 113 231 156 q 404 69 325 69 q 529 114 485 69 q 574 256 574 158 l 574 694 l 699 694 l 699 257 q 664 110 699 174 q 563 9 629 46 q 403 -28 497 -28 q 243 8 310 -28 q 141 108 176 43 q 106 257 106 172 l 106 694 l 231 694 m 454 1001 l 593 1001 l 453 792 l 356 792 l 454 1001 z "},"û":{"ha":806,"x_min":106,"x_max":699,"o":"m 231 694 l 231 256 q 278 113 231 156 q 404 69 325 69 q 529 114 485 69 q 574 256 574 158 l 574 694 l 699 694 l 699 257 q 664 110 699 174 q 563 9 629 46 q 403 -28 497 -28 q 243 8 310 -28 q 141 108 176 43 q 106 257 106 172 l 106 694 l 231 694 m 349 1001 l 457 1001 l 599 792 l 497 792 l 403 949 l 308 792 l 207 792 l 349 1001 z "},"ü":{"ha":806,"x_min":106,"x_max":699,"o":"m 231 694 l 231 256 q 278 113 231 156 q 404 69 325 69 q 529 114 485 69 q 574 256 574 158 l 574 694 l 699 694 l 699 257 q 664 110 699 174 q 563 9 629 46 q 403 -28 497 -28 q 243 8 310 -28 q 141 108 176 43 q 106 257 106 172 l 106 694 l 231 694 m 194 896 q 212 940 194 919 q 263 961 229 961 q 312 941 294 961 q 329 896 329 921 q 312 851 329 872 q 263 831 294 831 q 225 840 240 831 q 202 865 210 850 q 194 896 194 881 m 475 896 q 493 940 475 919 q 543 961 511 961 q 593 941 576 961 q 610 896 610 921 q 593 851 610 872 q 543 831 576 831 q 507 840 522 831 q 483 865 492 850 q 475 896 475 881 z "},"ý":{"ha":731,"x_min":28,"x_max":703,"o":"m 94 -189 q 151 -204 121 -199 q 199 -210 181 -210 q 251 -194 229 -210 q 288 -151 272 -179 q 318 -81 304 -122 l 571 694 l 703 694 l 426 -108 q 378 -217 404 -172 q 314 -284 351 -261 q 219 -307 276 -307 q 157 -303 181 -307 q 113 -292 133 -299 q 64 -275 93 -285 l 94 -189 m 28 694 l 160 694 l 385 0 l 267 0 l 28 694 m 417 1001 l 556 1001 l 415 792 l 318 792 l 417 1001 z "},"ÿ":{"ha":731,"x_min":28,"x_max":703,"o":"m 94 -189 q 151 -204 121 -199 q 199 -210 181 -210 q 251 -194 229 -210 q 288 -151 272 -179 q 318 -81 304 -122 l 571 694 l 703 694 l 426 -108 q 378 -217 404 -172 q 314 -284 351 -261 q 219 -307 276 -307 q 157 -303 181 -307 q 113 -292 133 -299 q 64 -275 93 -285 l 94 -189 m 28 694 l 160 694 l 385 0 l 267 0 l 28 694 m 157 896 q 174 940 157 919 q 225 961 192 961 q 274 941 257 961 q 292 896 292 921 q 274 851 292 872 q 225 831 257 831 q 188 840 203 831 q 165 865 172 850 q 157 896 157 881 m 438 896 q 456 940 438 919 q 506 961 474 961 q 556 941 539 961 q 572 896 572 921 q 556 851 572 872 q 506 831 539 831 q 469 840 485 831 q 446 865 454 850 q 438 896 438 881 z "},"Ā":{"ha":910,"x_min":44,"x_max":865,"o":"m 246 300 l 660 300 l 707 196 l 199 196 l 246 300 m 360 972 l 475 972 l 178 0 l 44 0 l 360 972 m 435 972 l 550 972 l 865 0 l 732 0 l 435 972 m 235 1203 l 678 1203 l 678 1121 l 235 1121 l 235 1203 z "},"ā":{"ha":828,"x_min":43,"x_max":713,"o":"m 353 -28 q 188 21 257 -28 q 81 156 118 69 q 43 353 43 242 q 78 542 43 458 q 178 674 113 625 q 340 722 244 722 q 547 624 475 722 q 618 344 618 526 q 550 70 618 168 q 353 -28 482 -28 m 371 69 q 485 107 436 69 q 560 208 533 144 q 588 353 588 272 q 560 494 588 433 q 482 590 532 556 q 367 625 432 625 q 221 553 274 625 q 168 357 168 482 q 223 148 168 226 q 371 69 278 69 m 588 0 l 588 694 l 713 694 l 713 0 l 588 0 m 172 926 l 615 926 l 615 844 l 172 844 l 172 926 z "},"Ă":{"ha":910,"x_min":44,"x_max":865,"o":"m 246 300 l 660 300 l 707 196 l 199 196 l 246 300 m 360 972 l 475 972 l 178 0 l 44 0 l 360 972 m 435 972 l 550 972 l 865 0 l 732 0 l 435 972 m 369 1278 q 396 1180 374 1214 q 456 1146 418 1146 q 518 1182 494 1146 q 546 1278 542 1218 l 631 1278 q 576 1126 622 1181 q 457 1071 531 1071 q 338 1126 383 1071 q 285 1278 292 1182 l 369 1278 z "},"ă":{"ha":828,"x_min":43,"x_max":713,"o":"m 353 -28 q 188 21 257 -28 q 81 156 118 69 q 43 353 43 242 q 78 542 43 458 q 178 674 113 625 q 340 722 244 722 q 547 624 475 722 q 618 344 618 526 q 550 70 618 168 q 353 -28 482 -28 m 371 69 q 485 107 436 69 q 560 208 533 144 q 588 353 588 272 q 560 494 588 433 q 482 590 532 556 q 367 625 432 625 q 221 553 274 625 q 168 357 168 482 q 223 148 168 226 q 371 69 278 69 m 588 0 l 588 694 l 713 694 l 713 0 l 588 0 m 307 1001 q 333 903 311 938 q 393 869 356 869 q 456 906 432 869 q 483 1001 479 942 l 568 1001 q 514 849 560 904 q 394 794 468 794 q 275 850 321 794 q 222 1001 229 906 l 307 1001 z "},"ą":{"ha":828,"x_min":43,"x_max":713,"o":"m 588 694 l 713 694 l 713 0 l 588 0 l 588 694 m 353 -28 q 188 21 257 -28 q 81 156 118 69 q 43 353 43 242 q 78 542 43 458 q 178 674 113 625 q 340 722 244 722 q 547 624 475 722 q 618 344 618 526 q 550 70 618 168 q 353 -28 482 -28 m 371 69 q 485 107 436 69 q 560 208 533 144 q 588 353 588 272 q 560 494 588 433 q 482 590 532 556 q 367 625 432 625 q 221 553 274 625 q 168 357 168 482 q 223 148 168 226 q 371 69 278 69 m 651 -286 q 551 -238 589 -275 q 513 -153 513 -201 q 558 -56 513 -100 q 679 4 603 -11 l 708 0 q 641 -61 665 -22 q 617 -143 617 -100 q 640 -213 617 -185 q 710 -254 664 -242 l 651 -286 z "},"Ć":{"ha":950,"x_min":74,"x_max":885,"o":"m 885 142 q 723 13 808 54 q 535 -28 638 -28 q 347 10 432 -28 q 201 119 263 49 q 107 289 140 190 q 74 507 74 388 q 127 768 74 657 q 281 940 181 879 q 525 1000 382 1000 q 728 959 639 1000 q 885 832 817 918 l 804 751 q 671 856 740 822 q 519 889 601 889 q 289 790 374 889 q 204 508 204 692 q 246 285 204 381 q 362 136 288 189 q 536 83 436 83 q 682 118 614 83 q 804 222 750 153 l 885 142 m 581 1278 l 719 1278 l 579 1068 l 482 1068 l 581 1278 z "},"ć":{"ha":701,"x_min":64,"x_max":663,"o":"m 663 97 q 547 7 619 42 q 378 -28 474 -28 q 146 72 228 -28 q 64 354 64 171 q 145 625 64 528 q 376 722 226 722 q 540 688 469 722 q 654 597 611 653 l 581 524 q 491 599 543 572 q 381 625 439 625 q 236 559 283 625 q 189 354 189 493 q 236 141 189 213 q 378 69 283 69 q 495 96 439 69 q 589 171 551 122 l 663 97 m 428 1001 l 567 1001 l 426 792 l 329 792 l 428 1001 z "},"Ĉ":{"ha":950,"x_min":74,"x_max":885,"o":"m 885 142 q 723 13 808 54 q 535 -28 638 -28 q 347 10 432 -28 q 201 119 263 49 q 107 289 140 190 q 74 507 74 388 q 127 768 74 657 q 281 940 181 879 q 525 1000 382 1000 q 728 959 639 1000 q 885 832 817 918 l 804 751 q 671 856 740 822 q 519 889 601 889 q 289 790 374 889 q 204 508 204 692 q 246 285 204 381 q 362 136 288 189 q 536 83 436 83 q 682 118 614 83 q 804 222 750 153 l 885 142 m 475 1278 l 583 1278 l 725 1068 l 624 1068 l 529 1225 l 435 1068 l 333 1068 l 475 1278 z "},"ĉ":{"ha":701,"x_min":64,"x_max":663,"o":"m 663 97 q 547 7 619 42 q 378 -28 474 -28 q 146 72 228 -28 q 64 354 64 171 q 145 625 64 528 q 376 722 226 722 q 540 688 469 722 q 654 597 611 653 l 581 524 q 491 599 543 572 q 381 625 439 625 q 236 559 283 625 q 189 354 189 493 q 236 141 189 213 q 378 69 283 69 q 495 96 439 69 q 589 171 551 122 l 663 97 m 322 1001 l 431 1001 l 572 792 l 471 792 l 376 949 l 282 792 l 181 792 l 322 1001 z "},"Ċ":{"ha":950,"x_min":74,"x_max":885,"o":"m 885 142 q 723 13 808 54 q 535 -28 638 -28 q 347 10 432 -28 q 201 119 263 49 q 107 289 140 190 q 74 507 74 388 q 127 768 74 657 q 281 940 181 879 q 525 1000 382 1000 q 728 959 639 1000 q 885 832 817 918 l 804 751 q 671 856 740 822 q 519 889 601 889 q 289 790 374 889 q 204 508 204 692 q 246 285 204 381 q 362 136 288 189 q 536 83 436 83 q 682 118 614 83 q 804 222 750 153 l 885 142 m 457 1174 q 465 1206 457 1190 q 490 1233 474 1222 q 531 1243 507 1243 q 585 1222 567 1243 q 603 1174 603 1200 q 585 1124 603 1147 q 531 1101 567 1101 q 490 1113 507 1101 q 465 1140 474 1124 q 457 1174 457 1157 z "},"ċ":{"ha":701,"x_min":64,"x_max":663,"o":"m 663 97 q 547 7 619 42 q 378 -28 474 -28 q 146 72 228 -28 q 64 354 64 171 q 145 625 64 528 q 376 722 226 722 q 540 688 469 722 q 654 597 611 653 l 581 524 q 491 599 543 572 q 381 625 439 625 q 236 559 283 625 q 189 354 189 493 q 236 141 189 213 q 378 69 283 69 q 495 96 439 69 q 589 171 551 122 l 663 97 m 304 897 q 313 930 304 914 q 338 956 321 946 q 378 967 354 967 q 432 945 414 967 q 450 897 450 924 q 432 848 450 871 q 378 825 414 825 q 338 836 354 825 q 313 864 321 847 q 304 897 304 881 z "},"Č":{"ha":950,"x_min":74,"x_max":885,"o":"m 885 142 q 723 13 808 54 q 535 -28 638 -28 q 347 10 432 -28 q 201 119 263 49 q 107 289 140 190 q 74 507 74 388 q 127 768 74 657 q 281 940 181 879 q 525 1000 382 1000 q 728 959 639 1000 q 885 832 817 918 l 804 751 q 671 856 740 822 q 519 889 601 889 q 289 790 374 889 q 204 508 204 692 q 246 285 204 381 q 362 136 288 189 q 536 83 436 83 q 682 118 614 83 q 804 222 750 153 l 885 142 m 333 1278 l 435 1278 l 529 1121 l 624 1278 l 725 1278 l 583 1068 l 475 1068 l 333 1278 z "},"č":{"ha":701,"x_min":64,"x_max":663,"o":"m 663 97 q 547 7 619 42 q 378 -28 474 -28 q 146 72 228 -28 q 64 354 64 171 q 145 625 64 528 q 376 722 226 722 q 540 688 469 722 q 654 597 611 653 l 581 524 q 491 599 543 572 q 381 625 439 625 q 236 559 283 625 q 189 354 189 493 q 236 141 189 213 q 378 69 283 69 q 495 96 439 69 q 589 171 551 122 l 663 97 m 181 1001 l 282 1001 l 376 844 l 471 1001 l 572 1001 l 431 792 l 322 792 l 181 1001 z "},"Ď":{"ha":1003,"x_min":117,"x_max":929,"o":"m 117 0 l 117 972 l 463 972 q 706 910 601 972 q 870 740 811 849 q 929 486 929 631 q 870 232 929 342 q 706 61 811 122 q 463 0 601 0 l 117 0 m 242 111 l 450 111 q 638 156 560 111 q 757 285 715 201 q 799 485 799 368 q 706 761 799 661 q 450 861 614 861 l 242 861 l 242 111 m 246 1278 l 347 1278 l 442 1121 l 536 1278 l 638 1278 l 496 1068 l 388 1068 l 246 1278 z "},"ď":{"ha":829,"x_min":69,"x_max":924,"o":"m 386 -28 q 217 23 288 -28 q 108 160 146 74 q 69 354 69 246 q 105 545 69 463 q 209 675 140 628 q 378 722 278 722 q 575 625 506 722 q 644 354 644 528 q 578 71 644 169 q 386 -28 511 -28 m 399 69 q 510 108 461 69 q 585 211 558 146 q 613 357 613 276 q 585 495 613 435 q 508 590 557 556 q 397 625 460 625 q 247 554 299 625 q 194 356 194 483 q 249 147 194 225 q 399 69 304 69 m 614 0 l 614 1042 l 739 1042 l 739 0 l 614 0 m 826 1042 l 924 1042 l 847 819 l 778 819 l 826 1042 z "},"Đ":{"ha":1017,"x_min":0,"x_max":943,"o":"m 117 0 l 117 972 l 476 972 q 720 910 615 972 q 884 740 825 849 q 943 486 943 631 q 884 232 943 342 q 720 61 825 122 q 476 0 615 0 l 117 0 m 0 467 l 0 556 l 553 556 l 553 467 l 0 467 m 242 111 l 464 111 q 651 156 574 111 q 771 285 729 201 q 813 485 813 368 q 720 761 813 661 q 464 861 628 861 l 242 861 l 242 111 z "},"đ":{"ha":882,"x_min":83,"x_max":871,"o":"m 400 -28 q 231 21 301 -28 q 122 153 160 69 q 83 340 83 236 q 119 524 83 444 q 223 649 154 604 q 392 694 292 694 q 589 601 519 694 q 658 340 658 507 q 592 67 658 163 q 400 -28 525 -28 m 413 69 q 524 106 475 69 q 599 203 572 142 q 626 342 626 265 q 599 474 626 417 q 522 565 571 532 q 411 597 474 597 q 260 530 313 597 q 208 340 208 463 q 263 143 208 217 q 413 69 318 69 m 628 0 l 628 1042 l 753 1042 l 753 0 l 628 0 m 300 832 l 300 924 l 871 924 l 871 832 l 300 832 z "},"Ē":{"ha":736,"x_min":103,"x_max":660,"o":"m 103 972 l 640 972 l 640 861 l 228 861 l 228 563 l 604 563 l 604 451 l 228 451 l 228 111 l 660 111 l 660 0 l 103 0 l 103 972 m 147 1203 l 590 1203 l 590 1121 l 147 1121 l 147 1203 z "},"ē":{"ha":764,"x_min":65,"x_max":703,"o":"m 390 -28 q 220 15 293 -28 q 106 141 147 57 q 65 349 65 225 q 150 627 65 532 q 385 722 235 722 q 560 677 488 722 q 667 544 632 632 q 694 329 703 457 l 190 329 q 240 143 190 217 q 392 69 289 69 q 501 96 451 69 q 588 171 551 122 l 661 97 q 551 7 619 42 q 390 -28 482 -28 m 196 411 l 565 411 q 508 572 556 518 q 385 625 461 625 q 257 572 308 625 q 196 411 206 518 m 156 926 l 599 926 l 599 844 l 156 844 l 156 926 z "},"Ĕ":{"ha":736,"x_min":103,"x_max":660,"o":"m 103 972 l 640 972 l 640 861 l 228 861 l 228 563 l 604 563 l 604 451 l 228 451 l 228 111 l 660 111 l 660 0 l 103 0 l 103 972 m 282 1278 q 308 1180 286 1214 q 368 1146 331 1146 q 431 1182 407 1146 q 458 1278 454 1218 l 543 1278 q 489 1126 535 1181 q 369 1071 443 1071 q 250 1126 296 1071 q 197 1278 204 1182 l 282 1278 z "},"ĕ":{"ha":764,"x_min":65,"x_max":703,"o":"m 390 -28 q 220 15 293 -28 q 106 141 147 57 q 65 349 65 225 q 150 627 65 532 q 385 722 235 722 q 560 677 488 722 q 667 544 632 632 q 694 329 703 457 l 190 329 q 240 143 190 217 q 392 69 289 69 q 501 96 451 69 q 588 171 551 122 l 661 97 q 551 7 619 42 q 390 -28 482 -28 m 196 411 l 565 411 q 508 572 556 518 q 385 625 461 625 q 257 572 308 625 q 196 411 206 518 m 290 1001 q 317 903 294 938 q 376 869 339 869 q 439 906 415 869 q 467 1001 463 942 l 551 1001 q 497 849 543 904 q 378 794 451 794 q 258 850 304 794 q 206 1001 213 906 l 290 1001 z "},"Ė":{"ha":736,"x_min":103,"x_max":660,"o":"m 103 972 l 640 972 l 640 861 l 228 861 l 228 563 l 604 563 l 604 451 l 228 451 l 228 111 l 660 111 l 660 0 l 103 0 l 103 972 m 296 1174 q 304 1206 296 1190 q 329 1233 313 1222 q 369 1243 346 1243 q 424 1222 406 1243 q 442 1174 442 1200 q 424 1124 442 1147 q 369 1101 406 1101 q 329 1113 346 1101 q 304 1140 313 1124 q 296 1174 296 1157 z "},"ė":{"ha":764,"x_min":65,"x_max":703,"o":"m 390 -28 q 220 15 293 -28 q 106 141 147 57 q 65 349 65 225 q 150 627 65 532 q 385 722 235 722 q 560 677 488 722 q 667 544 632 632 q 694 329 703 457 l 190 329 q 240 143 190 217 q 392 69 289 69 q 501 96 451 69 q 588 171 551 122 l 661 97 q 551 7 619 42 q 390 -28 482 -28 m 196 411 l 565 411 q 508 572 556 518 q 385 625 461 625 q 257 572 308 625 q 196 411 206 518 m 304 897 q 313 930 304 914 q 338 956 321 946 q 378 967 354 967 q 432 945 414 967 q 450 897 450 924 q 432 848 450 871 q 378 825 414 825 q 338 836 354 825 q 313 864 321 847 q 304 897 304 881 z "},"ę":{"ha":764,"x_min":65,"x_max":703,"o":"m 390 -28 q 220 15 293 -28 q 106 141 147 57 q 65 349 65 225 q 150 627 65 532 q 385 722 235 722 q 560 677 488 722 q 667 544 632 632 q 694 329 703 457 l 190 329 q 240 143 190 217 q 392 69 289 69 q 501 96 451 69 q 588 171 551 122 l 661 97 q 551 7 619 42 q 390 -28 482 -28 m 478 -286 q 377 -238 415 -275 q 339 -153 339 -201 q 384 -56 339 -100 q 506 4 429 -11 l 535 0 q 467 -61 492 -22 q 443 -143 443 -100 q 467 -213 443 -185 q 536 -254 490 -242 l 478 -286 m 196 411 l 565 411 q 508 572 556 518 q 385 625 461 625 q 257 572 308 625 q 196 411 206 518 z "},"Ě":{"ha":736,"x_min":103,"x_max":660,"o":"m 103 972 l 640 972 l 640 861 l 228 861 l 228 563 l 604 563 l 604 451 l 228 451 l 228 111 l 660 111 l 660 0 l 103 0 l 103 972 m 172 1278 l 274 1278 l 368 1121 l 463 1278 l 564 1278 l 422 1068 l 314 1068 l 172 1278 z "},"ě":{"ha":764,"x_min":65,"x_max":703,"o":"m 390 -28 q 220 15 293 -28 q 106 141 147 57 q 65 349 65 225 q 150 627 65 532 q 385 722 235 722 q 560 677 488 722 q 667 544 632 632 q 694 329 703 457 l 190 329 q 240 143 190 217 q 392 69 289 69 q 501 96 451 69 q 588 171 551 122 l 661 97 q 551 7 619 42 q 390 -28 482 -28 m 196 411 l 565 411 q 508 572 556 518 q 385 625 461 625 q 257 572 308 625 q 196 411 206 518 m 181 1001 l 282 1001 l 376 844 l 471 1001 l 572 1001 l 431 792 l 322 792 l 181 1001 z "},"Ĝ":{"ha":1078,"x_min":74,"x_max":968,"o":"m 843 397 l 474 397 l 474 508 l 968 508 l 968 0 l 843 0 l 843 397 m 864 324 q 838 186 864 250 q 763 74 811 122 q 648 -1 714 26 q 504 -28 582 -28 q 283 30 381 -28 q 129 201 185 88 q 74 486 74 315 q 128 772 74 658 q 284 943 183 886 q 524 1000 385 1000 q 741 959 642 1000 q 910 832 840 918 l 829 751 q 690 856 761 824 q 532 889 619 889 q 352 843 425 889 q 242 706 279 797 q 204 481 204 615 q 240 259 204 347 q 347 127 276 171 q 522 83 418 83 q 699 126 628 83 q 808 245 771 168 q 844 426 844 322 l 864 324 m 478 1278 l 586 1278 l 728 1068 l 626 1068 l 532 1225 l 438 1068 l 336 1068 l 478 1278 z "},"ĝ":{"ha":826,"x_min":69,"x_max":738,"o":"m 400 -306 q 223 -271 297 -306 q 106 -181 149 -236 l 179 -107 q 274 -182 217 -156 q 407 -208 331 -208 q 509 -188 463 -208 q 584 -112 556 -168 q 613 50 613 -57 l 613 694 l 738 694 l 738 72 q 653 -207 738 -108 q 400 -306 568 -306 m 375 -28 q 213 23 282 -28 q 107 161 144 74 q 69 360 69 249 q 104 547 69 465 q 206 676 139 629 q 368 722 272 722 q 574 625 504 722 q 644 351 644 528 q 614 152 644 238 q 524 19 583 67 q 375 -28 464 -28 m 396 69 q 510 108 461 69 q 585 210 558 146 q 613 354 613 275 q 585 494 613 433 q 508 590 557 556 q 393 625 458 625 q 247 553 300 625 q 194 357 194 482 q 250 148 194 226 q 396 69 306 69 m 358 1001 l 467 1001 l 608 792 l 507 792 l 413 949 l 318 792 l 217 792 l 358 1001 z "},"Ğ":{"ha":1078,"x_min":74,"x_max":968,"o":"m 843 397 l 474 397 l 474 508 l 968 508 l 968 0 l 843 0 l 843 397 m 864 324 q 838 186 864 250 q 763 74 811 122 q 648 -1 714 26 q 504 -28 582 -28 q 283 30 381 -28 q 129 201 185 88 q 74 486 74 315 q 128 772 74 658 q 284 943 183 886 q 524 1000 385 1000 q 741 959 642 1000 q 910 832 840 918 l 829 751 q 690 856 761 824 q 532 889 619 889 q 352 843 425 889 q 242 706 279 797 q 204 481 204 615 q 240 259 204 347 q 347 127 276 171 q 522 83 418 83 q 699 126 628 83 q 808 245 771 168 q 844 426 844 322 l 864 324 m 446 1278 q 472 1180 450 1214 q 532 1146 494 1146 q 594 1182 571 1146 q 622 1278 618 1218 l 707 1278 q 653 1126 699 1181 q 533 1071 607 1071 q 414 1126 460 1071 q 361 1278 368 1182 l 446 1278 z "},"ğ":{"ha":826,"x_min":69,"x_max":738,"o":"m 400 -306 q 223 -271 297 -306 q 106 -181 149 -236 l 179 -107 q 274 -182 217 -156 q 407 -208 331 -208 q 509 -188 463 -208 q 584 -112 556 -168 q 613 50 613 -57 l 613 694 l 738 694 l 738 72 q 653 -207 738 -108 q 400 -306 568 -306 m 375 -28 q 213 23 282 -28 q 107 161 144 74 q 69 360 69 249 q 104 547 69 465 q 206 676 139 629 q 368 722 272 722 q 574 625 504 722 q 644 351 644 528 q 614 152 644 238 q 524 19 583 67 q 375 -28 464 -28 m 396 69 q 510 108 461 69 q 585 210 558 146 q 613 354 613 275 q 585 494 613 433 q 508 590 557 556 q 393 625 458 625 q 247 553 300 625 q 194 357 194 482 q 250 148 194 226 q 396 69 306 69 m 326 1001 q 353 903 331 938 q 413 869 375 869 q 475 906 451 869 q 503 1001 499 942 l 588 1001 q 533 849 579 904 q 414 794 488 794 q 294 850 340 794 q 242 1001 249 906 l 326 1001 z "},"Ġ":{"ha":1078,"x_min":74,"x_max":968,"o":"m 843 397 l 474 397 l 474 508 l 968 508 l 968 0 l 843 0 l 843 397 m 864 324 q 838 186 864 250 q 763 74 811 122 q 648 -1 714 26 q 504 -28 582 -28 q 283 30 381 -28 q 129 201 185 88 q 74 486 74 315 q 128 772 74 658 q 284 943 183 886 q 524 1000 385 1000 q 741 959 642 1000 q 910 832 840 918 l 829 751 q 690 856 761 824 q 532 889 619 889 q 352 843 425 889 q 242 706 279 797 q 204 481 204 615 q 240 259 204 347 q 347 127 276 171 q 522 83 418 83 q 699 126 628 83 q 808 245 771 168 q 844 426 844 322 l 864 324 m 460 1174 q 468 1206 460 1190 q 493 1233 476 1222 q 533 1243 510 1243 q 588 1222 569 1243 q 606 1174 606 1200 q 588 1124 606 1147 q 533 1101 569 1101 q 493 1113 510 1101 q 468 1140 476 1124 q 460 1174 460 1157 z "},"ġ":{"ha":826,"x_min":69,"x_max":738,"o":"m 400 -306 q 223 -271 297 -306 q 106 -181 149 -236 l 179 -107 q 274 -182 217 -156 q 407 -208 331 -208 q 509 -188 463 -208 q 584 -112 556 -168 q 613 50 613 -57 l 613 694 l 738 694 l 738 72 q 653 -207 738 -108 q 400 -306 568 -306 m 375 -28 q 213 23 282 -28 q 107 161 144 74 q 69 360 69 249 q 104 547 69 465 q 206 676 139 629 q 368 722 272 722 q 574 625 504 722 q 644 351 644 528 q 614 152 644 238 q 524 19 583 67 q 375 -28 464 -28 m 396 69 q 510 108 461 69 q 585 210 558 146 q 613 354 613 275 q 585 494 613 433 q 508 590 557 556 q 393 625 458 625 q 247 553 300 625 q 194 357 194 482 q 250 148 194 226 q 396 69 306 69 m 340 897 q 349 930 340 914 q 374 956 357 946 q 414 967 390 967 q 468 945 450 967 q 486 897 486 924 q 468 848 486 871 q 414 825 450 825 q 374 836 390 825 q 349 864 357 847 q 340 897 340 881 z "},"Ģ":{"ha":1078,"x_min":74,"x_max":968,"o":"m 843 397 l 474 397 l 474 508 l 968 508 l 968 0 l 843 0 l 843 397 m 864 324 q 838 186 864 250 q 763 74 811 122 q 648 -1 714 26 q 504 -28 582 -28 q 283 30 381 -28 q 129 201 185 88 q 74 486 74 315 q 128 772 74 658 q 284 943 183 886 q 524 1000 385 1000 q 741 959 642 1000 q 910 832 840 918 l 829 751 q 690 856 761 824 q 532 889 619 889 q 352 843 425 889 q 242 706 279 797 q 204 481 204 615 q 240 259 204 347 q 347 127 276 171 q 522 83 418 83 q 699 126 628 83 q 808 245 771 168 q 844 426 844 322 l 864 324 m 472 -357 q 538 -297 518 -328 q 560 -215 557 -267 q 543 -228 553 -222 q 521 -233 533 -233 q 481 -217 500 -233 q 463 -172 463 -200 q 481 -125 463 -143 q 528 -107 499 -107 q 582 -133 563 -107 q 601 -203 601 -158 q 569 -310 601 -262 q 483 -375 536 -358 l 472 -357 z "},"ģ":{"ha":826,"x_min":69,"x_max":738,"o":"m 400 -306 q 223 -271 297 -306 q 106 -181 149 -236 l 179 -107 q 274 -182 217 -156 q 407 -208 331 -208 q 509 -188 463 -208 q 584 -112 556 -168 q 613 50 613 -57 l 613 694 l 738 694 l 738 72 q 653 -207 738 -108 q 400 -306 568 -306 m 375 -28 q 213 23 282 -28 q 107 161 144 74 q 69 360 69 249 q 104 547 69 465 q 206 676 139 629 q 368 722 272 722 q 574 625 504 722 q 644 351 644 528 q 614 152 644 238 q 524 19 583 67 q 375 -28 464 -28 m 396 69 q 510 108 461 69 q 585 210 558 146 q 613 354 613 275 q 585 494 613 433 q 508 590 557 556 q 393 625 458 625 q 247 553 300 625 q 194 357 194 482 q 250 148 194 226 q 396 69 306 69 m 467 1089 q 401 1029 421 1060 q 379 947 382 999 q 396 960 386 954 q 418 965 406 965 q 458 949 439 965 q 476 904 476 932 q 458 857 476 875 q 411 839 440 839 q 357 865 376 839 q 338 935 338 890 q 371 1043 338 996 q 456 1107 404 1090 l 467 1089 z "},"Ĥ":{"ha":994,"x_min":121,"x_max":874,"o":"m 121 972 l 246 972 l 246 569 l 749 569 l 749 972 l 874 972 l 874 0 l 749 0 l 749 458 l 246 458 l 246 0 l 121 0 l 121 972 m 443 1278 l 551 1278 l 693 1068 l 592 1068 l 497 1225 l 403 1068 l 301 1068 l 443 1278 z "},"ĥ":{"ha":842,"x_min":-17,"x_max":738,"o":"m 117 1042 l 242 1042 l 242 0 l 117 0 l 117 1042 m 613 408 q 581 576 613 526 q 472 625 550 625 q 300 536 358 625 q 242 301 242 447 l 232 381 l 231 475 q 285 606 247 551 q 380 692 324 661 q 503 722 436 722 q 680 647 622 722 q 738 422 738 572 l 738 0 l 613 0 l 613 408 m 125 1321 l 233 1321 l 375 1111 l 274 1111 l 179 1268 l 85 1111 l -17 1111 l 125 1321 z "},"Ħ":{"ha":1024,"x_min":0,"x_max":1024,"o":"m 136 972 l 261 972 l 261 569 l 764 569 l 764 972 l 889 972 l 889 0 l 764 0 l 764 458 l 261 458 l 261 0 l 136 0 l 136 972 m 0 817 l 1024 817 l 1024 714 l 0 714 l 0 817 z "},"ħ":{"ha":890,"x_min":28,"x_max":760,"o":"m 139 835 l 28 835 l 28 926 l 139 926 l 139 1042 l 264 1042 l 264 926 l 574 926 l 574 835 l 264 835 l 264 489 q 323 599 285 553 q 413 669 361 644 q 525 694 464 694 q 702 619 644 694 q 760 394 760 544 l 760 0 l 635 0 l 635 381 q 603 548 635 499 q 494 597 572 597 q 322 508 381 597 q 264 274 264 419 l 264 0 l 139 0 l 139 835 z "},"Ĩ":{"ha":453,"x_min":1,"x_max":446,"o":"m 164 972 l 289 972 l 289 0 l 164 0 l 164 972 m 307 1113 q 238 1128 265 1113 q 188 1158 211 1143 q 135 1174 164 1174 q 85 1117 90 1174 l 1 1117 q 17 1191 1 1160 q 61 1239 33 1222 q 125 1256 89 1256 q 193 1240 164 1256 q 249 1210 222 1225 q 304 1194 275 1194 q 345 1209 331 1194 q 363 1254 360 1224 l 446 1254 q 405 1151 446 1189 q 307 1113 364 1113 z "},"ĩ":{"ha":378,"x_min":-36,"x_max":408,"o":"m 126 694 l 251 694 l 251 0 l 126 0 l 126 694 m 269 836 q 201 851 228 836 q 150 882 174 867 q 97 897 126 897 q 47 840 53 897 l -36 840 q -20 915 -36 883 q 24 963 -4 946 q 88 979 51 979 q 156 964 126 979 q 211 933 185 949 q 267 918 238 918 q 308 933 293 918 q 325 978 322 947 l 408 978 q 367 874 408 913 q 269 836 326 836 z "},"Ī":{"ha":453,"x_min":6,"x_max":449,"o":"m 164 972 l 289 972 l 289 0 l 164 0 l 164 972 m 6 1203 l 449 1203 l 449 1121 l 6 1121 l 6 1203 z "},"ī":{"ha":378,"x_min":-32,"x_max":411,"o":"m 126 694 l 251 694 l 251 0 l 126 0 l 126 694 m -32 926 l 411 926 l 411 844 l -32 844 l -32 926 z "},"į":{"ha":378,"x_min":56,"x_max":263,"o":"m 126 694 l 251 694 l 251 0 l 126 0 l 126 694 m 117 897 q 125 930 117 914 q 150 956 133 946 q 190 967 167 967 q 244 945 226 967 q 263 897 263 924 q 244 848 263 871 q 190 825 226 825 q 150 836 167 825 q 125 864 133 847 q 117 897 117 881 m 194 -286 q 94 -238 132 -275 q 56 -153 56 -201 q 101 -56 56 -100 q 222 4 146 -11 l 251 0 q 184 -61 208 -22 q 160 -143 160 -100 q 183 -213 160 -185 q 253 -254 207 -242 l 194 -286 z "},"İ":{"ha":453,"x_min":154,"x_max":300,"o":"m 164 972 l 289 972 l 289 0 l 164 0 l 164 972 m 154 1174 q 163 1206 154 1190 q 188 1233 171 1222 q 228 1243 204 1243 q 282 1222 264 1243 q 300 1174 300 1200 q 282 1124 300 1147 q 228 1101 264 1101 q 188 1113 204 1101 q 163 1140 171 1124 q 154 1174 154 1157 z "},"Ĳ":{"ha":1203,"x_min":164,"x_max":1093,"o":"m 164 972 l 289 972 l 289 0 l 164 0 l 164 972 m 556 250 q 666 124 608 164 q 792 83 724 83 q 923 140 878 83 q 968 299 968 197 l 968 972 l 1093 972 l 1093 308 q 1016 58 1093 144 q 799 -28 939 -28 q 619 20 696 -28 q 475 169 542 68 l 556 250 z "},"ĳ":{"ha":781,"x_min":117,"x_max":678,"o":"m 126 694 l 251 694 l 251 0 l 126 0 l 126 694 m 117 897 q 125 930 117 914 q 150 956 133 946 q 190 967 167 967 q 244 945 226 967 q 263 897 263 924 q 244 848 263 871 q 190 825 226 825 q 150 836 167 825 q 125 864 133 847 q 117 897 117 881 m 385 -189 q 438 -204 411 -199 q 481 -210 465 -210 q 528 -182 518 -210 q 539 -82 539 -154 l 539 694 l 664 694 l 664 -94 q 623 -256 664 -204 q 506 -307 582 -307 q 449 -303 469 -307 q 408 -292 428 -299 q 360 -275 389 -285 l 385 -189 m 532 897 q 540 930 532 914 q 565 956 549 946 q 606 967 582 967 q 660 945 642 967 q 678 897 678 924 q 660 848 678 871 q 606 825 642 825 q 565 836 582 825 q 540 864 549 847 q 532 897 532 881 z "},"Ĵ":{"ha":750,"x_min":22,"x_max":776,"o":"m 103 250 q 213 124 156 164 q 339 83 271 83 q 470 140 425 83 q 515 299 515 197 l 515 972 l 640 972 l 640 308 q 563 58 640 144 q 346 -28 486 -28 q 166 20 243 -28 q 22 169 89 68 l 103 250 m 526 1278 l 635 1278 l 776 1068 l 675 1068 l 581 1225 l 486 1068 l 385 1068 l 526 1278 z "},"Ķ":{"ha":931,"x_min":122,"x_max":865,"o":"m 721 0 l 486 442 l 153 442 l 140 554 l 469 554 l 711 972 l 860 972 l 571 510 l 865 0 l 721 0 m 122 0 l 122 972 l 247 972 l 247 0 l 122 0 m 406 -357 q 471 -297 451 -328 q 493 -215 490 -267 q 476 -228 486 -222 q 454 -233 467 -233 q 415 -217 433 -233 q 396 -172 396 -200 q 414 -125 396 -143 q 461 -107 432 -107 q 515 -133 496 -107 q 535 -203 535 -158 q 502 -310 535 -262 q 417 -375 469 -358 l 406 -357 z "},"ķ":{"ha":797,"x_min":93,"x_max":742,"o":"m 93 1042 l 218 1042 l 218 0 l 93 0 l 93 1042 m 103 415 l 461 415 l 590 694 l 722 694 l 547 365 l 742 0 l 600 0 l 456 325 l 113 325 l 103 415 m 325 -357 q 390 -297 371 -328 q 413 -215 410 -267 q 396 -228 406 -222 q 374 -233 386 -233 q 334 -217 353 -233 q 315 -172 315 -200 q 333 -125 315 -143 q 381 -107 351 -107 q 435 -133 415 -107 q 454 -203 454 -158 q 422 -310 454 -262 q 336 -375 389 -358 l 325 -357 z "},"ĸ":{"ha":825,"x_min":117,"x_max":761,"o":"m 117 694 l 242 694 l 242 0 l 117 0 l 117 694 m 122 417 l 488 417 l 629 694 l 742 694 l 567 365 l 761 0 l 619 0 l 463 322 l 132 322 l 122 417 z "},"Ĺ":{"ha":728,"x_min":122,"x_max":700,"o":"m 122 972 l 247 972 l 247 111 l 700 111 l 700 0 l 122 0 l 122 972 m 236 1278 l 375 1278 l 235 1068 l 138 1068 l 236 1278 z "},"ĺ":{"ha":417,"x_min":92,"x_max":394,"o":"m 394 1 q 321 -22 350 -17 q 265 -28 292 -28 q 132 25 172 -28 q 92 183 92 78 l 92 1042 l 217 1042 l 217 196 q 230 97 217 119 q 278 74 243 74 q 324 79 300 74 q 369 94 349 85 l 394 1 m 229 1321 l 368 1321 l 228 1111 l 131 1111 l 229 1321 z "},"Ļ":{"ha":728,"x_min":122,"x_max":700,"o":"m 122 972 l 247 972 l 247 111 l 700 111 l 700 0 l 122 0 l 122 972 m 325 -357 q 390 -297 371 -328 q 413 -215 410 -267 q 396 -228 406 -222 q 374 -233 386 -233 q 334 -217 353 -233 q 315 -172 315 -200 q 333 -125 315 -143 q 381 -107 351 -107 q 435 -133 415 -107 q 454 -203 454 -158 q 422 -310 454 -262 q 336 -375 389 -358 l 325 -357 z "},"ļ":{"ha":417,"x_min":92,"x_max":394,"o":"m 394 1 q 321 -22 350 -17 q 265 -28 292 -28 q 132 25 172 -28 q 92 183 92 78 l 92 1042 l 217 1042 l 217 196 q 230 97 217 119 q 278 74 243 74 q 324 79 300 74 q 369 94 349 85 l 394 1 m 176 -357 q 242 -297 222 -328 q 264 -215 261 -267 q 247 -228 257 -222 q 225 -233 238 -233 q 185 -217 204 -233 q 167 -172 167 -200 q 185 -125 167 -143 q 232 -107 203 -107 q 286 -133 267 -107 q 306 -203 306 -158 q 273 -310 306 -262 q 188 -375 240 -358 l 176 -357 z "},"Ľ":{"ha":728,"x_min":122,"x_max":700,"o":"m 122 972 l 247 972 l 247 111 l 700 111 l 700 0 l 122 0 l 122 972 m 460 972 l 557 972 l 481 750 l 411 750 l 460 972 z "},"ľ":{"ha":417,"x_min":92,"x_max":451,"o":"m 394 1 q 321 -22 350 -17 q 265 -28 292 -28 q 132 25 172 -28 q 92 183 92 78 l 92 1042 l 217 1042 l 217 196 q 230 97 217 119 q 278 74 243 74 q 324 79 300 74 q 369 94 349 85 l 394 1 m 354 1042 l 451 1042 l 375 819 l 306 819 l 354 1042 z "},"Ŀ":{"ha":728,"x_min":122,"x_max":700,"o":"m 122 972 l 247 972 l 247 111 l 700 111 l 700 0 l 122 0 l 122 972 m 511 475 q 449 501 472 475 q 425 561 425 526 q 449 621 425 597 q 511 644 472 644 q 573 621 549 644 q 597 561 597 597 q 573 501 597 526 q 511 475 549 475 z "},"ŀ":{"ha":750,"x_min":119,"x_max":649,"o":"m 422 1 q 349 -22 378 -17 q 293 -28 319 -28 q 160 25 200 -28 q 119 183 119 78 l 119 1042 l 244 1042 l 244 196 q 258 97 244 119 q 306 74 271 74 q 352 79 328 74 q 397 94 376 85 l 422 1 m 563 475 q 500 501 524 475 q 476 561 476 526 q 500 621 476 597 q 563 644 524 644 q 624 621 600 644 q 649 561 649 597 q 624 501 649 526 q 563 475 600 475 z "},"Ł":{"ha":769,"x_min":0,"x_max":686,"o":"m 122 972 l 247 972 l 247 111 l 686 111 l 686 0 l 122 0 l 122 972 m 0 389 l 486 719 l 486 610 l 0 279 l 0 389 z "},"ł":{"ha":486,"x_min":8,"x_max":438,"o":"m 438 3 q 365 -22 393 -15 q 311 -28 338 -28 q 178 25 218 -28 q 138 183 138 78 l 138 1042 l 263 1042 l 263 196 q 276 97 263 119 q 324 74 289 74 q 415 94 369 74 l 438 3 m 8 432 l 406 703 l 406 590 l 8 319 l 8 432 z "},"Ń":{"ha":1017,"x_min":121,"x_max":896,"o":"m 121 972 l 232 972 l 771 203 l 771 972 l 896 972 l 896 0 l 785 0 l 246 769 l 246 0 l 121 0 l 121 972 m 560 1278 l 699 1278 l 558 1068 l 461 1068 l 560 1278 z "},"ń":{"ha":842,"x_min":117,"x_max":738,"o":"m 613 408 q 581 576 613 526 q 472 625 550 625 q 300 536 358 625 q 242 301 242 447 l 228 381 l 225 475 q 281 606 242 551 q 376 692 319 661 q 500 722 432 722 q 679 647 621 722 q 738 422 738 572 l 738 0 l 613 0 l 613 408 m 117 694 l 242 694 l 242 0 l 117 0 l 117 694 m 479 1001 l 618 1001 l 478 792 l 381 792 l 479 1001 z "},"Ņ":{"ha":1017,"x_min":121,"x_max":896,"o":"m 121 972 l 232 972 l 771 203 l 771 972 l 896 972 l 896 0 l 785 0 l 246 769 l 246 0 l 121 0 l 121 972 m 449 -357 q 514 -297 494 -328 q 536 -215 533 -267 q 519 -228 529 -222 q 497 -233 510 -233 q 458 -217 476 -233 q 439 -172 439 -200 q 457 -125 439 -143 q 504 -107 475 -107 q 558 -133 539 -107 q 578 -203 578 -158 q 545 -310 578 -262 q 460 -375 513 -358 l 449 -357 z "},"ņ":{"ha":842,"x_min":117,"x_max":738,"o":"m 613 408 q 581 576 613 526 q 472 625 550 625 q 300 536 358 625 q 242 301 242 447 l 228 381 l 225 475 q 281 606 242 551 q 376 692 319 661 q 500 722 432 722 q 679 647 621 722 q 738 422 738 572 l 738 0 l 613 0 l 613 408 m 117 694 l 242 694 l 242 0 l 117 0 l 117 694 m 368 -357 q 433 -297 414 -328 q 456 -215 453 -267 q 439 -228 449 -222 q 417 -233 429 -233 q 377 -217 396 -233 q 358 -172 358 -200 q 376 -125 358 -143 q 424 -107 394 -107 q 478 -133 458 -107 q 497 -203 497 -158 q 465 -310 497 -262 q 379 -375 432 -358 l 368 -357 z "},"Ň":{"ha":1017,"x_min":121,"x_max":896,"o":"m 121 972 l 232 972 l 771 203 l 771 972 l 896 972 l 896 0 l 785 0 l 246 769 l 246 0 l 121 0 l 121 972 m 313 1278 l 414 1278 l 508 1121 l 603 1278 l 704 1278 l 563 1068 l 454 1068 l 313 1278 z "},"ň":{"ha":842,"x_min":117,"x_max":738,"o":"m 613 408 q 581 576 613 526 q 472 625 550 625 q 300 536 358 625 q 242 301 242 447 l 228 381 l 225 475 q 281 606 242 551 q 376 692 319 661 q 500 722 432 722 q 679 647 621 722 q 738 422 738 572 l 738 0 l 613 0 l 613 408 m 117 694 l 242 694 l 242 0 l 117 0 l 117 694 m 232 1001 l 333 1001 l 428 844 l 522 1001 l 624 1001 l 482 792 l 374 792 l 232 1001 z "},"ŉ":{"ha":842,"x_min":-1,"x_max":738,"o":"m 613 408 q 581 576 613 526 q 472 625 550 625 q 300 536 358 625 q 242 301 242 447 l 228 381 l 225 475 q 281 606 242 551 q 376 692 319 661 q 500 722 432 722 q 679 647 621 722 q 738 422 738 572 l 738 0 l 613 0 l 613 408 m 117 694 l 242 694 l 242 0 l 117 0 l 117 694 m -1 1101 l 121 1101 l 100 772 l 19 772 l -1 1101 z "},"Ō":{"ha":1076,"x_min":74,"x_max":1003,"o":"m 538 -28 q 298 31 403 -28 q 133 205 193 90 q 74 486 74 319 q 132 765 74 650 q 295 940 190 879 q 539 1000 400 1000 q 788 937 683 1000 q 947 758 892 874 q 1003 486 1003 643 q 943 203 1003 318 q 778 31 883 89 q 538 -28 674 -28 m 542 83 q 719 132 646 83 q 833 271 793 181 q 872 486 872 361 q 788 788 872 688 q 533 889 703 889 q 290 782 376 889 q 204 486 204 675 q 292 185 204 286 q 542 83 379 83 m 318 1203 l 761 1203 l 761 1121 l 318 1121 l 318 1203 z "},"ō":{"ha":803,"x_min":64,"x_max":739,"o":"m 393 -28 q 214 17 288 -28 q 102 147 140 61 q 64 354 64 232 q 102 552 64 469 q 215 678 140 635 q 394 722 289 722 q 652 625 565 722 q 739 354 739 528 q 651 72 739 171 q 393 -28 564 -28 m 396 69 q 560 139 507 69 q 614 351 614 208 q 560 556 614 488 q 399 625 507 625 q 240 559 292 625 q 189 354 189 493 q 240 141 189 213 q 396 69 292 69 m 181 926 l 624 926 l 624 844 l 181 844 l 181 926 z "},"Ŏ":{"ha":1076,"x_min":74,"x_max":1003,"o":"m 538 -28 q 298 31 403 -28 q 133 205 193 90 q 74 486 74 319 q 132 765 74 650 q 295 940 190 879 q 539 1000 400 1000 q 788 937 683 1000 q 947 758 892 874 q 1003 486 1003 643 q 943 203 1003 318 q 778 31 883 89 q 538 -28 674 -28 m 542 83 q 719 132 646 83 q 833 271 793 181 q 872 486 872 361 q 788 788 872 688 q 533 889 703 889 q 290 782 376 889 q 204 486 204 675 q 292 185 204 286 q 542 83 379 83 m 453 1278 q 479 1180 457 1214 q 539 1146 501 1146 q 601 1182 578 1146 q 629 1278 625 1218 l 714 1278 q 660 1126 706 1181 q 540 1071 614 1071 q 421 1126 467 1071 q 368 1278 375 1182 l 453 1278 z "},"ŏ":{"ha":803,"x_min":64,"x_max":739,"o":"m 393 -28 q 214 17 288 -28 q 102 147 140 61 q 64 354 64 232 q 102 552 64 469 q 215 678 140 635 q 394 722 289 722 q 652 625 565 722 q 739 354 739 528 q 651 72 739 171 q 393 -28 564 -28 m 396 69 q 560 139 507 69 q 614 351 614 208 q 560 556 614 488 q 399 625 507 625 q 240 559 292 625 q 189 354 189 493 q 240 141 189 213 q 396 69 292 69 m 315 1001 q 342 903 319 938 q 401 869 364 869 q 464 906 440 869 q 492 1001 488 942 l 576 1001 q 522 849 568 904 q 403 794 476 794 q 283 850 329 794 q 231 1001 238 906 l 315 1001 z "},"Ő":{"ha":1076,"x_min":74,"x_max":1003,"o":"m 538 -28 q 298 31 403 -28 q 133 205 193 90 q 74 486 74 319 q 132 765 74 650 q 295 940 190 879 q 539 1000 400 1000 q 788 937 683 1000 q 947 758 892 874 q 1003 486 1003 643 q 943 203 1003 318 q 778 31 883 89 q 538 -28 674 -28 m 542 83 q 719 132 646 83 q 833 271 793 181 q 872 486 872 361 q 788 788 872 688 q 533 889 703 889 q 290 782 376 889 q 204 486 204 675 q 292 185 204 286 q 542 83 379 83 m 701 1276 l 828 1276 l 689 1069 l 618 1069 l 701 1276 m 465 1276 l 592 1276 l 453 1069 l 382 1069 l 465 1276 z "},"ő":{"ha":803,"x_min":64,"x_max":739,"o":"m 393 -28 q 214 17 288 -28 q 102 147 140 61 q 64 354 64 232 q 102 552 64 469 q 215 678 140 635 q 394 722 289 722 q 652 625 565 722 q 739 354 739 528 q 651 72 739 171 q 393 -28 564 -28 m 396 69 q 560 139 507 69 q 614 351 614 208 q 560 556 614 488 q 399 625 507 625 q 240 559 292 625 q 189 354 189 493 q 240 141 189 213 q 396 69 292 69 m 564 1000 l 690 1000 l 551 793 l 481 793 l 564 1000 m 328 1000 l 454 1000 l 315 793 l 244 793 l 328 1000 z "},"Œ":{"ha":1344,"x_min":88,"x_max":1253,"o":"m 1253 111 l 1253 0 l 554 0 q 310 61 415 0 q 147 232 206 122 q 88 486 88 342 q 147 740 88 631 q 311 910 206 849 q 554 972 417 972 l 1233 972 l 1233 861 l 821 861 l 821 563 l 1197 563 l 1197 451 l 821 451 l 821 111 l 1253 111 m 694 861 l 567 861 q 310 761 403 861 q 218 485 218 661 q 260 285 218 368 q 379 156 301 201 q 567 111 457 111 l 694 111 l 694 861 z "},"œ":{"ha":1303,"x_min":71,"x_max":1226,"o":"m 918 -28 q 743 15 818 -28 q 626 141 668 57 q 583 349 583 225 q 624 554 583 471 q 739 680 665 638 q 911 722 813 722 q 1083 677 1013 722 q 1190 544 1153 632 q 1226 329 1226 457 l 703 329 q 756 143 703 217 q 918 69 808 69 q 1035 96 982 69 q 1124 171 1088 122 l 1194 97 q 1083 7 1154 42 q 918 -28 1013 -28 m 378 -28 q 210 17 279 -28 q 106 147 142 61 q 71 354 71 232 q 106 552 71 469 q 211 678 142 635 q 379 722 281 722 q 620 625 539 722 q 701 354 701 528 q 619 72 701 171 q 378 -28 538 -28 m 381 69 q 533 139 483 69 q 582 351 582 208 q 533 556 582 488 q 383 625 483 625 q 236 559 283 625 q 189 354 189 493 q 381 69 189 69 m 708 411 l 1103 411 q 1043 572 1093 518 q 910 625 993 625 q 773 572 828 625 q 708 411 718 518 z "},"Ŕ":{"ha":900,"x_min":122,"x_max":843,"o":"m 122 972 l 483 972 q 729 892 640 972 q 818 672 818 813 q 776 509 818 578 q 659 403 735 440 q 478 367 583 367 l 139 367 l 139 478 l 471 478 q 643 521 593 478 q 693 669 693 564 q 643 818 693 775 q 472 861 593 861 l 247 861 l 247 0 l 122 0 l 122 972 m 504 390 l 607 463 l 843 0 l 703 0 l 504 390 m 501 1278 l 640 1278 l 500 1068 l 403 1068 l 501 1278 z "},"ŕ":{"ha":569,"x_min":117,"x_max":508,"o":"m 117 694 l 242 694 l 242 535 q 294 632 260 590 q 381 697 328 674 q 504 722 433 721 l 504 625 q 376 597 426 625 q 296 524 325 569 q 254 423 267 478 q 242 314 242 368 l 242 0 l 117 0 l 117 694 m 369 1001 l 508 1001 l 368 792 l 271 792 l 369 1001 z "},"Ŗ":{"ha":900,"x_min":122,"x_max":843,"o":"m 122 972 l 483 972 q 729 892 640 972 q 818 672 818 813 q 776 509 818 578 q 659 403 735 440 q 478 367 583 367 l 139 367 l 139 478 l 471 478 q 643 521 593 478 q 693 669 693 564 q 643 818 693 775 q 472 861 593 861 l 247 861 l 247 0 l 122 0 l 122 972 m 504 390 l 607 463 l 843 0 l 703 0 l 504 390 m 390 -357 q 456 -297 436 -328 q 478 -215 475 -267 q 461 -228 471 -222 q 439 -233 451 -233 q 399 -217 418 -233 q 381 -172 381 -200 q 399 -125 381 -143 q 446 -107 417 -107 q 500 -133 481 -107 q 519 -203 519 -158 q 487 -310 519 -262 q 401 -375 454 -358 l 390 -357 z "},"ŗ":{"ha":569,"x_min":106,"x_max":504,"o":"m 117 694 l 242 694 l 242 535 q 294 632 260 590 q 381 697 328 674 q 504 722 433 721 l 504 625 q 376 597 426 625 q 296 524 325 569 q 254 423 267 478 q 242 314 242 368 l 242 0 l 117 0 l 117 694 m 115 -357 q 181 -297 161 -328 q 203 -215 200 -267 q 186 -228 196 -222 q 164 -233 176 -233 q 124 -217 143 -233 q 106 -172 106 -200 q 124 -125 106 -143 q 171 -107 142 -107 q 225 -133 206 -107 q 244 -203 244 -158 q 212 -310 244 -262 q 126 -375 179 -358 l 115 -357 z "},"Ř":{"ha":900,"x_min":122,"x_max":843,"o":"m 122 972 l 483 972 q 729 892 640 972 q 818 672 818 813 q 776 509 818 578 q 659 403 735 440 q 478 367 583 367 l 139 367 l 139 478 l 471 478 q 643 521 593 478 q 693 669 693 564 q 643 818 693 775 q 472 861 593 861 l 247 861 l 247 0 l 122 0 l 122 972 m 504 390 l 607 463 l 843 0 l 703 0 l 504 390 m 254 1278 l 356 1278 l 450 1121 l 544 1278 l 646 1278 l 504 1068 l 396 1068 l 254 1278 z "},"ř":{"ha":569,"x_min":117,"x_max":514,"o":"m 117 694 l 242 694 l 242 535 q 294 632 260 590 q 381 697 328 674 q 504 722 433 721 l 504 625 q 376 597 426 625 q 296 524 325 569 q 254 423 267 478 q 242 314 242 368 l 242 0 l 117 0 l 117 694 m 122 1001 l 224 1001 l 318 844 l 413 1001 l 514 1001 l 372 792 l 264 792 l 122 1001 z "},"Ś":{"ha":833,"x_min":67,"x_max":751,"o":"m 147 221 q 276 119 208 154 q 425 83 343 83 q 529 101 483 83 q 601 156 575 119 q 626 244 626 192 q 603 329 626 293 q 528 391 579 365 q 400 433 478 417 q 263 478 322 450 q 163 544 203 506 q 101 630 122 582 q 81 736 81 678 q 119 876 81 817 q 229 968 158 936 q 394 1000 300 1000 q 588 958 501 1000 q 739 832 674 915 l 658 751 q 531 853 597 818 q 390 889 465 889 q 294 871 336 889 q 229 818 253 853 q 206 732 206 783 q 226 653 206 689 q 297 589 247 617 q 435 542 347 561 q 576 494 517 522 q 674 428 635 465 q 733 344 714 390 q 751 242 751 297 q 707 92 751 153 q 587 2 663 32 q 418 -28 511 -28 q 219 15 307 -28 q 67 140 132 57 l 147 221 m 449 1278 l 588 1278 l 447 1068 l 350 1068 l 449 1278 z "},"ś":{"ha":676,"x_min":82,"x_max":614,"o":"m 156 171 q 242 97 192 125 q 356 69 293 69 q 453 96 417 69 q 489 167 489 122 q 451 240 489 208 q 329 294 414 272 q 154 383 213 325 q 96 519 96 440 q 126 622 96 576 q 210 695 156 668 q 338 722 264 722 q 493 686 425 722 q 601 597 561 650 l 528 524 q 444 597 493 569 q 343 625 394 625 q 256 598 292 625 q 221 524 221 571 q 260 443 221 479 q 399 381 300 407 q 557 303 500 351 q 614 181 614 256 q 579 74 614 121 q 485 -1 544 26 q 349 -28 425 -28 q 191 9 260 -28 q 82 97 122 46 l 156 171 m 389 1001 l 528 1001 l 388 792 l 290 792 l 389 1001 z "},"Ŝ":{"ha":833,"x_min":67,"x_max":751,"o":"m 147 221 q 276 119 208 154 q 425 83 343 83 q 529 101 483 83 q 601 156 575 119 q 626 244 626 192 q 603 329 626 293 q 528 391 579 365 q 400 433 478 417 q 263 478 322 450 q 163 544 203 506 q 101 630 122 582 q 81 736 81 678 q 119 876 81 817 q 229 968 158 936 q 394 1000 300 1000 q 588 958 501 1000 q 739 832 674 915 l 658 751 q 531 853 597 818 q 390 889 465 889 q 294 871 336 889 q 229 818 253 853 q 206 732 206 783 q 226 653 206 689 q 297 589 247 617 q 435 542 347 561 q 576 494 517 522 q 674 428 635 465 q 733 344 714 390 q 751 242 751 297 q 707 92 751 153 q 587 2 663 32 q 418 -28 511 -28 q 219 15 307 -28 q 67 140 132 57 l 147 221 m 343 1278 l 451 1278 l 593 1068 l 492 1068 l 397 1225 l 303 1068 l 201 1068 l 343 1278 z "},"ŝ":{"ha":676,"x_min":82,"x_max":614,"o":"m 156 171 q 242 97 192 125 q 356 69 293 69 q 453 96 417 69 q 489 167 489 122 q 451 240 489 208 q 329 294 414 272 q 154 383 213 325 q 96 519 96 440 q 126 622 96 576 q 210 695 156 668 q 338 722 264 722 q 493 686 425 722 q 601 597 561 650 l 528 524 q 444 597 493 569 q 343 625 394 625 q 256 598 292 625 q 221 524 221 571 q 260 443 221 479 q 399 381 300 407 q 557 303 500 351 q 614 181 614 256 q 579 74 614 121 q 485 -1 544 26 q 349 -28 425 -28 q 191 9 260 -28 q 82 97 122 46 l 156 171 m 283 1001 l 392 1001 l 533 792 l 432 792 l 338 949 l 243 792 l 142 792 l 283 1001 z "},"ş":{"ha":676,"x_min":72,"x_max":604,"o":"m 146 171 q 233 97 182 125 q 346 69 283 69 q 443 96 407 69 q 479 167 479 122 q 442 240 479 208 q 319 294 404 272 q 144 383 203 325 q 86 519 86 440 q 116 622 86 576 q 200 695 146 668 q 328 722 254 722 q 483 686 415 722 q 592 597 551 650 l 518 524 q 434 597 483 569 q 333 625 385 625 q 247 598 282 625 q 211 524 211 571 q 251 443 211 479 q 389 381 290 407 q 547 303 490 351 q 604 181 604 256 q 569 74 604 121 q 475 -1 535 26 q 339 -28 415 -28 q 181 9 250 -28 q 72 97 113 46 l 146 171 m 211 -237 q 251 -248 229 -243 q 297 -253 274 -253 q 362 -235 342 -253 q 382 -183 382 -218 q 361 -131 382 -147 q 304 -114 340 -114 q 278 -115 290 -114 q 250 -119 265 -117 l 326 21 l 406 21 l 343 -89 q 440 -115 404 -89 q 476 -190 476 -142 q 431 -274 476 -244 q 301 -303 385 -303 q 234 -297 261 -303 q 185 -285 207 -290 l 211 -237 z "},"Š":{"ha":833,"x_min":67,"x_max":751,"o":"m 147 221 q 276 119 208 154 q 425 83 343 83 q 529 101 483 83 q 601 156 575 119 q 626 244 626 192 q 603 329 626 293 q 528 391 579 365 q 400 433 478 417 q 263 478 322 450 q 163 544 203 506 q 101 630 122 582 q 81 736 81 678 q 119 876 81 817 q 229 968 158 936 q 394 1000 300 1000 q 588 958 501 1000 q 739 832 674 915 l 658 751 q 531 853 597 818 q 390 889 465 889 q 294 871 336 889 q 229 818 253 853 q 206 732 206 783 q 226 653 206 689 q 297 589 247 617 q 435 542 347 561 q 576 494 517 522 q 674 428 635 465 q 733 344 714 390 q 751 242 751 297 q 707 92 751 153 q 587 2 663 32 q 418 -28 511 -28 q 219 15 307 -28 q 67 140 132 57 l 147 221 m 201 1278 l 303 1278 l 397 1121 l 492 1278 l 593 1278 l 451 1068 l 343 1068 l 201 1278 z "},"š":{"ha":676,"x_min":82,"x_max":614,"o":"m 156 171 q 242 97 192 125 q 356 69 293 69 q 453 96 417 69 q 489 167 489 122 q 451 240 489 208 q 329 294 414 272 q 154 383 213 325 q 96 519 96 440 q 126 622 96 576 q 210 695 156 668 q 338 722 264 722 q 493 686 425 722 q 601 597 561 650 l 528 524 q 444 597 493 569 q 343 625 394 625 q 256 598 292 625 q 221 524 221 571 q 260 443 221 479 q 399 381 300 407 q 557 303 500 351 q 614 181 614 256 q 579 74 614 121 q 485 -1 544 26 q 349 -28 425 -28 q 191 9 260 -28 q 82 97 122 46 l 156 171 m 142 1001 l 243 1001 l 338 844 l 432 1001 l 533 1001 l 392 792 l 283 792 l 142 1001 z "},"ţ":{"ha":549,"x_min":18,"x_max":485,"o":"m 485 8 q 400 -22 432 -15 q 340 -28 368 -28 q 207 25 247 -28 q 167 183 167 78 l 167 861 l 292 861 l 292 196 q 305 97 292 119 q 353 74 318 74 q 408 81 379 74 q 460 101 438 89 l 485 8 m 18 694 l 479 694 l 479 597 l 18 597 l 18 694 m 171 -237 q 211 -248 189 -243 q 257 -253 233 -253 q 322 -235 301 -253 q 342 -183 342 -218 q 321 -131 342 -147 q 264 -114 300 -114 q 238 -115 250 -114 q 210 -119 225 -117 l 286 21 l 365 21 l 303 -89 q 400 -115 364 -89 q 436 -190 436 -142 q 390 -274 436 -244 q 261 -303 344 -303 q 194 -297 221 -303 q 144 -285 167 -290 l 171 -237 z "},"Ť":{"ha":869,"x_min":42,"x_max":828,"o":"m 372 861 l 42 861 l 42 972 l 828 972 l 828 861 l 497 861 l 497 0 l 372 0 l 372 861 m 239 1278 l 340 1278 l 435 1121 l 529 1278 l 631 1278 l 489 1068 l 381 1068 l 239 1278 z "},"ť":{"ha":549,"x_min":18,"x_max":499,"o":"m 485 8 q 400 -22 432 -15 q 340 -28 368 -28 q 207 25 247 -28 q 167 183 167 78 l 167 861 l 292 861 l 292 196 q 305 97 292 119 q 353 74 318 74 q 408 81 379 74 q 460 101 438 89 l 485 8 m 18 694 l 479 694 l 479 597 l 18 597 l 18 694 m 401 972 l 499 972 l 422 750 l 353 750 l 401 972 z "},"Ŧ":{"ha":900,"x_min":57,"x_max":843,"o":"m 388 861 l 57 861 l 57 972 l 843 972 l 843 861 l 513 861 l 513 0 l 388 0 l 388 861 m 103 533 l 797 533 l 797 433 l 103 433 l 103 533 z "},"ŧ":{"ha":549,"x_min":18,"x_max":485,"o":"m 485 8 q 400 -22 432 -15 q 340 -28 368 -28 q 207 25 247 -28 q 167 183 167 78 l 167 861 l 292 861 l 292 196 q 305 97 292 119 q 353 74 318 74 q 408 81 379 74 q 460 101 438 89 l 485 8 m 18 694 l 479 694 l 479 597 l 18 597 l 18 694 m 32 426 l 476 426 l 476 335 l 32 335 l 32 426 z "},"Ũ":{"ha":938,"x_min":111,"x_max":826,"o":"m 236 972 l 236 367 q 298 150 236 217 q 468 83 360 83 q 640 151 578 83 q 701 367 701 218 l 701 972 l 826 972 l 826 364 q 784 156 826 244 q 662 20 742 68 q 467 -28 582 -28 q 273 20 353 -28 q 152 156 193 68 q 111 364 111 243 l 111 972 l 236 972 m 550 1113 q 481 1128 508 1113 q 431 1158 454 1143 q 378 1174 407 1174 q 328 1117 333 1174 l 244 1117 q 260 1191 244 1160 q 304 1239 276 1222 q 368 1256 332 1256 q 436 1240 407 1256 q 492 1210 465 1225 q 547 1194 518 1194 q 588 1209 574 1194 q 606 1254 603 1224 l 689 1254 q 648 1151 689 1189 q 550 1113 607 1113 z "},"ũ":{"ha":806,"x_min":106,"x_max":699,"o":"m 231 694 l 231 256 q 278 113 231 156 q 404 69 325 69 q 529 114 485 69 q 574 256 574 158 l 574 694 l 699 694 l 699 257 q 664 110 699 174 q 563 9 629 46 q 403 -28 497 -28 q 243 8 310 -28 q 141 108 176 43 q 106 257 106 172 l 106 694 l 231 694 m 483 836 q 415 851 442 836 q 364 882 388 867 q 311 897 340 897 q 261 840 267 897 l 178 840 q 194 915 178 883 q 238 963 210 946 q 301 979 265 979 q 369 964 340 979 q 425 933 399 949 q 481 918 451 918 q 522 933 507 918 q 539 978 536 947 l 622 978 q 581 874 622 913 q 483 836 540 836 z "},"Ū":{"ha":938,"x_min":111,"x_max":826,"o":"m 236 972 l 236 367 q 298 150 236 217 q 468 83 360 83 q 640 151 578 83 q 701 367 701 218 l 701 972 l 826 972 l 826 364 q 784 156 826 244 q 662 20 742 68 q 467 -28 582 -28 q 273 20 353 -28 q 152 156 193 68 q 111 364 111 243 l 111 972 l 236 972 m 249 1203 l 692 1203 l 692 1121 l 249 1121 l 249 1203 z "},"ū":{"ha":806,"x_min":106,"x_max":699,"o":"m 231 694 l 231 256 q 278 113 231 156 q 404 69 325 69 q 529 114 485 69 q 574 256 574 158 l 574 694 l 699 694 l 699 257 q 664 110 699 174 q 563 9 629 46 q 403 -28 497 -28 q 243 8 310 -28 q 141 108 176 43 q 106 257 106 172 l 106 694 l 231 694 m 182 926 l 625 926 l 625 844 l 182 844 l 182 926 z "},"Ŭ":{"ha":938,"x_min":111,"x_max":826,"o":"m 236 972 l 236 367 q 298 150 236 217 q 468 83 360 83 q 640 151 578 83 q 701 367 701 218 l 701 972 l 826 972 l 826 364 q 784 156 826 244 q 662 20 742 68 q 467 -28 582 -28 q 273 20 353 -28 q 152 156 193 68 q 111 364 111 243 l 111 972 l 236 972 m 383 1278 q 410 1180 388 1214 q 469 1146 432 1146 q 532 1182 508 1146 q 560 1278 556 1218 l 644 1278 q 590 1126 636 1181 q 471 1071 544 1071 q 351 1126 397 1071 q 299 1278 306 1182 l 383 1278 z "},"ŭ":{"ha":806,"x_min":106,"x_max":699,"o":"m 231 694 l 231 256 q 278 113 231 156 q 404 69 325 69 q 529 114 485 69 q 574 256 574 158 l 574 694 l 699 694 l 699 257 q 664 110 699 174 q 563 9 629 46 q 403 -28 497 -28 q 243 8 310 -28 q 141 108 176 43 q 106 257 106 172 l 106 694 l 231 694 m 317 1001 q 343 903 321 938 q 403 869 365 869 q 465 906 442 869 q 493 1001 489 942 l 578 1001 q 524 849 569 904 q 404 794 478 794 q 285 850 331 794 q 232 1001 239 906 l 317 1001 z "},"Ů":{"ha":938,"x_min":111,"x_max":826,"o":"m 236 972 l 236 367 q 298 150 236 217 q 468 83 360 83 q 640 151 578 83 q 701 367 701 218 l 701 972 l 826 972 l 826 364 q 784 156 826 244 q 662 20 742 68 q 467 -28 582 -28 q 273 20 353 -28 q 152 156 193 68 q 111 364 111 243 l 111 972 l 236 972 m 469 1042 q 364 1078 401 1042 q 326 1175 326 1114 q 364 1271 326 1235 q 469 1307 401 1307 q 575 1271 538 1307 q 613 1175 613 1235 q 575 1078 613 1114 q 469 1042 538 1042 m 469 1099 q 528 1119 506 1099 q 550 1175 550 1139 q 528 1230 550 1210 q 469 1250 506 1250 q 412 1230 435 1250 q 389 1175 389 1210 q 412 1119 389 1139 q 469 1099 435 1099 z "},"ů":{"ha":806,"x_min":106,"x_max":699,"o":"m 231 694 l 231 256 q 278 113 231 156 q 404 69 325 69 q 529 114 485 69 q 574 256 574 158 l 574 694 l 699 694 l 699 257 q 664 110 699 174 q 563 9 629 46 q 403 -28 497 -28 q 243 8 310 -28 q 141 108 176 43 q 106 257 106 172 l 106 694 l 231 694 m 403 765 q 297 801 335 765 q 260 899 260 838 q 297 994 260 958 q 403 1031 335 1031 q 508 994 471 1031 q 546 899 546 958 q 508 801 546 838 q 403 765 471 765 m 403 822 q 461 842 439 822 q 483 899 483 863 q 461 953 483 933 q 403 974 439 974 q 345 953 368 974 q 322 899 322 933 q 345 842 322 863 q 403 822 368 822 z "},"Ű":{"ha":938,"x_min":111,"x_max":826,"o":"m 236 972 l 236 367 q 298 150 236 217 q 468 83 360 83 q 640 151 578 83 q 701 367 701 218 l 701 972 l 826 972 l 826 364 q 784 156 826 244 q 662 20 742 68 q 467 -28 582 -28 q 273 20 353 -28 q 152 156 193 68 q 111 364 111 243 l 111 972 l 236 972 m 632 1276 l 758 1276 l 619 1069 l 549 1069 l 632 1276 m 396 1276 l 522 1276 l 383 1069 l 313 1069 l 396 1276 z "},"ű":{"ha":806,"x_min":106,"x_max":699,"o":"m 231 694 l 231 256 q 278 113 231 156 q 404 69 325 69 q 529 114 485 69 q 574 256 574 158 l 574 694 l 699 694 l 699 257 q 664 110 699 174 q 563 9 629 46 q 403 -28 497 -28 q 243 8 310 -28 q 141 108 176 43 q 106 257 106 172 l 106 694 l 231 694 m 565 1000 l 692 1000 l 553 793 l 482 793 l 565 1000 m 329 1000 l 456 1000 l 317 793 l 246 793 l 329 1000 z "},"ų":{"ha":806,"x_min":106,"x_max":699,"o":"m 231 694 l 231 256 q 278 113 231 156 q 404 69 325 69 q 529 114 485 69 q 574 256 574 158 l 574 694 l 699 694 l 699 257 q 664 110 699 174 q 563 9 629 46 q 403 -28 497 -28 q 243 8 310 -28 q 141 108 176 43 q 106 257 106 172 l 106 694 l 231 694 m 488 -286 q 387 -238 425 -275 q 349 -153 349 -201 q 394 -56 349 -100 q 515 4 439 -11 l 544 0 q 477 -61 501 -22 q 453 -143 453 -100 q 476 -213 453 -185 q 546 -254 500 -242 l 488 -286 z "},"Ŵ":{"ha":1333,"x_min":38,"x_max":1297,"o":"m 38 972 l 169 972 l 422 0 l 317 0 l 38 972 m 614 972 l 696 972 l 474 0 l 378 0 l 614 972 m 639 972 l 721 972 l 957 0 l 861 0 l 639 972 m 1165 972 l 1297 972 l 1018 0 l 913 0 l 1165 972 m 613 1278 l 721 1278 l 863 1068 l 761 1068 l 667 1225 l 572 1068 l 471 1068 l 613 1278 z "},"ŵ":{"ha":1186,"x_min":51,"x_max":1135,"o":"m 51 694 l 189 694 l 367 150 l 538 694 l 649 694 l 819 150 l 997 694 l 1135 694 l 882 0 l 763 0 l 593 561 l 424 0 l 304 0 l 51 694 m 539 1001 l 647 1001 l 789 792 l 688 792 l 593 949 l 499 792 l 397 792 l 539 1001 z "},"Ŷ":{"ha":892,"x_min":44,"x_max":847,"o":"m 383 411 l 44 972 l 188 972 l 446 535 l 704 972 l 847 972 l 508 411 l 508 0 l 383 0 l 383 411 m 392 1278 l 500 1278 l 642 1068 l 540 1068 l 446 1225 l 351 1068 l 250 1068 l 392 1278 z "},"ŷ":{"ha":731,"x_min":28,"x_max":703,"o":"m 94 -189 q 151 -204 121 -199 q 199 -210 181 -210 q 251 -194 229 -210 q 288 -151 272 -179 q 318 -81 304 -122 l 571 694 l 703 694 l 426 -108 q 378 -217 404 -172 q 314 -284 351 -261 q 219 -307 276 -307 q 157 -303 181 -307 q 113 -292 133 -299 q 64 -275 93 -285 l 94 -189 m 28 694 l 160 694 l 385 0 l 267 0 l 28 694 m 311 1001 l 419 1001 l 561 792 l 460 792 l 365 949 l 271 792 l 169 792 l 311 1001 z "},"Ÿ":{"ha":892,"x_min":44,"x_max":847,"o":"m 383 411 l 44 972 l 188 972 l 446 535 l 704 972 l 847 972 l 508 411 l 508 0 l 383 0 l 383 411 m 238 1172 q 255 1217 238 1196 q 306 1238 272 1238 q 355 1217 338 1238 q 372 1172 372 1197 q 355 1128 372 1149 q 306 1107 338 1107 q 268 1117 283 1107 q 245 1142 253 1126 q 238 1172 238 1157 m 518 1172 q 536 1217 518 1196 q 586 1238 554 1238 q 636 1217 619 1238 q 653 1172 653 1197 q 636 1128 653 1149 q 586 1107 619 1107 q 550 1117 565 1107 q 526 1142 535 1126 q 518 1172 518 1157 z "},"Ź":{"ha":801,"x_min":53,"x_max":744,"o":"m 53 104 l 596 861 l 92 861 l 92 972 l 742 972 l 742 868 l 199 111 l 744 111 l 744 0 l 53 0 l 53 104 m 464 1278 l 603 1278 l 463 1068 l 365 1068 l 464 1278 z "},"ź":{"ha":657,"x_min":46,"x_max":611,"o":"m 46 83 l 465 597 l 74 597 l 74 694 l 611 694 l 611 611 l 192 97 l 611 97 l 611 0 l 46 0 l 46 83 m 393 1001 l 532 1001 l 392 792 l 294 792 l 393 1001 z "},"Ż":{"ha":801,"x_min":53,"x_max":744,"o":"m 53 104 l 596 861 l 92 861 l 92 972 l 742 972 l 742 868 l 199 111 l 744 111 l 744 0 l 53 0 l 53 104 m 340 1174 q 349 1206 340 1190 q 374 1233 357 1222 q 414 1243 390 1243 q 468 1222 450 1243 q 486 1174 486 1200 q 468 1124 486 1147 q 414 1101 450 1101 q 374 1113 390 1101 q 349 1140 357 1124 q 340 1174 340 1157 z "},"ż":{"ha":657,"x_min":46,"x_max":611,"o":"m 46 83 l 465 597 l 74 597 l 74 694 l 611 694 l 611 611 l 192 97 l 611 97 l 611 0 l 46 0 l 46 83 m 269 897 q 278 930 269 914 q 303 956 286 946 q 343 967 319 967 q 397 945 379 967 q 415 897 415 924 q 397 848 415 871 q 343 825 379 825 q 303 836 319 825 q 278 864 286 847 q 269 897 269 881 z "},"Ž":{"ha":801,"x_min":53,"x_max":744,"o":"m 53 104 l 596 861 l 92 861 l 92 972 l 742 972 l 742 868 l 199 111 l 744 111 l 744 0 l 53 0 l 53 104 m 217 1278 l 318 1278 l 413 1121 l 507 1278 l 608 1278 l 467 1068 l 358 1068 l 217 1278 z "},"ž":{"ha":657,"x_min":46,"x_max":611,"o":"m 46 83 l 465 597 l 74 597 l 74 694 l 611 694 l 611 611 l 192 97 l 611 97 l 611 0 l 46 0 l 46 83 m 146 1001 l 247 1001 l 342 844 l 436 1001 l 538 1001 l 396 792 l 288 792 l 146 1001 z "},"Ș":{"ha":833,"x_min":67,"x_max":751,"o":"m 147 221 q 276 119 208 154 q 425 83 343 83 q 529 101 483 83 q 601 156 575 119 q 626 244 626 192 q 603 329 626 293 q 528 391 579 365 q 400 433 478 417 q 263 478 322 450 q 163 544 203 506 q 101 630 122 582 q 81 736 81 678 q 119 876 81 817 q 229 968 158 936 q 394 1000 300 1000 q 588 958 501 1000 q 739 832 674 915 l 658 751 q 531 853 597 818 q 390 889 465 889 q 294 871 336 889 q 229 818 253 853 q 206 732 206 783 q 226 653 206 689 q 297 589 247 617 q 435 542 347 561 q 576 494 517 522 q 674 428 635 465 q 733 344 714 390 q 751 242 751 297 q 707 92 751 153 q 587 2 663 32 q 418 -28 511 -28 q 219 15 307 -28 q 67 140 132 57 l 147 221 m 357 -357 q 422 -297 403 -328 q 444 -215 442 -267 q 428 -228 438 -222 q 406 -233 418 -233 q 366 -217 385 -233 q 347 -172 347 -200 q 365 -125 347 -143 q 413 -107 383 -107 q 467 -133 447 -107 q 486 -203 486 -158 q 453 -310 486 -262 q 368 -375 421 -358 l 357 -357 z "},"ș":{"ha":676,"x_min":82,"x_max":614,"o":"m 156 171 q 242 97 192 125 q 356 69 293 69 q 453 96 417 69 q 489 167 489 122 q 451 240 489 208 q 329 294 414 272 q 154 383 213 325 q 96 519 96 440 q 126 622 96 576 q 210 695 156 668 q 338 722 264 722 q 493 686 425 722 q 601 597 561 650 l 528 524 q 444 597 493 569 q 343 625 394 625 q 256 598 292 625 q 221 524 221 571 q 260 443 221 479 q 399 381 300 407 q 557 303 500 351 q 614 181 614 256 q 579 74 614 121 q 485 -1 544 26 q 349 -28 425 -28 q 191 9 260 -28 q 82 97 122 46 l 156 171 m 278 -357 q 343 -297 324 -328 q 365 -215 363 -267 q 349 -228 358 -222 q 326 -233 339 -233 q 287 -217 306 -233 q 268 -172 268 -200 q 286 -125 268 -143 q 333 -107 304 -107 q 388 -133 368 -107 q 407 -203 407 -158 q 374 -310 407 -262 q 289 -375 342 -358 l 278 -357 z "},"Ț":{"ha":869,"x_min":42,"x_max":828,"o":"m 372 861 l 42 861 l 42 972 l 828 972 l 828 861 l 497 861 l 497 0 l 372 0 l 372 861 m 375 -329 q 440 -269 421 -300 q 463 -187 460 -239 q 446 -200 456 -194 q 424 -206 436 -206 q 384 -189 403 -206 q 365 -144 365 -172 q 383 -97 365 -115 q 431 -79 401 -79 q 485 -105 465 -79 q 504 -175 504 -131 q 472 -283 504 -235 q 386 -347 439 -331 l 375 -329 z "},"ț":{"ha":549,"x_min":18,"x_max":485,"o":"m 485 8 q 400 -22 432 -15 q 340 -28 368 -28 q 207 25 247 -28 q 167 183 167 78 l 167 861 l 292 861 l 292 196 q 305 97 292 119 q 353 74 318 74 q 408 81 379 74 q 460 101 438 89 l 485 8 m 18 694 l 479 694 l 479 597 l 18 597 l 18 694 m 246 -329 q 311 -269 292 -300 q 333 -187 331 -239 q 317 -200 326 -194 q 294 -206 307 -206 q 255 -189 274 -206 q 236 -144 236 -172 q 254 -97 236 -115 q 301 -79 272 -79 q 356 -105 336 -79 q 375 -175 375 -131 q 342 -283 375 -235 q 257 -347 310 -331 l 246 -329 z "},"Ẁ":{"ha":1333,"x_min":38,"x_max":1297,"o":"m 38 972 l 169 972 l 422 0 l 317 0 l 38 972 m 614 972 l 696 972 l 474 0 l 378 0 l 614 972 m 639 972 l 721 972 l 957 0 l 861 0 l 639 972 m 1165 972 l 1297 972 l 1018 0 l 913 0 l 1165 972 m 482 1278 l 622 1278 l 721 1068 l 622 1068 l 482 1278 z "},"ẁ":{"ha":1186,"x_min":51,"x_max":1135,"o":"m 51 694 l 189 694 l 367 150 l 538 694 l 649 694 l 819 150 l 997 694 l 1135 694 l 882 0 l 763 0 l 593 561 l 424 0 l 304 0 l 51 694 m 408 1001 l 549 1001 l 647 792 l 549 792 l 408 1001 z "},"Ẃ":{"ha":1333,"x_min":38,"x_max":1297,"o":"m 38 972 l 169 972 l 422 0 l 317 0 l 38 972 m 614 972 l 696 972 l 474 0 l 378 0 l 614 972 m 639 972 l 721 972 l 957 0 l 861 0 l 639 972 m 1165 972 l 1297 972 l 1018 0 l 913 0 l 1165 972 m 718 1278 l 857 1278 l 717 1068 l 619 1068 l 718 1278 z "},"ẃ":{"ha":1186,"x_min":51,"x_max":1135,"o":"m 51 694 l 189 694 l 367 150 l 538 694 l 649 694 l 819 150 l 997 694 l 1135 694 l 882 0 l 763 0 l 593 561 l 424 0 l 304 0 l 51 694 m 644 1001 l 783 1001 l 643 792 l 546 792 l 644 1001 z "},"Ẅ":{"ha":1333,"x_min":38,"x_max":1297,"o":"m 38 972 l 169 972 l 422 0 l 317 0 l 38 972 m 614 972 l 696 972 l 474 0 l 378 0 l 614 972 m 639 972 l 721 972 l 957 0 l 861 0 l 639 972 m 1165 972 l 1297 972 l 1018 0 l 913 0 l 1165 972 m 458 1172 q 476 1217 458 1196 q 526 1238 493 1238 q 576 1217 558 1238 q 593 1172 593 1197 q 576 1128 593 1149 q 526 1107 558 1107 q 489 1117 504 1107 q 466 1142 474 1126 q 458 1172 458 1157 m 739 1172 q 757 1217 739 1196 q 807 1238 775 1238 q 857 1217 840 1238 q 874 1172 874 1197 q 857 1128 874 1149 q 807 1107 840 1107 q 771 1117 786 1107 q 747 1142 756 1126 q 739 1172 739 1157 z "},"ẅ":{"ha":1186,"x_min":51,"x_max":1135,"o":"m 51 694 l 189 694 l 367 150 l 538 694 l 649 694 l 819 150 l 997 694 l 1135 694 l 882 0 l 763 0 l 593 561 l 424 0 l 304 0 l 51 694 m 385 896 q 402 940 385 919 q 453 961 419 961 q 502 941 485 961 q 519 896 519 921 q 502 851 519 872 q 453 831 485 831 q 415 840 431 831 q 392 865 400 850 q 385 896 385 881 m 665 896 q 683 940 665 919 q 733 961 701 961 q 783 941 767 961 q 800 896 800 921 q 783 851 800 872 q 733 831 767 831 q 697 840 713 831 q 674 865 682 850 q 665 896 665 881 z "},"ĵ":{"ha":403,"x_min":-18,"x_max":422,"o":"m 7 -189 q 60 -204 33 -199 q 103 -210 88 -210 q 151 -182 140 -210 q 161 -82 161 -154 l 161 694 l 286 694 l 286 -94 q 245 -256 286 -204 q 128 -307 204 -307 q 71 -303 92 -307 q 31 -292 50 -299 q -18 -275 11 -285 l 7 -189 m 172 1001 l 281 1001 l 422 792 l 321 792 l 226 949 l 132 792 l 31 792 l 172 1001 z "},"Į":{"ha":453,"x_min":93,"x_max":290,"o":"m 164 972 l 289 972 l 289 0 l 164 0 l 164 972 m 232 -286 q 131 -238 169 -275 q 93 -153 93 -201 q 138 -56 93 -100 q 260 4 183 -11 l 289 0 q 222 -61 246 -22 q 197 -143 197 -100 q 221 -213 197 -185 q 290 -254 244 -242 l 232 -286 z "},"Ą":{"ha":910,"x_min":44,"x_max":867,"o":"m 246 300 l 660 300 l 707 196 l 199 196 l 246 300 m 360 972 l 475 972 l 178 0 l 44 0 l 360 972 m 435 972 l 550 972 l 865 0 l 732 0 l 435 972 m 808 -286 q 708 -238 746 -275 q 669 -153 669 -201 q 715 -56 669 -100 q 836 4 760 -11 l 865 0 q 798 -61 822 -22 q 774 -143 774 -100 q 797 -213 774 -185 q 867 -254 821 -242 l 808 -286 z "},"Ę":{"ha":764,"x_min":117,"x_max":675,"o":"m 117 972 l 654 972 l 654 861 l 242 861 l 242 563 l 618 563 l 618 451 l 242 451 l 242 111 l 674 111 l 674 0 l 117 0 l 117 972 m 617 -285 q 516 -237 554 -274 q 478 -151 478 -200 q 523 -54 478 -99 q 644 6 568 -10 l 674 1 q 606 -60 631 -21 q 582 -142 582 -99 q 606 -212 582 -183 q 675 -253 629 -240 l 617 -285 z "},"Ų":{"ha":938,"x_min":111,"x_max":826,"o":"m 236 972 l 236 367 q 298 150 236 217 q 468 83 360 83 q 640 151 578 83 q 701 367 701 218 l 701 972 l 826 972 l 826 364 q 784 156 826 244 q 662 20 742 68 q 467 -28 582 -28 q 273 20 353 -28 q 152 156 193 68 q 111 364 111 243 l 111 972 l 236 972 m 569 -283 q 469 -235 507 -272 q 431 -150 431 -199 q 476 -53 431 -97 q 597 7 521 -8 l 626 3 q 559 -58 583 -19 q 535 -140 535 -97 q 558 -210 535 -182 q 628 -251 582 -239 l 569 -283 z "},"Ç":{"ha":950,"x_min":74,"x_max":885,"o":"m 885 142 q 723 13 808 54 q 535 -28 638 -28 q 347 10 432 -28 q 201 119 263 49 q 107 289 140 190 q 74 507 74 388 q 127 768 74 657 q 281 940 181 879 q 525 1000 382 1000 q 728 959 639 1000 q 885 832 817 918 l 804 751 q 671 856 740 822 q 519 889 601 889 q 289 790 374 889 q 204 508 204 692 q 246 285 204 381 q 362 136 288 189 q 536 83 436 83 q 682 118 614 83 q 804 222 750 153 l 885 142 m 422 -237 q 463 -248 440 -243 q 508 -253 485 -253 q 573 -235 553 -253 q 593 -183 593 -218 q 572 -131 593 -147 q 515 -114 551 -114 q 489 -115 501 -114 q 461 -119 476 -117 l 538 21 l 617 21 l 554 -89 q 651 -115 615 -89 q 688 -190 688 -142 q 642 -274 688 -244 q 513 -303 596 -303 q 445 -297 472 -303 q 396 -285 418 -290 l 422 -237 z "},"Ş":{"ha":833,"x_min":67,"x_max":751,"o":"m 147 221 q 276 119 208 154 q 425 83 343 83 q 529 101 483 83 q 601 156 575 119 q 626 244 626 192 q 603 329 626 293 q 528 391 579 365 q 400 433 478 417 q 263 478 322 450 q 163 544 203 506 q 101 630 122 582 q 81 736 81 678 q 119 876 81 817 q 229 968 158 936 q 394 1000 300 1000 q 588 958 501 1000 q 739 832 674 915 l 658 751 q 531 853 597 818 q 390 889 465 889 q 294 871 336 889 q 229 818 253 853 q 206 732 206 783 q 226 653 206 689 q 297 589 247 617 q 435 542 347 561 q 576 494 517 522 q 674 428 635 465 q 733 344 714 390 q 751 242 751 297 q 707 92 751 153 q 587 2 663 32 q 418 -28 511 -28 q 219 15 307 -28 q 67 140 132 57 l 147 221 m 282 -237 q 322 -248 300 -243 q 368 -253 344 -253 q 433 -235 413 -253 q 453 -183 453 -218 q 432 -131 453 -147 q 375 -114 411 -114 q 349 -115 361 -114 q 321 -119 336 -117 l 397 21 l 476 21 l 414 -89 q 511 -115 475 -89 q 547 -190 547 -142 q 501 -274 547 -244 q 372 -303 456 -303 q 305 -297 332 -303 q 256 -285 278 -290 l 282 -237 z "},"Ţ":{"ha":900,"x_min":57,"x_max":843,"o":"m 388 861 l 57 861 l 57 972 l 843 972 l 843 861 l 513 861 l 513 0 l 388 0 l 388 861 m 315 -237 q 356 -248 333 -243 q 401 -253 378 -253 q 466 -235 446 -253 q 486 -183 486 -218 q 465 -131 486 -147 q 408 -114 444 -114 q 382 -115 394 -114 q 354 -119 369 -117 l 431 21 l 510 21 l 447 -89 q 544 -115 508 -89 q 581 -190 581 -142 q 535 -274 581 -244 q 406 -303 489 -303 q 338 -297 365 -303 q 289 -285 311 -290 l 315 -237 z "},"Þ":{"ha":857,"x_min":122,"x_max":775,"o":"m 194 351 l 424 351 q 554 367 504 351 q 627 416 604 382 q 650 507 650 450 q 628 592 650 561 q 558 637 607 624 q 424 650 508 650 l 178 650 l 178 761 l 438 761 q 691 703 607 761 q 775 504 775 644 q 737 351 775 410 q 624 267 699 293 q 438 240 549 240 l 194 240 l 194 351 m 122 972 l 247 972 l 247 0 l 122 0 l 122 972 z "},"þ":{"ha":882,"x_min":129,"x_max":799,"o":"m 129 1043 l 254 1043 l 254 539 q 344 672 285 621 q 490 722 404 722 q 660 675 592 722 q 763 545 728 628 q 799 354 799 463 q 760 160 799 246 q 651 23 722 74 q 482 -28 581 -28 q 341 26 399 -28 q 254 163 283 79 l 254 -278 l 129 -278 l 129 1043 m 469 69 q 619 147 564 69 q 674 356 674 225 q 620 554 674 483 q 471 625 567 625 q 359 590 408 625 q 282 494 310 556 q 254 354 254 433 q 281 210 254 275 q 357 108 308 146 q 469 69 406 69 z "},"ĭ":{"ha":378,"x_min":18,"x_max":364,"o":"m 126 694 l 251 694 l 251 0 l 126 0 l 126 694 m 103 1001 q 129 903 107 938 q 189 869 151 869 q 251 906 228 869 q 279 1001 275 942 l 364 1001 q 310 849 356 904 q 190 794 264 794 q 71 850 117 794 q 18 1001 25 906 l 103 1001 z "},"Ĭ":{"ha":453,"x_min":56,"x_max":401,"o":"m 164 972 l 289 972 l 289 0 l 164 0 l 164 972 m 140 1278 q 167 1180 144 1214 q 226 1146 189 1146 q 289 1182 265 1146 q 317 1278 313 1218 l 401 1278 q 347 1126 393 1181 q 228 1071 301 1071 q 108 1126 154 1071 q 56 1278 63 1182 l 140 1278 z "},"Ŋ":{"ha":1044,"x_min":135,"x_max":910,"o":"m 135 972 l 246 972 l 785 203 l 785 972 l 910 972 l 910 35 l 799 0 l 260 769 l 260 0 l 135 0 l 135 972 m 372 -29 q 483 -156 425 -115 q 608 -196 540 -196 q 740 -139 694 -196 q 785 19 785 -82 l 785 693 l 910 693 l 910 29 q 833 -221 910 -135 q 615 -307 756 -307 q 435 -259 513 -307 q 292 -110 358 -211 l 372 -29 z "},"ŋ":{"ha":882,"x_min":131,"x_max":751,"o":"m 131 694 l 256 694 l 256 517 q 315 626 276 581 q 404 697 353 672 q 517 722 456 722 q 694 647 636 722 q 751 422 751 572 l 751 -94 q 706 -256 751 -204 q 575 -307 661 -307 q 513 -303 536 -307 q 469 -292 489 -299 q 419 -275 449 -285 l 450 -189 q 506 -203 476 -199 q 554 -208 536 -208 q 613 -181 600 -208 q 626 -81 626 -153 l 626 407 q 595 574 626 525 q 486 622 564 622 q 314 534 372 622 q 256 301 256 446 l 256 0 l 131 0 l 131 694 z "},"Ǽ":{"ha":1222,"x_min":44,"x_max":1132,"o":"m 575 972 l 1113 972 l 1113 861 l 700 861 l 700 563 l 1076 563 l 1076 451 l 700 451 l 700 111 l 1132 111 l 1132 0 l 575 0 l 575 972 m 422 972 l 681 972 l 679 861 l 375 861 l 422 972 m 239 307 l 635 307 l 682 196 l 192 196 l 239 307 m 360 972 l 471 972 l 178 0 l 44 0 l 360 972 m 718 1278 l 857 1278 l 717 1068 l 619 1068 l 718 1278 z "},"ǽ":{"ha":1299,"x_min":43,"x_max":1249,"o":"m 939 -28 q 765 15 839 -28 q 648 141 690 57 q 606 349 606 225 q 647 554 606 471 q 761 680 688 638 q 933 722 835 722 q 1105 677 1035 722 q 1212 544 1175 632 q 1249 329 1249 457 l 726 329 q 778 143 726 217 q 938 69 829 69 q 1053 96 1001 69 q 1142 171 1106 122 l 1215 97 q 1103 7 1174 42 q 939 -28 1033 -28 m 360 -28 q 192 23 263 -28 q 82 161 121 74 q 43 360 43 249 q 78 547 43 465 q 182 676 114 629 q 347 722 250 722 q 559 624 486 722 q 632 344 632 526 q 562 70 632 168 q 360 -28 492 -28 m 378 69 q 495 107 444 69 q 574 208 546 144 q 601 353 601 272 q 572 494 601 433 q 492 590 543 556 q 374 625 442 625 q 223 553 278 625 q 168 357 168 482 q 225 148 168 226 q 378 69 282 69 m 601 0 l 601 694 l 726 694 l 726 0 l 601 0 m 728 411 l 1119 411 q 1060 572 1110 518 q 928 625 1010 625 q 792 572 847 625 q 728 411 738 518 m 704 1001 l 843 1001 l 703 792 l 606 792 l 704 1001 z "},"Ǿ":{"ha":1104,"x_min":88,"x_max":1017,"o":"m 551 -28 q 312 31 417 -28 q 147 205 207 90 q 88 486 88 319 q 146 765 88 650 q 309 940 204 879 q 553 1000 414 1000 q 801 937 697 1000 q 961 758 906 874 q 1017 486 1017 643 q 957 203 1017 318 q 792 31 897 89 q 551 -28 688 -28 m 211 -93 l 796 1067 l 892 1067 l 307 -93 l 211 -93 m 556 83 q 733 132 660 83 q 847 271 807 181 q 886 486 886 361 q 801 788 886 688 q 547 889 717 889 q 304 782 390 889 q 218 486 218 675 q 306 185 218 286 q 556 83 393 83 m 604 1278 l 743 1278 l 603 1068 l 506 1068 l 604 1278 z "},"ǿ":{"ha":856,"x_min":96,"x_max":760,"o":"m 140 -107 l 219 49 l 236 86 l 526 642 l 543 689 l 600 803 l 715 803 l 635 642 l 621 613 l 333 58 l 319 18 l 257 -107 l 140 -107 m 419 -28 q 244 17 317 -28 q 133 147 171 61 q 96 354 96 232 q 134 552 96 469 q 244 678 172 635 q 421 722 317 722 q 674 625 589 722 q 760 354 760 528 q 674 72 760 171 q 419 -28 589 -28 m 422 69 q 583 139 531 69 q 635 351 635 208 q 583 556 635 488 q 425 625 531 625 q 271 559 321 625 q 221 354 221 493 q 271 141 221 213 q 422 69 321 69 m 479 1001 l 618 1001 l 478 792 l 381 792 l 479 1001 z "},"Ȳ":{"ha":892,"x_min":44,"x_max":847,"o":"m 383 411 l 44 972 l 188 972 l 446 535 l 704 972 l 847 972 l 508 411 l 508 0 l 383 0 l 383 411 m 225 1203 l 668 1203 l 668 1121 l 225 1121 l 225 1203 z "},"ȳ":{"ha":731,"x_min":28,"x_max":703,"o":"m 94 -189 q 151 -204 121 -199 q 199 -210 181 -210 q 251 -194 229 -210 q 288 -151 272 -179 q 318 -81 304 -122 l 571 694 l 703 694 l 426 -108 q 378 -217 404 -172 q 314 -284 351 -261 q 219 -307 276 -307 q 157 -303 181 -307 q 113 -292 133 -299 q 64 -275 93 -285 l 94 -189 m 28 694 l 160 694 l 385 0 l 267 0 l 28 694 m 144 926 l 588 926 l 588 844 l 144 844 l 144 926 z "},"А":{"ha":910,"x_min":44,"x_max":865,"o":"m 246 300 l 660 300 l 707 196 l 199 196 l 246 300 m 360 972 l 475 972 l 178 0 l 44 0 l 360 972 m 435 972 l 550 972 l 865 0 l 732 0 l 435 972 z "},"В":{"ha":881,"x_min":122,"x_max":811,"o":"m 122 972 l 461 972 q 615 944 551 972 q 713 861 679 915 q 747 731 747 807 q 679 571 747 625 q 479 517 611 517 q 660 489 586 517 q 773 407 735 461 q 811 272 811 353 q 770 126 811 188 q 658 33 729 65 q 494 0 588 0 l 122 0 l 122 972 m 454 111 q 632 158 579 111 q 685 288 685 204 q 633 415 685 371 q 456 458 581 458 l 139 458 l 139 564 l 440 564 q 577 607 533 564 q 621 722 621 650 q 578 828 621 794 q 440 861 535 861 l 247 861 l 247 111 l 454 111 z "},"Е":{"ha":736,"x_min":103,"x_max":660,"o":"m 103 972 l 640 972 l 640 861 l 228 861 l 228 563 l 604 563 l 604 451 l 228 451 l 228 111 l 660 111 l 660 0 l 103 0 l 103 972 z "},"И":{"ha":1044,"x_min":135,"x_max":910,"o":"m 135 972 l 260 972 l 260 203 l 799 972 l 910 972 l 910 0 l 785 0 l 785 769 l 246 0 l 135 0 l 135 972 z "},"М":{"ha":1233,"x_min":121,"x_max":1113,"o":"m 121 972 l 246 972 l 617 246 l 988 972 l 1113 972 l 1113 0 l 988 0 l 988 729 l 647 69 l 586 69 l 246 729 l 246 0 l 121 0 l 121 972 z "},"Н":{"ha":994,"x_min":121,"x_max":874,"o":"m 121 972 l 246 972 l 246 569 l 749 569 l 749 972 l 874 972 l 874 0 l 749 0 l 749 458 l 246 458 l 246 0 l 121 0 l 121 972 z "},"О":{"ha":1076,"x_min":74,"x_max":1003,"o":"m 538 -28 q 298 31 403 -28 q 133 205 193 90 q 74 486 74 319 q 132 765 74 650 q 295 940 190 879 q 539 1000 400 1000 q 788 937 683 1000 q 947 758 892 874 q 1003 486 1003 643 q 943 203 1003 318 q 778 31 883 89 q 538 -28 674 -28 m 542 83 q 719 132 646 83 q 833 271 793 181 q 872 486 872 361 q 788 788 872 688 q 533 889 703 889 q 290 782 376 889 q 204 486 204 675 q 292 185 204 286 q 542 83 379 83 z "},"Р":{"ha":872,"x_min":122,"x_max":813,"o":"m 122 972 l 436 972 q 641 933 557 972 q 769 824 725 894 q 813 656 813 753 q 767 483 813 556 q 637 369 722 410 q 431 329 551 329 l 247 329 l 247 0 l 122 0 l 122 972 m 428 440 q 574 464 517 440 q 659 536 631 488 q 688 658 688 585 q 660 774 688 729 q 577 840 633 819 q 432 861 521 861 l 247 861 l 247 440 l 428 440 z "},"С":{"ha":950,"x_min":74,"x_max":885,"o":"m 885 142 q 723 13 808 54 q 535 -28 638 -28 q 347 10 432 -28 q 201 119 263 49 q 107 289 140 190 q 74 507 74 388 q 127 768 74 657 q 281 940 181 879 q 525 1000 382 1000 q 728 959 639 1000 q 885 832 817 918 l 804 751 q 671 856 740 822 q 519 889 601 889 q 289 790 374 889 q 204 508 204 692 q 246 285 204 381 q 362 136 288 189 q 536 83 436 83 q 682 118 614 83 q 804 222 750 153 l 885 142 z "},"Т":{"ha":869,"x_min":42,"x_max":828,"o":"m 372 861 l 42 861 l 42 972 l 828 972 l 828 861 l 497 861 l 497 0 l 372 0 l 372 861 z "},"Х":{"ha":900,"x_min":49,"x_max":853,"o":"m 344 492 l 56 972 l 203 972 l 451 542 l 700 972 l 846 972 l 557 492 l 853 0 l 707 0 l 450 446 l 193 0 l 49 0 l 344 492 z "},"Я":{"ha":900,"x_min":57,"x_max":778,"o":"m 653 861 l 417 861 q 238 818 290 861 q 186 669 186 775 q 238 521 186 564 q 417 478 290 478 l 761 478 l 761 367 l 413 367 q 225 403 304 367 q 103 509 146 440 q 61 672 61 578 q 153 892 61 813 q 406 972 244 972 l 778 972 l 778 0 l 653 0 l 653 861 m 321 463 l 424 390 l 197 0 l 57 0 l 321 463 z "},"Ѕ":{"ha":833,"x_min":67,"x_max":751,"o":"m 147 221 q 276 119 208 154 q 425 83 343 83 q 529 101 483 83 q 601 156 575 119 q 626 244 626 192 q 603 329 626 293 q 528 391 579 365 q 400 433 478 417 q 263 478 322 450 q 163 544 203 506 q 101 630 122 582 q 81 736 81 678 q 119 876 81 817 q 229 968 158 936 q 394 1000 300 1000 q 588 958 501 1000 q 739 832 674 915 l 658 751 q 531 853 597 818 q 390 889 465 889 q 294 871 336 889 q 229 818 253 853 q 206 732 206 783 q 226 653 206 689 q 297 589 247 617 q 435 542 347 561 q 576 494 517 522 q 674 428 635 465 q 733 344 714 390 q 751 242 751 297 q 707 92 751 153 q 587 2 663 32 q 418 -28 511 -28 q 219 15 307 -28 q 67 140 132 57 l 147 221 z "},"І":{"ha":453,"x_min":164,"x_max":289,"o":"m 164 972 l 289 972 l 289 0 l 164 0 l 164 972 z "},"а":{"ha":828,"x_min":43,"x_max":713,"o":"m 353 -28 q 188 21 257 -28 q 81 156 118 69 q 43 353 43 242 q 78 542 43 458 q 178 674 113 625 q 340 722 244 722 q 547 624 475 722 q 618 344 618 526 q 550 70 618 168 q 353 -28 482 -28 m 371 69 q 485 107 436 69 q 560 208 533 144 q 588 353 588 272 q 560 494 588 433 q 482 590 532 556 q 367 625 432 625 q 221 553 274 625 q 168 357 168 482 q 223 148 168 226 q 371 69 278 69 m 588 0 l 588 694 l 713 694 l 713 0 l 588 0 z "},"е":{"ha":764,"x_min":65,"x_max":703,"o":"m 390 -28 q 220 15 293 -28 q 106 141 147 57 q 65 349 65 225 q 150 627 65 532 q 385 722 235 722 q 560 677 488 722 q 667 544 632 632 q 694 329 703 457 l 190 329 q 240 143 190 217 q 392 69 289 69 q 501 96 451 69 q 588 171 551 122 l 661 97 q 551 7 619 42 q 390 -28 482 -28 m 196 411 l 565 411 q 508 572 556 518 q 385 625 461 625 q 257 572 308 625 q 196 411 206 518 z "},"о":{"ha":803,"x_min":64,"x_max":739,"o":"m 393 -28 q 214 17 288 -28 q 102 147 140 61 q 64 354 64 232 q 102 552 64 469 q 215 678 140 635 q 394 722 289 722 q 652 625 565 722 q 739 354 739 528 q 651 72 739 171 q 393 -28 564 -28 m 396 69 q 560 139 507 69 q 614 351 614 208 q 560 556 614 488 q 399 625 507 625 q 240 559 292 625 q 189 354 189 493 q 240 141 189 213 q 396 69 292 69 z "},"р":{"ha":829,"x_min":107,"x_max":776,"o":"m 107 694 l 232 694 l 232 -278 l 107 -278 l 107 694 m 460 -28 q 319 25 376 -28 q 231 165 261 78 q 201 354 201 253 q 233 540 201 457 q 324 673 264 624 q 468 722 383 722 q 638 675 569 722 q 741 545 706 628 q 776 354 776 463 q 738 160 776 246 q 629 23 700 74 q 460 -28 558 -28 m 447 69 q 597 147 542 69 q 651 356 651 225 q 598 554 651 483 q 449 625 544 625 q 337 590 386 625 q 260 495 288 556 q 232 357 232 435 q 259 211 232 276 q 335 108 286 146 q 447 69 383 69 z "},"с":{"ha":701,"x_min":64,"x_max":663,"o":"m 663 97 q 547 7 619 42 q 378 -28 474 -28 q 146 72 228 -28 q 64 354 64 171 q 145 625 64 528 q 376 722 226 722 q 540 688 469 722 q 654 597 611 653 l 581 524 q 491 599 543 572 q 381 625 439 625 q 236 559 283 625 q 189 354 189 493 q 236 141 189 213 q 378 69 283 69 q 495 96 439 69 q 589 171 551 122 l 663 97 z "},"у":{"ha":731,"x_min":28,"x_max":703,"o":"m 94 -189 q 151 -204 121 -199 q 199 -210 181 -210 q 251 -194 229 -210 q 288 -151 272 -179 q 318 -81 304 -122 l 571 694 l 703 694 l 426 -108 q 378 -217 404 -172 q 314 -284 351 -261 q 219 -307 276 -307 q 157 -303 181 -307 q 113 -292 133 -299 q 64 -275 93 -285 l 94 -189 m 28 694 l 160 694 l 385 0 l 267 0 l 28 694 z "},"х":{"ha":769,"x_min":57,"x_max":713,"o":"m 293 364 l 307 328 l 69 694 l 221 694 l 408 368 l 361 368 l 549 694 l 699 694 l 471 329 l 485 365 l 713 0 l 561 0 l 383 308 l 206 0 l 57 0 l 293 364 z "},"ѕ":{"ha":676,"x_min":82,"x_max":614,"o":"m 156 171 q 242 97 192 125 q 356 69 293 69 q 453 96 417 69 q 489 167 489 122 q 451 240 489 208 q 329 294 414 272 q 154 383 213 325 q 96 519 96 440 q 126 622 96 576 q 210 695 156 668 q 338 722 264 722 q 493 686 425 722 q 601 597 561 650 l 528 524 q 444 597 493 569 q 343 625 394 625 q 256 598 292 625 q 221 524 221 571 q 260 443 221 479 q 399 381 300 407 q 557 303 500 351 q 614 181 614 256 q 579 74 614 121 q 485 -1 544 26 q 349 -28 425 -28 q 191 9 260 -28 q 82 97 122 46 l 156 171 z "},"ї":{"ha":433,"x_min":8,"x_max":424,"o":"m 154 694 l 279 694 l 279 0 l 154 0 l 154 694 m 8 896 q 26 940 8 919 q 76 961 43 961 q 126 941 108 961 q 143 896 143 921 q 126 851 143 872 q 76 831 108 831 q 39 840 54 831 q 16 865 24 850 q 8 896 8 881 m 289 896 q 307 940 289 919 q 357 961 325 961 q 407 941 390 961 q 424 896 424 921 q 407 851 424 872 q 357 831 390 831 q 321 840 336 831 q 297 865 306 850 q 289 896 289 881 z "},"ј":{"ha":403,"x_min":-18,"x_max":300,"o":"m 7 -189 q 60 -204 33 -199 q 103 -210 88 -210 q 151 -182 140 -210 q 161 -82 161 -154 l 161 694 l 286 694 l 286 -94 q 245 -256 286 -204 q 128 -307 204 -307 q 71 -303 92 -307 q 31 -292 50 -299 q -18 -275 11 -285 l 7 -189 m 154 897 q 163 930 154 914 q 188 956 171 946 q 228 967 204 967 q 282 945 264 967 q 300 897 300 924 q 282 848 300 871 q 228 825 264 825 q 188 836 204 825 q 163 864 171 847 q 154 897 154 881 z "},"Ї":{"ha":453,"x_min":18,"x_max":433,"o":"m 164 972 l 289 972 l 289 0 l 164 0 l 164 972 m 18 1172 q 35 1217 18 1196 q 86 1238 53 1238 q 135 1217 118 1238 q 153 1172 153 1197 q 135 1128 153 1149 q 86 1107 118 1107 q 49 1117 64 1107 q 26 1142 33 1126 q 18 1172 18 1157 m 299 1172 q 317 1217 299 1196 q 367 1238 335 1238 q 417 1217 400 1238 q 433 1172 433 1197 q 417 1128 433 1149 q 367 1107 400 1107 q 331 1117 346 1107 q 307 1142 315 1126 q 299 1172 299 1157 z "},"і":{"ha":378,"x_min":117,"x_max":263,"o":"m 126 694 l 251 694 l 251 0 l 126 0 l 126 694 m 117 897 q 125 930 117 914 q 150 956 133 946 q 190 967 167 967 q 244 945 226 967 q 263 897 263 924 q 244 848 263 871 q 190 825 226 825 q 150 836 167 825 q 125 864 133 847 q 117 897 117 881 z "},"Й":{"ha":1044,"x_min":135,"x_max":910,"o":"m 135 972 l 260 972 l 260 203 l 799 972 l 910 972 l 910 0 l 785 0 l 785 769 l 246 0 l 135 0 l 135 972 m 408 1278 q 442 1180 413 1214 q 521 1146 472 1146 q 604 1182 572 1146 q 640 1278 636 1218 l 725 1278 q 663 1126 717 1181 q 524 1071 608 1071 q 385 1126 438 1071 q 324 1278 332 1182 l 408 1278 z "},"Ё":{"ha":736,"x_min":103,"x_max":660,"o":"m 103 972 l 640 972 l 640 861 l 228 861 l 228 563 l 604 563 l 604 451 l 228 451 l 228 111 l 660 111 l 660 0 l 103 0 l 103 972 m 160 1172 q 177 1217 160 1196 q 228 1238 194 1238 q 277 1217 260 1238 q 294 1172 294 1197 q 277 1128 294 1149 q 228 1107 260 1107 q 190 1117 206 1107 q 167 1142 175 1126 q 160 1172 160 1157 m 440 1172 q 458 1217 440 1196 q 508 1238 476 1238 q 558 1217 542 1238 q 575 1172 575 1197 q 558 1128 575 1149 q 508 1107 542 1107 q 472 1117 488 1107 q 449 1142 457 1126 q 440 1172 440 1157 z "},"ё":{"ha":764,"x_min":65,"x_max":703,"o":"m 390 -28 q 220 15 293 -28 q 106 141 147 57 q 65 349 65 225 q 150 627 65 532 q 385 722 235 722 q 560 677 488 722 q 667 544 632 632 q 694 329 703 457 l 190 329 q 240 143 190 217 q 392 69 289 69 q 501 96 451 69 q 588 171 551 122 l 661 97 q 551 7 619 42 q 390 -28 482 -28 m 196 411 l 565 411 q 508 572 556 518 q 385 625 461 625 q 257 572 308 625 q 196 411 206 518 m 168 896 q 185 940 168 919 q 236 961 203 961 q 285 941 268 961 q 303 896 303 921 q 285 851 303 872 q 236 831 268 831 q 199 840 214 831 q 176 865 183 850 q 168 896 168 881 m 449 896 q 467 940 449 919 q 517 961 485 961 q 567 941 550 961 q 583 896 583 921 q 567 851 583 872 q 517 831 550 831 q 481 840 496 831 q 457 865 465 850 q 449 896 449 881 z "},"ў":{"ha":731,"x_min":28,"x_max":703,"o":"m 94 -189 q 151 -204 121 -199 q 199 -210 181 -210 q 251 -194 229 -210 q 288 -151 272 -179 q 318 -81 304 -122 l 571 694 l 703 694 l 426 -108 q 378 -217 404 -172 q 314 -284 351 -261 q 219 -307 276 -307 q 157 -303 181 -307 q 113 -292 133 -299 q 64 -275 93 -285 l 94 -189 m 28 694 l 160 694 l 385 0 l 267 0 l 28 694 m 251 1001 q 285 903 256 938 q 364 869 315 869 q 447 906 415 869 q 483 1001 479 942 l 568 1001 q 506 849 560 904 q 367 794 451 794 q 228 850 281 794 q 167 1001 175 906 l 251 1001 z "},"Ѓ":{"ha":756,"x_min":117,"x_max":664,"o":"m 117 972 l 664 972 l 664 861 l 242 861 l 242 0 l 117 0 l 117 972 m 429 1278 l 568 1278 l 428 1068 l 331 1068 l 429 1278 z "},"Ќ":{"ha":931,"x_min":122,"x_max":865,"o":"m 721 0 l 486 442 l 153 442 l 140 554 l 469 554 l 711 972 l 860 972 l 571 510 l 865 0 l 721 0 m 122 0 l 122 972 l 247 972 l 247 0 l 122 0 m 517 1278 l 656 1278 l 515 1068 l 418 1068 l 517 1278 z "},"Ж":{"ha":1400,"x_min":42,"x_max":1358,"o":"m 1214 0 l 979 442 l 674 442 l 661 554 l 963 554 l 1204 972 l 1353 972 l 1064 510 l 1358 0 l 1214 0 m 42 0 l 336 510 l 47 972 l 196 972 l 438 554 l 739 554 l 726 442 l 421 442 l 186 0 l 42 0 m 638 0 l 638 972 l 763 972 l 763 0 l 638 0 z "},"Ь":{"ha":851,"x_min":121,"x_max":783,"o":"m 121 972 l 246 972 l 246 610 l 458 610 q 630 574 557 610 q 743 469 703 538 q 783 307 783 401 q 744 145 783 214 q 633 38 704 76 q 463 0 561 0 l 121 0 l 121 972 m 458 111 q 574 134 531 111 q 638 201 618 157 q 658 306 658 244 q 612 448 658 397 q 458 499 565 499 l 246 499 l 246 111 l 458 111 z "},"ж":{"ha":1185,"x_min":33,"x_max":1150,"o":"m 1008 0 l 864 325 l 569 325 l 569 415 l 869 415 l 999 694 l 1131 694 l 956 365 l 1150 0 l 1008 0 m 33 0 l 228 365 l 53 694 l 185 694 l 314 415 l 607 415 l 607 325 l 319 325 l 175 0 l 33 0 m 529 0 l 529 694 l 654 694 l 654 0 l 529 0 z "},"й":{"ha":846,"x_min":111,"x_max":735,"o":"m 111 694 l 236 694 l 236 176 l 613 694 l 735 694 l 735 0 l 610 0 l 610 519 l 232 0 l 111 0 l 111 694 m 310 1001 q 344 903 314 938 q 422 869 374 869 q 506 906 474 869 q 542 1001 538 942 l 626 1001 q 564 849 618 904 q 425 794 510 794 q 286 850 339 794 q 225 1001 233 906 l 310 1001 z "},"ф":{"ha":1119,"x_min":63,"x_max":1057,"o":"m 496 1042 l 621 1042 l 621 -278 l 496 -278 l 496 1042 m 553 0 q 478 -21 518 -14 q 393 -28 438 -28 q 149 72 236 -28 q 63 354 63 171 q 148 625 63 528 q 392 722 233 722 q 473 715 435 722 q 543 696 511 708 l 522 593 q 461 616 493 608 q 394 624 429 624 q 238 558 289 624 q 188 354 188 492 q 238 142 188 213 q 392 71 289 71 q 479 83 436 71 q 557 118 522 94 l 553 0 m 567 115 q 643 82 601 93 q 728 71 685 71 q 881 142 831 71 q 932 354 932 213 q 881 558 932 492 q 725 624 831 624 q 567 575 638 624 l 571 694 q 644 715 604 707 q 728 722 683 722 q 972 625 886 722 q 1057 354 1057 528 q 970 72 1057 171 q 726 -28 883 -28 q 569 -1 642 -28 l 567 115 z "},"ѓ":{"ha":599,"x_min":117,"x_max":533,"o":"m 117 694 l 533 694 l 533 597 l 242 597 l 242 0 l 117 0 l 117 694 m 372 1001 l 511 1001 l 371 792 l 274 792 l 372 1001 z "},"љ":{"ha":1125,"x_min":29,"x_max":1069,"o":"m 51 74 q 71 71 63 72 q 88 69 79 69 q 151 128 129 69 q 181 322 172 186 q 187 484 185 392 q 189 694 189 576 l 667 694 l 667 424 l 843 424 q 1015 372 961 424 q 1069 221 1069 319 q 1007 60 1069 119 q 836 0 944 0 l 542 0 l 542 597 l 314 597 q 313 449 314 517 q 307 324 311 381 q 272 110 297 186 q 202 3 247 33 q 85 -28 157 -28 q 60 -26 75 -28 q 29 -22 44 -24 l 51 74 m 826 97 q 944 215 944 97 q 919 299 944 271 q 836 326 893 326 l 667 326 l 667 97 l 826 97 z "},"њ":{"ha":1125,"x_min":111,"x_max":1069,"o":"m 111 694 l 236 694 l 236 424 l 542 424 l 542 694 l 667 694 l 667 0 l 542 0 l 542 326 l 236 326 l 236 0 l 111 0 l 111 694 m 553 694 l 661 694 l 661 97 l 817 97 q 910 128 876 97 q 944 215 944 160 q 921 299 944 271 q 850 326 897 326 l 617 326 l 617 424 l 829 424 q 1069 221 1069 424 q 1010 59 1069 118 q 842 0 950 0 l 553 0 l 553 694 z "},"ќ":{"ha":813,"x_min":108,"x_max":757,"o":"m 108 694 l 233 694 l 233 0 l 108 0 l 108 694 m 118 415 l 476 415 l 606 694 l 738 694 l 563 365 l 757 0 l 615 0 l 471 325 l 128 325 l 118 415 m 443 1001 l 582 1001 l 442 792 l 344 792 l 443 1001 z "},"У":{"ha":850,"x_min":53,"x_max":797,"o":"m 126 28 q 217 33 176 28 q 290 50 258 38 q 345 88 322 63 q 382 151 368 113 l 664 972 l 797 972 l 465 63 q 399 -31 443 1 q 288 -73 356 -62 q 126 -83 221 -83 l 126 28 m 53 972 l 190 972 l 451 197 l 417 192 l 338 192 l 53 972 z "},"Ў":{"ha":850,"x_min":53,"x_max":797,"o":"m 126 28 q 217 33 176 28 q 290 50 258 38 q 345 88 322 63 q 382 151 368 113 l 664 972 l 797 972 l 465 63 q 399 -31 443 1 q 288 -73 356 -62 q 126 -83 221 -83 l 126 28 m 53 972 l 190 972 l 451 197 l 417 192 l 338 192 l 53 972 m 311 1278 q 345 1180 315 1214 q 424 1146 375 1146 q 507 1182 475 1146 q 543 1278 539 1218 l 628 1278 q 565 1126 619 1181 q 426 1071 511 1071 q 288 1126 340 1071 q 226 1278 235 1182 l 311 1278 z "},"Ѐ":{"ha":736,"x_min":103,"x_max":660,"o":"m 103 972 l 640 972 l 640 861 l 228 861 l 228 563 l 604 563 l 604 451 l 228 451 l 228 111 l 660 111 l 660 0 l 103 0 l 103 972 m 183 1278 l 324 1278 l 422 1068 l 324 1068 l 183 1278 z "},"Ѝ":{"ha":1044,"x_min":135,"x_max":910,"o":"m 135 972 l 260 972 l 260 203 l 799 972 l 910 972 l 910 0 l 785 0 l 785 769 l 246 0 l 135 0 l 135 972 m 338 1278 l 478 1278 l 576 1068 l 478 1068 l 338 1278 z "},"ѐ":{"ha":764,"x_min":65,"x_max":703,"o":"m 390 -28 q 220 15 293 -28 q 106 141 147 57 q 65 349 65 225 q 150 627 65 532 q 385 722 235 722 q 560 677 488 722 q 667 544 632 632 q 694 329 703 457 l 190 329 q 240 143 190 217 q 392 69 289 69 q 501 96 451 69 q 588 171 551 122 l 661 97 q 551 7 619 42 q 390 -28 482 -28 m 196 411 l 565 411 q 508 572 556 518 q 385 625 461 625 q 257 572 308 625 q 196 411 206 518 m 192 1001 l 332 1001 l 431 792 l 332 792 l 192 1001 z "},"ѝ":{"ha":846,"x_min":111,"x_max":735,"o":"m 111 694 l 236 694 l 236 176 l 613 694 l 735 694 l 735 0 l 610 0 l 610 519 l 232 0 l 111 0 l 111 694 m 239 1001 l 379 1001 l 478 792 l 379 792 l 239 1001 z "},"ß":{"ha":1007,"x_min":111,"x_max":913,"o":"m 639 -28 q 488 5 558 -28 q 372 103 417 38 l 453 183 q 533 97 490 124 q 638 69 576 69 q 708 80 674 69 q 765 116 742 90 q 788 185 788 142 q 759 265 788 232 q 690 324 731 299 q 607 376 649 350 q 538 438 565 403 q 510 525 510 474 q 530 606 510 571 q 576 674 550 642 q 623 742 603 706 q 643 824 643 778 q 616 895 643 869 q 547 932 589 921 q 458 943 504 943 q 294 891 351 943 q 236 743 236 839 l 236 0 l 111 0 l 111 757 q 156 914 111 851 q 276 1008 200 976 q 449 1040 351 1040 q 613 1013 540 1040 q 726 934 685 985 q 768 811 768 883 q 748 714 768 753 q 701 646 728 675 q 655 590 675 617 q 635 532 635 564 q 663 472 635 496 q 732 425 690 447 q 815 375 774 403 q 884 306 856 347 q 913 199 913 264 q 878 83 913 135 q 783 2 844 32 q 639 -28 721 -28 z "},"ð":{"ha":803,"x_min":58,"x_max":733,"o":"m 733 375 q 690 158 733 249 q 571 20 647 68 q 396 -28 494 -28 q 219 17 294 -28 q 101 140 143 63 q 58 318 58 218 q 102 497 58 421 q 219 613 146 572 q 376 654 292 654 q 494 631 443 654 q 580 573 546 607 q 626 508 614 539 q 578 623 615 567 q 486 731 540 679 q 372 827 432 783 q 258 903 313 871 q 165 954 203 936 l 208 1032 q 395 922 303 985 q 565 781 488 860 q 688 601 642 701 q 733 375 733 500 m 392 71 q 550 142 492 71 q 608 322 608 213 q 549 497 608 436 q 397 557 490 557 q 240 491 297 557 q 183 313 183 425 q 241 135 183 199 q 392 71 299 71 m 625 958 l 661 882 l 447 796 l 200 690 l 164 767 l 388 847 l 625 958 z "},"ẞ":{"ha":993,"x_min":106,"x_max":939,"o":"m 106 679 l 106 679 q 202 923 106 846 q 504 1000 299 1000 q 644 988 579 1000 q 764 953 710 976 q 861 893 818 929 l 690 688 q 646 631 665 657 q 626 575 626 606 q 649 515 626 540 q 707 467 671 489 q 783 424 743 446 q 858 373 822 401 q 916 306 893 344 q 939 210 939 267 q 918 116 939 160 q 858 40 897 72 q 765 -10 819 8 q 643 -28 710 -28 q 482 8 546 -28 q 379 104 418 44 l 449 174 q 527 98 476 125 q 639 71 578 71 q 765 107 714 71 q 815 203 815 143 q 792 273 815 244 q 734 324 769 301 q 658 367 699 346 q 583 414 618 389 q 524 474 547 439 q 501 558 501 508 q 533 651 501 608 q 610 751 564 694 l 711 879 l 703 861 q 618 880 671 871 q 501 889 565 889 q 342 868 401 889 q 256 801 282 847 q 231 674 231 754 l 231 0 l 106 0 l 106 679 z "},"Α":{"ha":910,"x_min":44,"x_max":865,"o":"m 246 300 l 660 300 l 707 196 l 199 196 l 246 300 m 360 972 l 475 972 l 178 0 l 44 0 l 360 972 m 435 972 l 550 972 l 865 0 l 732 0 l 435 972 z "},"Β":{"ha":881,"x_min":122,"x_max":811,"o":"m 122 972 l 461 972 q 615 944 551 972 q 713 861 679 915 q 747 731 747 807 q 679 571 747 625 q 479 517 611 517 q 660 489 586 517 q 773 407 735 461 q 811 272 811 353 q 770 126 811 188 q 658 33 729 65 q 494 0 588 0 l 122 0 l 122 972 m 454 111 q 632 158 579 111 q 685 288 685 204 q 633 415 685 371 q 456 458 581 458 l 139 458 l 139 564 l 440 564 q 577 607 533 564 q 621 722 621 650 q 578 828 621 794 q 440 861 535 861 l 247 861 l 247 111 l 454 111 z "},"Ε":{"ha":736,"x_min":103,"x_max":660,"o":"m 103 972 l 640 972 l 640 861 l 228 861 l 228 563 l 604 563 l 604 451 l 228 451 l 228 111 l 660 111 l 660 0 l 103 0 l 103 972 z "},"Ζ":{"ha":801,"x_min":53,"x_max":744,"o":"m 53 104 l 596 861 l 92 861 l 92 972 l 742 972 l 742 868 l 199 111 l 744 111 l 744 0 l 53 0 l 53 104 z "},"Η":{"ha":994,"x_min":121,"x_max":874,"o":"m 121 972 l 246 972 l 246 569 l 749 569 l 749 972 l 874 972 l 874 0 l 749 0 l 749 458 l 246 458 l 246 0 l 121 0 l 121 972 z "},"Ι":{"ha":453,"x_min":164,"x_max":289,"o":"m 164 972 l 289 972 l 289 0 l 164 0 l 164 972 z "},"Κ":{"ha":931,"x_min":122,"x_max":865,"o":"m 721 0 l 486 442 l 153 442 l 140 554 l 469 554 l 711 972 l 860 972 l 571 510 l 865 0 l 721 0 m 122 0 l 122 972 l 247 972 l 247 0 l 122 0 z "},"Μ":{"ha":1233,"x_min":121,"x_max":1113,"o":"m 121 972 l 246 972 l 617 246 l 988 972 l 1113 972 l 1113 0 l 988 0 l 988 729 l 647 69 l 586 69 l 246 729 l 246 0 l 121 0 l 121 972 z "},"Ν":{"ha":1017,"x_min":121,"x_max":896,"o":"m 121 972 l 232 972 l 771 203 l 771 972 l 896 972 l 896 0 l 785 0 l 246 769 l 246 0 l 121 0 l 121 972 z "},"Ο":{"ha":1076,"x_min":74,"x_max":1003,"o":"m 538 -28 q 298 31 403 -28 q 133 205 193 90 q 74 486 74 319 q 132 765 74 650 q 295 940 190 879 q 539 1000 400 1000 q 788 937 683 1000 q 947 758 892 874 q 1003 486 1003 643 q 943 203 1003 318 q 778 31 883 89 q 538 -28 674 -28 m 542 83 q 719 132 646 83 q 833 271 793 181 q 872 486 872 361 q 788 788 872 688 q 533 889 703 889 q 290 782 376 889 q 204 486 204 675 q 292 185 204 286 q 542 83 379 83 z "},"Ρ":{"ha":872,"x_min":122,"x_max":813,"o":"m 122 972 l 436 972 q 641 933 557 972 q 769 824 725 894 q 813 656 813 753 q 767 483 813 556 q 637 369 722 410 q 431 329 551 329 l 247 329 l 247 0 l 122 0 l 122 972 m 428 440 q 574 464 517 440 q 659 536 631 488 q 688 658 688 585 q 660 774 688 729 q 577 840 633 819 q 432 861 521 861 l 247 861 l 247 440 l 428 440 z "},"Τ":{"ha":869,"x_min":42,"x_max":828,"o":"m 372 861 l 42 861 l 42 972 l 828 972 l 828 861 l 497 861 l 497 0 l 372 0 l 372 861 z "},"Υ":{"ha":892,"x_min":44,"x_max":847,"o":"m 383 411 l 44 972 l 188 972 l 446 535 l 704 972 l 847 972 l 508 411 l 508 0 l 383 0 l 383 411 z "},"Χ":{"ha":900,"x_min":49,"x_max":853,"o":"m 344 492 l 56 972 l 203 972 l 451 542 l 700 972 l 846 972 l 557 492 l 853 0 l 707 0 l 450 446 l 193 0 l 49 0 l 344 492 z "},"Γ":{"ha":756,"x_min":117,"x_max":664,"o":"m 117 972 l 664 972 l 664 861 l 242 861 l 242 0 l 117 0 l 117 972 z "},"Θ":{"ha":1090,"x_min":88,"x_max":1017,"o":"m 551 -28 q 312 31 417 -28 q 147 205 207 90 q 88 486 88 319 q 146 765 88 650 q 309 940 204 879 q 553 1000 414 1000 q 801 937 697 1000 q 961 758 906 874 q 1017 486 1017 643 q 957 203 1017 318 q 792 31 897 89 q 551 -28 688 -28 m 556 83 q 733 132 660 83 q 847 271 807 181 q 886 486 886 361 q 801 788 886 688 q 547 889 717 889 q 304 782 390 889 q 218 486 218 675 q 306 185 218 286 q 556 83 393 83 m 338 467 l 338 561 l 768 561 l 768 467 l 338 467 z "},"Λ":{"ha":910,"x_min":44,"x_max":865,"o":"m 732 0 l 435 972 l 550 972 l 865 0 l 732 0 m 44 0 l 360 972 l 475 972 l 178 0 l 44 0 z "},"Π":{"ha":944,"x_min":121,"x_max":824,"o":"m 121 972 l 824 972 l 824 0 l 699 0 l 699 861 l 246 861 l 246 0 l 121 0 l 121 972 z "},"Ϊ":{"ha":453,"x_min":18,"x_max":433,"o":"m 164 972 l 289 972 l 289 0 l 164 0 l 164 972 m 18 1172 q 35 1217 18 1196 q 86 1238 53 1238 q 135 1217 118 1238 q 153 1172 153 1197 q 135 1128 153 1149 q 86 1107 118 1107 q 49 1117 64 1107 q 26 1142 33 1126 q 18 1172 18 1157 m 299 1172 q 317 1217 299 1196 q 367 1238 335 1238 q 417 1217 400 1238 q 433 1172 433 1197 q 417 1128 433 1149 q 367 1107 400 1107 q 331 1117 346 1107 q 307 1142 315 1126 q 299 1172 299 1157 z "},"Ϋ":{"ha":892,"x_min":44,"x_max":847,"o":"m 383 411 l 44 972 l 188 972 l 446 535 l 704 972 l 847 972 l 508 411 l 508 0 l 383 0 l 383 411 m 238 1172 q 255 1217 238 1196 q 306 1238 272 1238 q 355 1217 338 1238 q 372 1172 372 1197 q 355 1128 372 1149 q 306 1107 338 1107 q 268 1117 283 1107 q 245 1142 253 1126 q 238 1172 238 1157 m 518 1172 q 536 1217 518 1196 q 586 1238 554 1238 q 636 1217 619 1238 q 653 1172 653 1197 q 636 1128 653 1149 q 586 1107 619 1107 q 550 1117 565 1107 q 526 1142 535 1126 q 518 1172 518 1157 z "},"Ί":{"ha":453,"x_min":-54,"x_max":289,"o":"m 164 972 l 289 972 l 289 0 l 164 0 l 164 972 m 1 975 l 117 975 l 33 765 l -54 765 l 1 975 z "},"Ό":{"ha":1076,"x_min":-47,"x_max":1003,"o":"m 538 -28 q 298 31 403 -28 q 133 205 193 90 q 74 486 74 319 q 132 765 74 650 q 295 940 190 879 q 539 1000 400 1000 q 788 937 683 1000 q 947 758 892 874 q 1003 486 1003 643 q 943 203 1003 318 q 778 31 883 89 q 538 -28 674 -28 m 542 83 q 719 132 646 83 q 833 271 793 181 q 872 486 872 361 q 788 788 872 688 q 533 889 703 889 q 290 782 376 889 q 204 486 204 675 q 292 185 204 286 q 542 83 379 83 m 8 975 l 124 975 l 40 765 l -47 765 l 8 975 z "},"Ύ":{"ha":892,"x_min":-153,"x_max":847,"o":"m 383 411 l 44 972 l 188 972 l 446 535 l 704 972 l 847 972 l 508 411 l 508 0 l 383 0 l 383 411 m -97 975 l 18 975 l -65 765 l -153 765 l -97 975 z "},"Έ":{"ha":736,"x_min":-94,"x_max":660,"o":"m 103 972 l 640 972 l 640 861 l 228 861 l 228 563 l 604 563 l 604 451 l 228 451 l 228 111 l 660 111 l 660 0 l 103 0 l 103 972 m -39 975 l 76 975 l -7 765 l -94 765 l -39 975 z "},"Ή":{"ha":994,"x_min":-94,"x_max":874,"o":"m 121 972 l 246 972 l 246 569 l 749 569 l 749 972 l 874 972 l 874 0 l 749 0 l 749 458 l 246 458 l 246 0 l 121 0 l 121 972 m -39 975 l 76 975 l -7 765 l -94 765 l -39 975 z "},"ρ":{"ha":833,"x_min":107,"x_max":769,"o":"m 107 349 l 232 381 l 232 -278 l 107 -278 l 107 349 m 107 343 q 143 542 107 457 q 252 675 179 628 q 436 722 325 722 q 617 679 543 722 q 731 552 692 636 q 769 344 769 468 q 731 151 769 235 q 623 19 692 67 q 464 -28 554 -28 q 355 -6 403 -28 q 276 56 307 17 q 230 149 244 96 q 221 267 215 203 q 173 301 201 276 q 121 347 144 325 l 107 343 m 433 69 q 592 140 540 69 q 644 349 644 210 q 592 557 644 489 q 435 625 539 625 q 283 556 335 625 q 232 347 232 488 q 285 139 232 208 q 433 69 339 69 z "},"ο":{"ha":803,"x_min":64,"x_max":739,"o":"m 393 -28 q 214 17 288 -28 q 102 147 140 61 q 64 354 64 232 q 102 552 64 469 q 215 678 140 635 q 394 722 289 722 q 652 625 565 722 q 739 354 739 528 q 651 72 739 171 q 393 -28 564 -28 m 396 69 q 560 139 507 69 q 614 351 614 208 q 560 556 614 488 q 399 625 507 625 q 240 559 292 625 q 189 354 189 493 q 240 141 189 213 q 396 69 292 69 z "},"κ":{"ha":825,"x_min":117,"x_max":761,"o":"m 117 694 l 242 694 l 242 0 l 117 0 l 117 694 m 122 417 l 488 417 l 629 694 l 742 694 l 567 365 l 761 0 l 619 0 l 463 322 l 132 322 l 122 417 z "},"ό":{"ha":803,"x_min":64,"x_max":739,"o":"m 393 -28 q 214 17 288 -28 q 102 147 140 61 q 64 354 64 232 q 102 552 64 469 q 215 678 140 635 q 394 722 289 722 q 652 625 565 722 q 739 354 739 528 q 651 72 739 171 q 393 -28 564 -28 m 396 69 q 560 139 507 69 q 614 351 614 208 q 560 556 614 488 q 399 625 507 625 q 240 559 292 625 q 189 354 189 493 q 240 141 189 213 q 396 69 292 69 m 401 1003 l 517 1003 l 433 793 l 346 793 l 401 1003 z "},"Ά":{"ha":910,"x_min":44,"x_max":865,"o":"m 246 300 l 660 300 l 707 196 l 199 196 l 246 300 m 360 972 l 475 972 l 178 0 l 44 0 l 360 972 m 435 972 l 550 972 l 865 0 l 732 0 l 435 972 m 147 975 l 263 975 l 179 765 l 92 765 l 147 975 z "}}}
